UbuntuSans-CondensedExtraBold.ufo
<glyph name="ampersand" format="2">
  <advance width="554"/>
  <unicode hex="0026"/>
  <outline>
    <contour>
      <point x="242" y="-14" type="curve" smooth="yes"/>
      <point x="294" y="-14"/>
      <point x="349" y="9"/>
      <point x="389" y="53" type="curve"/>
      <point x="400" y="36"/>
      <point x="408" y="19"/>
      <point x="415" y="0" type="curve"/>
      <point x="545" y="0" type="line"/>
      <point x="521" y="60"/>
      <point x="496" y="113"/>
      <point x="470" y="154" type="curve"/>
      <point x="498" y="215"/>
      <point x="511" y="288"/>
      <point x="516" y="363" type="curve"/>
      <point x="405" y="377" type="line"/>
      <point x="402" y="335"/>
      <point x="398" y="295"/>
      <point x="390" y="258" type="curve"/>
      <point x="305" y="364" type="line"/>
      <point x="374" y="421"/>
      <point x="407" y="484"/>
      <point x="407" y="555" type="curve" smooth="yes"/>
      <point x="407" y="654"/>
      <point x="352" y="707"/>
      <point x="251" y="707" type="curve" smooth="yes"/>
      <point x="148" y="707"/>
      <point x="86" y="644"/>
      <point x="86" y="540" type="curve" smooth="yes"/>
      <point x="86" y="481"/>
      <point x="100" y="440"/>
      <point x="140" y="383" type="curve"/>
      <point x="60" y="312"/>
      <point x="35" y="251"/>
      <point x="35" y="173" type="curve" smooth="yes"/>
      <point x="35" y="61"/>
      <point x="118" y="-14"/>
    </contour>
    <contour>
      <point x="248" y="101" type="curve" smooth="yes"/>
      <point x="204" y="101"/>
      <point x="163" y="129"/>
      <point x="163" y="189" type="curve" smooth="yes"/>
      <point x="163" y="229"/>
      <point x="175" y="267"/>
      <point x="203" y="301" type="curve"/>
      <point x="328" y="140" type="line"/>
      <point x="304" y="114"/>
      <point x="278" y="101"/>
    </contour>
    <contour>
      <point x="242" y="445" type="curve"/>
      <point x="213" y="486"/>
      <point x="201" y="515"/>
      <point x="201" y="542" type="curve" smooth="yes"/>
      <point x="201" y="588"/>
      <point x="217" y="607"/>
      <point x="245" y="607" type="curve" smooth="yes"/>
      <point x="272" y="607"/>
      <point x="292" y="588"/>
      <point x="292" y="552" type="curve" smooth="yes"/>
      <point x="292" y="509"/>
      <point x="279" y="480"/>
    </contour>
  </outline>
</glyph>
<glyph name="parenright" format="2">
  <advance width="313"/>
  <unicode hex="0029"/>
  <outline>
    <contour>
      <point x="103" y="-187" type="line"/>
      <point x="180" y="-86"/>
      <point x="244" y="100"/>
      <point x="244" y="299" type="curve"/>
      <point x="244" y="498"/>
      <point x="180" y="684"/>
      <point x="103" y="785" type="curve"/>
      <point x="3" y="725" type="line"/>
      <point x="60" y="625"/>
      <point x="111" y="481"/>
      <point x="111" y="299" type="curve"/>
      <point x="111" y="117"/>
      <point x="60" y="-27"/>
      <point x="3" y="-127" type="curve"/>
    </contour>
  </outline>
</glyph>
<glyph name="plus" format="2">
  <advance width="420"/>
  <unicode hex="002B"/>
  <outline>
    <contour>
      <point x="153" y="121" type="line"/>
      <point x="267" y="121" type="line"/>
      <point x="267" y="246" type="line"/>
      <point x="387" y="246" type="line"/>
      <point x="387" y="356" type="line"/>
      <point x="267" y="356" type="line"/>
      <point x="267" y="481" type="line"/>
      <point x="153" y="481" type="line"/>
      <point x="153" y="356" type="line"/>
      <point x="33" y="356" type="line"/>
      <point x="33" y="246" type="line"/>
      <point x="153" y="246" type="line"/>
    </contour>
  </outline>
</glyph>
<glyph name="one" format="2">
  <advance width="420"/>
  <unicode hex="0031"/>
  <outline>
    <contour>
      <point x="176" y="0" type="line"/>
      <point x="314" y="0" type="line"/>
      <point x="314" y="693" type="line"/>
      <point x="216" y="693" type="line"/>
      <point x="175" y="637"/>
      <point x="112" y="586"/>
      <point x="48" y="553" type="curve"/>
      <point x="98" y="451" type="line"/>
      <point x="120" y="459"/>
      <point x="150" y="475"/>
      <point x="176" y="492" type="curve"/>
    </contour>
  </outline>
</glyph>
<glyph name="three" format="2">
  <advance width="420"/>
  <unicode hex="0033"/>
  <outline>
    <contour>
      <point x="168" y="-14" type="curve"/>
      <point x="304" y="-14"/>
      <point x="389" y="69"/>
      <point x="389" y="201" type="curve"/>
      <point x="389" y="282"/>
      <point x="362" y="330"/>
      <point x="291" y="368" type="curve"/>
      <point x="351" y="400"/>
      <point x="380" y="457"/>
      <point x="380" y="534" type="curve" smooth="yes"/>
      <point x="380" y="641"/>
      <point x="304" y="707"/>
      <point x="192" y="707" type="curve"/>
      <point x="125" y="707"/>
      <point x="68" y="691"/>
      <point x="28" y="661" type="curve"/>
      <point x="77" y="564" type="line"/>
      <point x="106" y="581"/>
      <point x="129" y="588"/>
      <point x="155" y="588" type="curve"/>
      <point x="209" y="588"/>
      <point x="236" y="557"/>
      <point x="236" y="507" type="curve"/>
      <point x="236" y="454"/>
      <point x="202" y="420"/>
      <point x="148" y="420" type="curve" smooth="yes"/>
      <point x="96" y="420" type="line"/>
      <point x="96" y="307" type="line"/>
      <point x="145" y="307" type="line" smooth="yes"/>
      <point x="212" y="307"/>
      <point x="245" y="274"/>
      <point x="245" y="205" type="curve" smooth="yes"/>
      <point x="245" y="139"/>
      <point x="214" y="105"/>
      <point x="152" y="105" type="curve"/>
      <point x="116" y="105"/>
      <point x="79" y="115"/>
      <point x="54" y="132" type="curve"/>
      <point x="20" y="20" type="line"/>
      <point x="54" y="-2"/>
      <point x="106" y="-14"/>
    </contour>
  </outline>
</glyph>
<glyph name="four" format="2">
  <advance width="420"/>
  <unicode hex="0034"/>
  <outline>
    <contour>
      <point x="225" y="0" type="line"/>
      <point x="354" y="0" type="line"/>
      <point x="354" y="143" type="line"/>
      <point x="418" y="143" type="line"/>
      <point x="418" y="249" type="line"/>
      <point x="354" y="249" type="line"/>
      <point x="354" y="693" type="line"/>
      <point x="216" y="693" type="line"/>
      <point x="151" y="591"/>
      <point x="61" y="388"/>
      <point x="16" y="239" type="curve"/>
      <point x="16" y="143" type="line"/>
      <point x="225" y="143" type="line"/>
    </contour>
    <contour>
      <point x="129" y="249" type="line"/>
      <point x="154" y="333"/>
      <point x="186" y="426"/>
      <point x="225" y="510" type="curve"/>
      <point x="225" y="249" type="line"/>
    </contour>
  </outline>
</glyph>
<glyph name="eight" format="2">
  <advance width="420"/>
  <unicode hex="0038"/>
  <outline>
    <contour>
      <point x="207" y="-15" type="curve" smooth="yes"/>
      <point x="333" y="-15"/>
      <point x="395" y="69"/>
      <point x="395" y="177" type="curve"/>
      <point x="395" y="251"/>
      <point x="371" y="300"/>
      <point x="300" y="363" type="curve"/>
      <point x="354" y="422"/>
      <point x="378" y="478"/>
      <point x="378" y="540" type="curve" smooth="yes"/>
      <point x="378" y="639"/>
      <point x="307" y="707"/>
      <point x="203" y="707" type="curve" smooth="yes"/>
      <point x="107" y="707"/>
      <point x="33" y="630"/>
      <point x="33" y="529" type="curve" smooth="yes"/>
      <point x="33" y="465"/>
      <point x="53" y="416"/>
      <point x="111" y="357" type="curve"/>
      <point x="56" y="297"/>
      <point x="25" y="242"/>
      <point x="25" y="165" type="curve"/>
      <point x="25" y="70"/>
      <point x="89" y="-15"/>
    </contour>
    <contour>
      <point x="211" y="92" type="curve"/>
      <point x="177" y="92"/>
      <point x="165" y="127"/>
      <point x="165" y="176" type="curve"/>
      <point x="165" y="219"/>
      <point x="170" y="250"/>
      <point x="187" y="289" type="curve"/>
      <point x="238" y="243"/>
      <point x="255" y="210"/>
      <point x="255" y="168" type="curve" smooth="yes"/>
      <point x="255" y="114"/>
      <point x="237" y="92"/>
    </contour>
    <contour>
      <point x="227" y="424" type="curve"/>
      <point x="174" y="474"/>
      <point x="163" y="504"/>
      <point x="163" y="542" type="curve"/>
      <point x="163" y="580"/>
      <point x="176" y="600"/>
      <point x="204" y="600" type="curve" smooth="yes"/>
      <point x="233" y="600"/>
      <point x="248" y="576"/>
      <point x="248" y="534" type="curve" smooth="yes"/>
      <point x="248" y="487"/>
      <point x="243" y="454"/>
    </contour>
  </outline>
</glyph>
<glyph name="nine" format="2">
  <advance width="420"/>
  <unicode hex="0039"/>
  <outline>
    <contour>
      <point x="64" y="-2" type="line"/>
      <point x="277" y="-2"/>
      <point x="395" y="146"/>
      <point x="395" y="411" type="curve" smooth="yes"/>
      <point x="395" y="614"/>
      <point x="334" y="707"/>
      <point x="205" y="707" type="curve" smooth="yes"/>
      <point x="93" y="707"/>
      <point x="21" y="613"/>
      <point x="21" y="468" type="curve" smooth="yes"/>
      <point x="21" y="338"/>
      <point x="83" y="258"/>
      <point x="183" y="258" type="curve" smooth="yes"/>
      <point x="202" y="258"/>
      <point x="220" y="261"/>
      <point x="241" y="269" type="curve"/>
      <point x="221" y="158"/>
      <point x="163" y="110"/>
      <point x="50" y="109" type="curve"/>
    </contour>
    <contour>
      <point x="218" y="368" type="curve"/>
      <point x="175" y="368"/>
      <point x="161" y="394"/>
      <point x="161" y="472" type="curve" smooth="yes"/>
      <point x="161" y="556"/>
      <point x="174" y="588"/>
      <point x="207" y="588" type="curve"/>
      <point x="242" y="588"/>
      <point x="254" y="548"/>
      <point x="254" y="434" type="curve" smooth="yes"/>
      <point x="254" y="423"/>
      <point x="253" y="401"/>
      <point x="250" y="374" type="curve"/>
      <point x="241" y="370"/>
      <point x="231" y="368"/>
    </contour>
  </outline>
</glyph>
<glyph name="B" format="2">
  <advance width="544"/>
  <unicode hex="0042"/>
  <anchor x="272" y="0" name="bottom"/>
  <anchor x="272" y="347" name="center"/>
  <anchor x="272" y="693" name="top"/>
  <outline>
    <contour>
      <point x="239" y="-10" type="curve" smooth="yes"/>
      <point x="407" y="-10"/>
      <point x="505" y="66"/>
      <point x="505" y="198" type="curve"/>
      <point x="505" y="280"/>
      <point x="462" y="342"/>
      <point x="388" y="368" type="curve"/>
      <point x="451" y="396"/>
      <point x="483" y="445"/>
      <point x="483" y="514" type="curve" smooth="yes"/>
      <point x="483" y="635"/>
      <point x="397" y="703"/>
      <point x="242" y="703" type="curve" smooth="yes"/>
      <point x="195" y="703"/>
      <point x="144" y="697"/>
      <point x="78" y="683" type="curve"/>
      <point x="78" y="7" type="line"/>
      <point x="134" y="-4"/>
      <point x="191" y="-10"/>
    </contour>
    <contour>
      <point x="254" y="105" type="curve" smooth="yes"/>
      <point x="245" y="105"/>
      <point x="227" y="107"/>
      <point x="220" y="108" type="curve"/>
      <point x="220" y="303" type="line"/>
      <point x="262" y="303" type="line" smooth="yes"/>
      <point x="324" y="303"/>
      <point x="357" y="268"/>
      <point x="357" y="203" type="curve"/>
      <point x="357" y="138.657"/>
      <point x="321" y="105"/>
    </contour>
    <contour>
      <point x="220" y="415" type="line"/>
      <point x="220" y="586" type="line"/>
      <point x="232" y="587"/>
      <point x="241" y="588"/>
      <point x="254" y="588" type="curve"/>
      <point x="311" y="588"/>
      <point x="335" y="562"/>
      <point x="335" y="501" type="curve"/>
      <point x="335" y="442"/>
      <point x="305" y="415"/>
      <point x="242" y="415" type="curve" smooth="yes"/>
    </contour>
  </outline>
</glyph>
<glyph name="E" format="2">
  <advance width="491"/>
  <unicode hex="0045"/>
  <anchor x="246" y="0" name="bottom"/>
  <anchor x="433" y="10" name="ogonek"/>
  <anchor x="254" y="683" name="top"/>
  <anchor x="21" y="693" name="topleft"/>
  <outline>
    <contour>
      <point x="78" y="0" type="line"/>
      <point x="449" y="0" type="line"/>
      <point x="449" y="119" type="line"/>
      <point x="220" y="119" type="line"/>
      <point x="220" y="306" type="line"/>
      <point x="412" y="306" type="line"/>
      <point x="412" y="421" type="line"/>
      <point x="220" y="421" type="line"/>
      <point x="220" y="574" type="line"/>
      <point x="428" y="574" type="line"/>
      <point x="428" y="693" type="line"/>
      <point x="78" y="693" type="line"/>
    </contour>
  </outline>
</glyph>
<glyph name="H" format="2">
  <advance width="598"/>
  <unicode hex="0048"/>
  <anchor x="299" y="0" name="bottom"/>
  <anchor x="299" y="347" name="center"/>
  <anchor x="299" y="683" name="top"/>
  <anchor x="20" y="693" name="topleft"/>
  <outline>
    <contour>
      <point x="78" y="0" type="line"/>
      <point x="220" y="0" type="line"/>
      <point x="220" y="300" type="line"/>
      <point x="378" y="300" type="line"/>
      <point x="378" y="0" type="line"/>
      <point x="520" y="0" type="line"/>
      <point x="520" y="693" type="line"/>
      <point x="378" y="693" type="line"/>
      <point x="378" y="420" type="line"/>
      <point x="220" y="420" type="line"/>
      <point x="220" y="693" type="line"/>
      <point x="78" y="693" type="line"/>
    </contour>
  </outline>
</glyph>
<glyph name="R" format="2">
  <advance width="544"/>
  <unicode hex="0052"/>
  <anchor x="285" y="0" name="bottom"/>
  <anchor x="261" y="683" name="top"/>
  <outline>
    <contour>
      <point x="78" y="0" type="line"/>
      <point x="220" y="0" type="line"/>
      <point x="220" y="255" type="line"/>
      <point x="238" y="255" type="line"/>
      <point x="251" y="255"/>
      <point x="269" y="255"/>
      <point x="275" y="255" type="curve"/>
      <point x="314" y="192"/>
      <point x="354" y="97"/>
      <point x="384" y="0" type="curve"/>
      <point x="526" y="0" type="line"/>
      <point x="501" y="97"/>
      <point x="455" y="204"/>
      <point x="402" y="292" type="curve"/>
      <point x="461" y="343"/>
      <point x="490" y="405"/>
      <point x="490" y="479" type="curve" smooth="yes"/>
      <point x="490" y="627"/>
      <point x="404" y="703"/>
      <point x="242" y="703" type="curve"/>
      <point x="179" y="703"/>
      <point x="128.162" y="695.042"/>
      <point x="78" y="682" type="curve"/>
    </contour>
    <contour>
      <point x="220" y="369" type="line"/>
      <point x="220" y="577" type="line"/>
      <point x="227" y="580"/>
      <point x="238" y="581"/>
      <point x="248" y="581" type="curve"/>
      <point x="311" y="581"/>
      <point x="342" y="547"/>
      <point x="342" y="479" type="curve"/>
      <point x="342" y="406"/>
      <point x="309" y="369"/>
      <point x="244" y="369" type="curve"/>
    </contour>
  </outline>
</glyph>
<glyph name="S" format="2">
  <advance width="431"/>
  <unicode hex="0053"/>
  <anchor x="194" y="0" name="bottom"/>
  <anchor x="225" y="683" name="top"/>
  <outline>
    <contour>
      <point x="184" y="-14" type="curve" smooth="yes"/>
      <point x="321" y="-14"/>
      <point x="404" y="83"/>
      <point x="404" y="201" type="curve"/>
      <point x="404" y="268"/>
      <point x="374" y="338"/>
      <point x="283" y="399" type="curve" smooth="yes"/>
      <point x="192" y="460"/>
      <point x="172" y="479"/>
      <point x="172" y="521" type="curve" smooth="yes"/>
      <point x="172" y="563"/>
      <point x="198" y="587"/>
      <point x="245" y="587" type="curve" smooth="yes"/>
      <point x="281" y="587"/>
      <point x="319" y="575"/>
      <point x="346" y="556" type="curve"/>
      <point x="389" y="666" type="line"/>
      <point x="343" y="693"/>
      <point x="292" y="707"/>
      <point x="235" y="707" type="curve" smooth="yes"/>
      <point x="110" y="707"/>
      <point x="27" y="618"/>
      <point x="27" y="507" type="curve" smooth="yes"/>
      <point x="27" y="431"/>
      <point x="65" y="372"/>
      <point x="148" y="317" type="curve" smooth="yes"/>
      <point x="231" y="262"/>
      <point x="259" y="229"/>
      <point x="259" y="177" type="curve" smooth="yes"/>
      <point x="259" y="133"/>
      <point x="227" y="106"/>
      <point x="178" y="106" type="curve" smooth="yes"/>
      <point x="142" y="106"/>
      <point x="96" y="123"/>
      <point x="61" y="151" type="curve"/>
      <point x="18" y="34" type="line"/>
      <point x="56" y="6"/>
      <point x="124" y="-14"/>
    </contour>
  </outline>
</glyph>
<glyph name="T" format="2">
  <advance width="464"/>
  <unicode hex="0054"/>
  <anchor x="200" y="0" name="bottom"/>
  <anchor x="232" y="347" name="center"/>
  <anchor x="232" y="683" name="top"/>
  <outline>
    <contour>
      <point x="161" y="0" type="line"/>
      <point x="303" y="0" type="line"/>
      <point x="303" y="574" type="line"/>
      <point x="448" y="574" type="line"/>
      <point x="448" y="693" type="line"/>
      <point x="16" y="693" type="line"/>
      <point x="16" y="574" type="line"/>
      <point x="161" y="574" type="line"/>
    </contour>
  </outline>
</glyph>
<glyph name="U" format="2">
  <advance width="570"/>
  <unicode hex="0055"/>
  <anchor x="285" y="0" name="bottom"/>
  <anchor x="515" y="10" name="ogonek"/>
  <anchor x="285" y="683" name="top"/>
  <anchor x="554" y="693" name="topright"/>
  <outline>
    <contour>
      <point x="285" y="-14" type="curve" smooth="yes"/>
      <point x="429" y="-14"/>
      <point x="502" y="67"/>
      <point x="502" y="211" type="curve" smooth="yes"/>
      <point x="502" y="693" type="line"/>
      <point x="360" y="693" type="line"/>
      <point x="360" y="222" type="line" smooth="yes"/>
      <point x="360" y="143"/>
      <point x="338" y="110"/>
      <point x="285" y="110" type="curve" smooth="yes"/>
      <point x="232" y="110"/>
      <point x="210" y="143"/>
      <point x="210" y="222" type="curve" smooth="yes"/>
      <point x="210" y="693" type="line"/>
      <point x="68" y="693" type="line"/>
      <point x="68" y="211" type="line" smooth="yes"/>
      <point x="68" y="67"/>
      <point x="141" y="-14"/>
    </contour>
  </outline>
</glyph>
<glyph name="V" format="2">
  <advance width="512"/>
  <unicode hex="0056"/>
  <anchor x="258" y="0" name="bottom"/>
  <anchor x="258" y="693" name="top"/>
  <outline>
    <contour>
      <point x="185" y="0" type="curve"/>
      <point x="327" y="0" type="line"/>
      <point x="400" y="237"/>
      <point x="460" y="473"/>
      <point x="504" y="693" type="curve"/>
      <point x="361" y="693" type="line"/>
      <point x="341" y="546"/>
      <point x="299" y="334"/>
      <point x="257" y="159" type="curve"/>
      <point x="214" y="347"/>
      <point x="174" y="557"/>
      <point x="156" y="693" type="curve"/>
      <point x="8" y="693" type="line"/>
      <point x="52" y="473"/>
      <point x="112" y="237"/>
    </contour>
  </outline>
</glyph>
<glyph name="X" format="2">
  <advance width="490"/>
  <unicode hex="0058"/>
  <anchor x="245" y="0" name="bottom"/>
  <anchor x="245" y="693" name="top"/>
  <outline>
    <contour>
      <point x="6" y="0" type="curve"/>
      <point x="148" y="0" type="line"/>
      <point x="172" y="81"/>
      <point x="197" y="147"/>
      <point x="243" y="254" type="curve"/>
      <point x="289" y="147"/>
      <point x="314" y="81"/>
      <point x="338" y="0" type="curve"/>
      <point x="484" y="0" type="line"/>
      <point x="453" y="96"/>
      <point x="410" y="205"/>
      <point x="338" y="364" type="curve"/>
      <point x="473" y="693" type="line"/>
      <point x="326" y="693" type="line"/>
      <point x="248" y="451" type="line"/>
      <point x="168" y="693" type="line"/>
      <point x="17" y="693" type="line"/>
      <point x="152" y="358" type="line"/>
      <point x="80" y="201"/>
      <point x="36" y="94"/>
    </contour>
  </outline>
</glyph>
<glyph name="grave" format="2">
  <advance width="267"/>
  <unicode hex="0060"/>
  <outline>
    <contour>
      <point x="140" y="578" type="line"/>
      <point x="208" y="639" type="line"/>
      <point x="98" y="785" type="line"/>
      <point x="7" y="707" type="line"/>
    </contour>
  </outline>
</glyph>
<glyph name="c" format="2">
  <advance width="383"/>
  <unicode hex="0063"/>
  <anchor x="205" y="0" name="bottom"/>
  <anchor x="231" y="532" name="top"/>
  <outline>
    <contour>
      <point x="251" y="-14" type="curve" smooth="yes"/>
      <point x="300" y="-14"/>
      <point x="335" y="-8"/>
      <point x="363" y="5" type="curve"/>
      <point x="345" y="118" type="line"/>
      <point x="328" y="110"/>
      <point x="312" y="106"/>
      <point x="286" y="106" type="curve"/>
      <point x="230.439" y="106"/>
      <point x="187" y="145.245"/>
      <point x="187" y="266" type="curve" smooth="yes"/>
      <point x="187" y="387.761"/>
      <point x="219.372" y="426"/>
      <point x="274" y="426" type="curve"/>
      <point x="296" y="426"/>
      <point x="316" y="420"/>
      <point x="336" y="408" type="curve"/>
      <point x="363" y="522" type="line"/>
      <point x="330" y="538"/>
      <point x="295" y="546"/>
      <point x="253" y="546" type="curve" smooth="yes"/>
      <point x="122" y="546"/>
      <point x="43" y="441"/>
      <point x="43" y="266" type="curve" smooth="yes"/>
      <point x="43" y="84"/>
      <point x="118" y="-14"/>
    </contour>
  </outline>
</glyph>
<glyph name="d" format="2">
  <advance width="497"/>
  <unicode hex="0064"/>
  <anchor x="248" y="0" name="bottom"/>
  <anchor x="248" y="263" name="center"/>
  <anchor x="248" y="776" name="top"/>
  <anchor x="452" y="776" name="topright"/>
  <outline>
    <contour>
      <point x="258" y="-10" type="curve"/>
      <point x="318" y="-10"/>
      <point x="371" y="-3"/>
      <point x="428" y="11" type="curve"/>
      <point x="428" y="776" type="line"/>
      <point x="290" y="754" type="line"/>
      <point x="290" y="530" type="line"/>
      <point x="273" y="538"/>
      <point x="250" y="542"/>
      <point x="229" y="542" type="curve"/>
      <point x="104" y="542"/>
      <point x="43" y="448"/>
      <point x="43" y="257" type="curve" smooth="yes"/>
      <point x="43" y="84"/>
      <point x="118" y="-10"/>
    </contour>
    <contour>
      <point x="261" y="107" type="curve"/>
      <point x="209" y="107"/>
      <point x="187" y="133"/>
      <point x="187" y="257" type="curve" smooth="yes"/>
      <point x="187" y="392"/>
      <point x="208" y="425"/>
      <point x="255" y="425" type="curve"/>
      <point x="268" y="425"/>
      <point x="281" y="423"/>
      <point x="290" y="418" type="curve"/>
      <point x="290" y="110" type="line"/>
      <point x="281" y="108"/>
      <point x="272" y="107"/>
    </contour>
  </outline>
</glyph>
<glyph name="h" format="2">
  <advance width="505"/>
  <unicode hex="0068"/>
  <anchor x="252" y="0" name="bottom"/>
  <anchor x="252" y="388" name="center"/>
  <anchor x="252" y="776" name="top"/>
  <outline>
    <contour>
      <point x="69" y="0" type="line"/>
      <point x="207" y="0" type="line"/>
      <point x="207" y="421" type="line"/>
      <point x="216" y="424"/>
      <point x="225" y="425"/>
      <point x="234" y="425" type="curve" smooth="yes"/>
      <point x="286" y="425"/>
      <point x="304" y="394"/>
      <point x="304" y="307" type="curve" smooth="yes"/>
      <point x="304" y="0" type="line"/>
      <point x="442" y="0" type="line"/>
      <point x="442" y="313" type="line" smooth="yes"/>
      <point x="442" y="454"/>
      <point x="371" y="542"/>
      <point x="258" y="542" type="curve"/>
      <point x="239" y="542"/>
      <point x="222" y="540"/>
      <point x="207" y="535" type="curve"/>
      <point x="207" y="776" type="line"/>
      <point x="69" y="754" type="line"/>
    </contour>
  </outline>
</glyph>
<glyph name="k" format="2">
  <advance width="458"/>
  <unicode hex="006B"/>
  <anchor x="234" y="0" name="bottom"/>
  <anchor x="242" y="776" name="top"/>
  <outline>
    <contour>
      <point x="69" y="0" type="line"/>
      <point x="207" y="0" type="line"/>
      <point x="207" y="234" type="line"/>
      <point x="250" y="177"/>
      <point x="287.09" y="83.656"/>
      <point x="309" y="0" type="curve"/>
      <point x="455" y="0" type="line"/>
      <point x="425" y="104"/>
      <point x="368" y="217"/>
      <point x="315" y="282" type="curve"/>
      <point x="358" y="352"/>
      <point x="413.363" y="451.794"/>
      <point x="450" y="532" type="curve"/>
      <point x="304" y="532" type="line"/>
      <point x="281.203" y="473.521"/>
      <point x="238" y="376"/>
      <point x="207" y="317" type="curve"/>
      <point x="207" y="776" type="line"/>
      <point x="69" y="754" type="line"/>
    </contour>
  </outline>
</glyph>
<glyph name="o" format="2">
  <advance width="486"/>
  <unicode hex="006F"/>
  <anchor x="243" y="0" name="bottom"/>
  <anchor x="243" y="263" name="center"/>
  <anchor x="433" y="10" name="ogonek"/>
  <anchor x="243" y="532" name="top"/>
  <anchor x="460" y="527" name="topright"/>
  <outline>
    <contour>
      <point x="243" y="-14" type="curve" smooth="yes"/>
      <point x="370" y="-14"/>
      <point x="443" y="88"/>
      <point x="443" y="266" type="curve" smooth="yes"/>
      <point x="443" y="444"/>
      <point x="370" y="546"/>
      <point x="243" y="546" type="curve" smooth="yes"/>
      <point x="116" y="546"/>
      <point x="43" y="444"/>
      <point x="43" y="266" type="curve" smooth="yes"/>
      <point x="43" y="88"/>
      <point x="116" y="-14"/>
    </contour>
    <contour>
      <point x="243" y="105" type="curve" smooth="yes"/>
      <point x="203" y="105"/>
      <point x="187" y="150"/>
      <point x="187" y="266" type="curve" smooth="yes"/>
      <point x="187" y="382"/>
      <point x="203" y="427"/>
      <point x="243" y="427" type="curve" smooth="yes"/>
      <point x="283" y="427"/>
      <point x="299" y="382"/>
      <point x="299" y="266" type="curve" smooth="yes"/>
      <point x="299" y="149"/>
      <point x="284" y="105"/>
    </contour>
  </outline>
</glyph>
<glyph name="p" format="2">
  <advance width="497"/>
  <unicode hex="0070"/>
  <anchor x="256" y="0" name="bottom"/>
  <anchor x="256" y="527" name="top"/>
  <outline>
    <contour>
      <point x="69" y="-185" type="line"/>
      <point x="207" y="-185" type="line"/>
      <point x="207" y="2" type="line"/>
      <point x="224" y="-6"/>
      <point x="247" y="-10"/>
      <point x="268" y="-10" type="curve"/>
      <point x="393" y="-10"/>
      <point x="454" y="84"/>
      <point x="454" y="275" type="curve" smooth="yes"/>
      <point x="454" y="448"/>
      <point x="379" y="542"/>
      <point x="239" y="542" type="curve"/>
      <point x="179" y="542"/>
      <point x="126" y="535"/>
      <point x="69" y="521" type="curve"/>
    </contour>
    <contour>
      <point x="242" y="107" type="curve"/>
      <point x="229" y="107"/>
      <point x="216" y="109"/>
      <point x="207" y="114" type="curve"/>
      <point x="207" y="422" type="line"/>
      <point x="216" y="424"/>
      <point x="225" y="425"/>
      <point x="236" y="425" type="curve"/>
      <point x="288" y="425"/>
      <point x="310" y="399"/>
      <point x="310" y="275" type="curve" smooth="yes"/>
      <point x="310" y="140"/>
      <point x="289" y="107"/>
    </contour>
  </outline>
</glyph>
<glyph name="r" format="2">
  <advance width="363"/>
  <unicode hex="0072"/>
  <anchor x="136" y="0" name="bottom"/>
  <anchor x="212" y="532" name="top"/>
  <outline>
    <contour>
      <point x="69" y="0" type="line"/>
      <point x="207" y="0" type="line"/>
      <point x="207" y="417" type="line"/>
      <point x="223" y="423"/>
      <point x="242" y="425"/>
      <point x="267" y="425" type="curve"/>
      <point x="289" y="425"/>
      <point x="311" y="421"/>
      <point x="331" y="414" type="curve"/>
      <point x="356" y="527" type="line"/>
      <point x="334" y="536"/>
      <point x="293" y="542"/>
      <point x="250" y="542" type="curve"/>
      <point x="184" y="542"/>
      <point x="109" y="527"/>
      <point x="69" y="507" type="curve"/>
    </contour>
  </outline>
</glyph>
<glyph name="v" format="2">
  <advance width="432"/>
  <unicode hex="0076"/>
  <anchor x="218" y="0" name="bottom"/>
  <anchor x="218" y="527" name="top"/>
  <outline>
    <contour>
      <point x="146" y="0" type="curve"/>
      <point x="286" y="0" type="line"/>
      <point x="329" y="140"/>
      <point x="381" y="324"/>
      <point x="422" y="532" type="curve"/>
      <point x="281" y="532" type="line"/>
      <point x="269" y="430"/>
      <point x="242" y="278"/>
      <point x="218" y="172" type="curve"/>
      <point x="195" y="278"/>
      <point x="168" y="431"/>
      <point x="155" y="532" type="curve"/>
      <point x="10" y="532" type="line"/>
      <point x="51" y="324"/>
      <point x="103" y="140"/>
    </contour>
  </outline>
</glyph>
<glyph name="braceleft" format="2">
  <advance width="292"/>
  <unicode hex="007B"/>
  <outline>
    <contour>
      <point x="285" y="-184" type="curve" smooth="yes"/>
      <point x="285" y="-184" type="line"/>
      <point x="285" y="-77" type="line"/>
      <point x="285" y="-77" type="line"/>
      <point x="239" y="-77"/>
      <point x="220" y="-53"/>
      <point x="220" y="-17" type="curve" smooth="yes"/>
      <point x="220" y="149" type="line" smooth="yes"/>
      <point x="220" y="222"/>
      <point x="198" y="269"/>
      <point x="150" y="299" type="curve"/>
      <point x="198" y="329"/>
      <point x="220" y="377"/>
      <point x="220" y="450" type="curve" smooth="yes"/>
      <point x="220" y="616" type="line" smooth="yes"/>
      <point x="220" y="654"/>
      <point x="237" y="676"/>
      <point x="285" y="676" type="curve" smooth="yes"/>
      <point x="285" y="676" type="line"/>
      <point x="285" y="783" type="line"/>
      <point x="285" y="783" type="line"/>
      <point x="152" y="783"/>
      <point x="94" y="732"/>
      <point x="94" y="618" type="curve" smooth="yes"/>
      <point x="94" y="470" type="line"/>
      <point x="94" y="394"/>
      <point x="75" y="357"/>
      <point x="33" y="353" type="curve"/>
      <point x="33" y="246" type="line"/>
      <point x="74" y="242"/>
      <point x="94" y="204"/>
      <point x="94" y="128" type="curve" smooth="yes"/>
      <point x="94" y="-19" type="line" smooth="yes"/>
      <point x="94" y="-133"/>
      <point x="152" y="-184"/>
    </contour>
  </outline>
</glyph>
<glyph name="cent" format="2">
  <advance width="434"/>
  <unicode hex="00A2"/>
  <outline>
    <contour>
      <point x="184" y="-101" type="line"/>
      <point x="306" y="-101" type="line"/>
      <point x="306" y="33" type="line"/>
      <point x="333" y="36"/>
      <point x="355" y="41"/>
      <point x="374" y="50" type="curve"/>
      <point x="356" y="163" type="line"/>
      <point x="339" y="155"/>
      <point x="323" y="151"/>
      <point x="297" y="151" type="curve"/>
      <point x="241" y="151"/>
      <point x="198" y="188"/>
      <point x="198" y="301" type="curve" smooth="yes"/>
      <point x="198" y="415"/>
      <point x="230" y="451"/>
      <point x="285" y="451" type="curve"/>
      <point x="307" y="451"/>
      <point x="327" y="445"/>
      <point x="347" y="433" type="curve"/>
      <point x="374" y="547" type="line"/>
      <point x="353" y="557"/>
      <point x="330" y="564"/>
      <point x="306" y="568" type="curve"/>
      <point x="306" y="685" type="line"/>
      <point x="184" y="685" type="line"/>
      <point x="184" y="556" type="line"/>
      <point x="102" y="522"/>
      <point x="54" y="432"/>
      <point x="54" y="301" type="curve" smooth="yes"/>
      <point x="54" y="164"/>
      <point x="100" y="76"/>
      <point x="184" y="44" type="curve"/>
    </contour>
  </outline>
</glyph>
<glyph name="sterling" format="2">
  <advance width="420"/>
  <unicode hex="00A3"/>
  <outline>
    <contour>
      <point x="56" y="0" type="curve"/>
      <point x="405" y="0" type="line"/>
      <point x="405" y="114" type="line"/>
      <point x="211" y="114" type="line"/>
      <point x="219" y="161"/>
      <point x="224" y="227"/>
      <point x="224" y="274" type="curve" smooth="yes"/>
      <point x="224" y="282" type="line"/>
      <point x="342" y="282" type="line"/>
      <point x="342" y="392" type="line"/>
      <point x="224" y="392" type="line"/>
      <point x="224" y="505" type="line" smooth="yes"/>
      <point x="224" y="558"/>
      <point x="254" y="592"/>
      <point x="294" y="592" type="curve"/>
      <point x="325" y="592"/>
      <point x="347" y="586"/>
      <point x="367" y="572" type="curve"/>
      <point x="398" y="679" type="line"/>
      <point x="366" y="696"/>
      <point x="327" y="706"/>
      <point x="285" y="706" type="curve" smooth="yes"/>
      <point x="170" y="706"/>
      <point x="86" y="634"/>
      <point x="86" y="504" type="curve" smooth="yes"/>
      <point x="86" y="392" type="line"/>
      <point x="20" y="392" type="line"/>
      <point x="20" y="282" type="line"/>
      <point x="86" y="282" type="line"/>
      <point x="86" y="270" type="line" smooth="yes"/>
      <point x="86" y="187"/>
      <point x="71" y="68"/>
    </contour>
  </outline>
</glyph>
<glyph name="registered" format="2">
  <advance width="478"/>
  <unicode hex="00AE"/>
  <outline>
    <contour>
      <point x="240" y="255" type="curve" smooth="yes"/>
      <point x="369" y="255"/>
      <point x="458" y="356"/>
      <point x="458" y="502" type="curve"/>
      <point x="458" y="648"/>
      <point x="369" y="748"/>
      <point x="240" y="748" type="curve"/>
      <point x="110" y="748"/>
      <point x="20" y="648"/>
      <point x="20" y="502" type="curve" smooth="yes"/>
      <point x="20" y="356"/>
      <point x="110" y="255"/>
    </contour>
    <contour>
      <point x="240" y="324" type="curve" smooth="yes"/>
      <point x="153" y="324"/>
      <point x="94" y="396"/>
      <point x="94" y="502" type="curve"/>
      <point x="94" y="607"/>
      <point x="153" y="679"/>
      <point x="240" y="679" type="curve" smooth="yes"/>
      <point x="326" y="679"/>
      <point x="385" y="607"/>
      <point x="385" y="502" type="curve"/>
      <point x="385" y="396"/>
      <point x="326" y="324"/>
    </contour>
    <contour>
      <point x="159" y="381" type="line"/>
      <point x="231" y="381" type="line"/>
      <point x="231" y="461" type="line"/>
      <point x="238" y="461" type="line"/>
      <point x="238" y="461"/>
      <point x="237" y="461"/>
      <point x="237" y="461" type="curve"/>
      <point x="248" y="435"/>
      <point x="257" y="408"/>
      <point x="265" y="381" type="curve"/>
      <point x="339" y="381" type="line"/>
      <point x="329" y="417"/>
      <point x="315" y="450"/>
      <point x="299" y="482" type="curve"/>
      <point x="321" y="501"/>
      <point x="329" y="520"/>
      <point x="329" y="547" type="curve" smooth="yes"/>
      <point x="329" y="603"/>
      <point x="293" y="631"/>
      <point x="234" y="631" type="curve" smooth="yes"/>
      <point x="212" y="631"/>
      <point x="185" y="627"/>
      <point x="159" y="620" type="curve"/>
    </contour>
    <contour>
      <point x="231" y="518" type="line"/>
      <point x="231" y="567" type="line"/>
      <point x="233" y="568"/>
      <point x="236" y="569"/>
      <point x="240" y="569" type="curve" smooth="yes"/>
      <point x="250" y="569"/>
      <point x="257" y="562"/>
      <point x="257" y="548" type="curve" smooth="yes"/>
      <point x="257" y="527"/>
      <point x="243" y="518"/>
      <point x="235" y="518" type="curve" smooth="yes"/>
    </contour>
  </outline>
</glyph>
<glyph name="degree" format="2">
  <advance width="307"/>
  <unicode hex="00B0"/>
  <outline>
    <contour>
      <point x="153" y="496" type="curve" smooth="yes"/>
      <point x="214" y="496"/>
      <point x="292" y="543"/>
      <point x="292" y="630" type="curve" smooth="yes"/>
      <point x="292" y="723"/>
      <point x="216" y="764"/>
      <point x="153" y="764" type="curve" smooth="yes"/>
      <point x="93" y="764"/>
      <point x="15" y="718"/>
      <point x="15" y="630" type="curve" smooth="yes"/>
      <point x="15" y="538"/>
      <point x="91" y="496"/>
    </contour>
    <contour>
      <point x="153" y="583" type="curve" smooth="yes"/>
      <point x="131" y="583"/>
      <point x="107" y="597"/>
      <point x="107" y="630" type="curve" smooth="yes"/>
      <point x="107" y="663"/>
      <point x="131" y="678"/>
      <point x="153" y="678" type="curve" smooth="yes"/>
      <point x="175" y="678"/>
      <point x="200" y="663"/>
      <point x="200" y="630" type="curve" smooth="yes"/>
      <point x="200" y="597"/>
      <point x="175" y="583"/>
    </contour>
  </outline>
</glyph>
<glyph name="micro" format="2">
  <advance width="511"/>
  <unicode hex="00B5"/>
  <outline>
    <contour>
      <point x="69" y="-185" type="line"/>
      <point x="204" y="-185" type="line"/>
      <point x="204" y="-136" type="line" smooth="yes"/>
      <point x="204" y="-82"/>
      <point x="198" y="-29"/>
      <point x="191" y="10" type="curve"/>
      <point x="211" y="-3"/>
      <point x="249" y="-10"/>
      <point x="289" y="-10" type="curve"/>
      <point x="336" y="-10"/>
      <point x="390" y="-2"/>
      <point x="442" y="11" type="curve"/>
      <point x="442" y="532" type="line"/>
      <point x="304" y="532" type="line"/>
      <point x="304" y="110" type="line"/>
      <point x="294" y="108"/>
      <point x="285" y="107"/>
      <point x="277" y="107" type="curve" smooth="yes"/>
      <point x="225" y="107"/>
      <point x="207" y="138"/>
      <point x="207" y="225" type="curve" smooth="yes"/>
      <point x="207" y="532" type="line"/>
      <point x="69" y="532" type="line"/>
    </contour>
  </outline>
</glyph>
<glyph name="cedilla" format="2">
  <advance width="286"/>
  <unicode hex="00B8"/>
  <outline>
    <contour>
      <point x="103" y="-210" type="curve" smooth="yes"/>
      <point x="180" y="-210"/>
      <point x="231" y="-173"/>
      <point x="231" y="-116" type="curve" smooth="yes"/>
      <point x="231" y="-79"/>
      <point x="217" y="-58"/>
      <point x="181" y="-42" type="curve"/>
      <point x="189" y="-22"/>
      <point x="202" y="6"/>
      <point x="210" y="20" type="curve"/>
      <point x="118" y="20" type="line"/>
      <point x="107" y="4"/>
      <point x="87" y="-42"/>
      <point x="78" y="-71" type="curve"/>
      <point x="112" y="-75"/>
      <point x="129" y="-85"/>
      <point x="129" y="-101" type="curve" smooth="yes"/>
      <point x="129" y="-116"/>
      <point x="113" y="-126"/>
      <point x="88" y="-126" type="curve" smooth="yes"/>
      <point x="73" y="-126"/>
      <point x="55" y="-123"/>
      <point x="41" y="-117" type="curve"/>
      <point x="25" y="-198" type="line"/>
      <point x="52" y="-206"/>
      <point x="79" y="-210"/>
    </contour>
  </outline>
</glyph>
<glyph name="ordmasculine" format="2">
  <advance width="376"/>
  <unicode hex="00BA"/>
  <outline>
    <contour>
      <point x="188" y="317" type="curve" smooth="yes"/>
      <point x="281" y="317"/>
      <point x="346" y="381"/>
      <point x="346" y="513" type="curve" smooth="yes"/>
      <point x="346" y="650"/>
      <point x="281" y="712"/>
      <point x="188" y="712" type="curve" smooth="yes"/>
      <point x="95" y="712"/>
      <point x="30" y="650"/>
      <point x="30" y="513" type="curve" smooth="yes"/>
      <point x="30" y="380"/>
      <point x="95" y="317"/>
    </contour>
    <contour>
      <point x="188" y="409" type="curve" smooth="yes"/>
      <point x="151" y="409"/>
      <point x="132" y="442"/>
      <point x="132" y="513" type="curve" smooth="yes"/>
      <point x="132" y="589"/>
      <point x="152" y="620"/>
      <point x="188" y="620" type="curve" smooth="yes"/>
      <point x="225" y="620"/>
      <point x="243" y="589"/>
      <point x="243" y="513" type="curve" smooth="yes"/>
      <point x="243" y="442"/>
      <point x="225" y="409"/>
    </contour>
  </outline>
</glyph>
<glyph name="ccedilla" format="2">
  <advance width="383"/>
  <unicode hex="00E7"/>
  <outline>
    <contour>
      <point x="191" y="-210" type="curve" smooth="yes"/>
      <point x="268" y="-210"/>
      <point x="319" y="-173"/>
      <point x="319" y="-116" type="curve" smooth="yes"/>
      <point x="319" y="-79"/>
      <point x="305" y="-58"/>
      <point x="269" y="-42" type="curve"/>
      <point x="272" y="-33"/>
      <point x="277" y="-23"/>
      <point x="281" y="-13" type="curve"/>
      <point x="315" y="-11"/>
      <point x="341" y="-5"/>
      <point x="363" y="5" type="curve"/>
      <point x="345" y="118" type="line"/>
      <point x="328" y="110"/>
      <point x="312" y="106"/>
      <point x="286" y="106" type="curve"/>
      <point x="230" y="106"/>
      <point x="187" y="145"/>
      <point x="187" y="266" type="curve" smooth="yes"/>
      <point x="187" y="388"/>
      <point x="219" y="426"/>
      <point x="274" y="426" type="curve"/>
      <point x="296" y="426"/>
      <point x="316" y="420"/>
      <point x="336" y="408" type="curve"/>
      <point x="363" y="522" type="line"/>
      <point x="330" y="538"/>
      <point x="295" y="546"/>
      <point x="253" y="546" type="curve" smooth="yes"/>
      <point x="122" y="546"/>
      <point x="43" y="441"/>
      <point x="43" y="266" type="curve" smooth="yes"/>
      <point x="43" y="113"/>
      <point x="96" y="20"/>
      <point x="192" y="-7" type="curve"/>
      <point x="182" y="-27"/>
      <point x="172" y="-52"/>
      <point x="166" y="-71" type="curve"/>
      <point x="200" y="-75"/>
      <point x="217" y="-85"/>
      <point x="217" y="-101" type="curve" smooth="yes"/>
      <point x="217" y="-116"/>
      <point x="201" y="-126"/>
      <point x="176" y="-126" type="curve" smooth="yes"/>
      <point x="161" y="-126"/>
      <point x="143" y="-123"/>
      <point x="129" y="-117" type="curve"/>
      <point x="113" y="-198" type="line"/>
      <point x="140" y="-206"/>
      <point x="167" y="-210"/>
    </contour>
  </outline>
</glyph>
<glyph name="divide" format="2">
  <advance width="420"/>
  <unicode hex="00F7"/>
  <outline>
    <contour>
      <point x="33" y="246" type="line"/>
      <point x="387" y="246" type="line"/>
      <point x="387" y="356" type="line"/>
      <point x="33" y="356" type="line"/>
    </contour>
    <contour>
      <point x="209" y="62" type="curve" smooth="yes"/>
      <point x="251" y="62"/>
      <point x="286" y="92"/>
      <point x="286" y="136" type="curve" smooth="yes"/>
      <point x="286" y="181"/>
      <point x="251" y="211"/>
      <point x="209" y="211" type="curve" smooth="yes"/>
      <point x="167" y="211"/>
      <point x="134" y="181"/>
      <point x="134" y="136" type="curve" smooth="yes"/>
      <point x="134" y="92"/>
      <point x="167" y="62"/>
    </contour>
    <contour>
      <point x="209" y="391" type="curve" smooth="yes"/>
      <point x="251" y="391"/>
      <point x="286" y="421"/>
      <point x="286" y="465" type="curve" smooth="yes"/>
      <point x="286" y="510"/>
      <point x="251" y="540"/>
      <point x="209" y="540" type="curve" smooth="yes"/>
      <point x="167" y="540"/>
      <point x="134" y="510"/>
      <point x="134" y="465" type="curve" smooth="yes"/>
      <point x="134" y="421"/>
      <point x="167" y="391"/>
    </contour>
  </outline>
</glyph>
<glyph name="Aogonek" format="2">
  <advance width="518"/>
  <unicode hex="0104"/>
  <outline>
    <contour>
      <point x="445" y="-208" type="curve" smooth="yes"/>
      <point x="474" y="-208"/>
      <point x="507" y="-204"/>
      <point x="534" y="-193" type="curve"/>
      <point x="525" y="-100" type="line"/>
      <point x="506" y="-107"/>
      <point x="493" y="-108"/>
      <point x="481" y="-108" type="curve" smooth="yes"/>
      <point x="457" y="-108"/>
      <point x="445" y="-97"/>
      <point x="445" y="-75" type="curve"/>
      <point x="445" y="-55"/>
      <point x="459" y="-33"/>
      <point x="510" y="0" type="curve"/>
      <point x="466" y="220"/>
      <point x="403" y="456"/>
      <point x="330" y="693" type="curve"/>
      <point x="188" y="693" type="line"/>
      <point x="115" y="456"/>
      <point x="52" y="220"/>
      <point x="8" y="0" type="curve"/>
      <point x="151" y="0" type="line"/>
      <point x="157" y="44"/>
      <point x="165" y="93"/>
      <point x="175" y="146" type="curve"/>
      <point x="339" y="146" type="line"/>
      <point x="348" y="92"/>
      <point x="356" y="42"/>
      <point x="362" y="0" type="curve"/>
      <point x="398" y="0" type="line"/>
      <point x="355" y="-34"/>
      <point x="329" y="-69"/>
      <point x="329" y="-113" type="curve" smooth="yes"/>
      <point x="329" y="-172"/>
      <point x="375" y="-208"/>
    </contour>
    <contour>
      <point x="197" y="261" type="line"/>
      <point x="215" y="354"/>
      <point x="237" y="451"/>
      <point x="258" y="539" type="curve"/>
      <point x="279" y="448"/>
      <point x="299" y="352"/>
      <point x="317" y="261" type="curve"/>
    </contour>
  </outline>
</glyph>
<glyph name="Hbar" format="2">
  <advance width="608"/>
  <unicode hex="0126"/>
  <outline>
    <contour>
      <point x="83" y="0" type="line"/>
      <point x="225" y="0" type="line"/>
      <point x="225" y="290" type="line"/>
      <point x="383" y="290" type="line"/>
      <point x="383" y="0" type="line"/>
      <point x="525" y="0" type="line"/>
      <point x="525" y="508" type="line"/>
      <point x="588" y="508" type="line"/>
      <point x="588" y="607" type="line"/>
      <point x="525" y="607" type="line"/>
      <point x="525" y="693" type="line"/>
      <point x="383" y="693" type="line"/>
      <point x="383" y="607" type="line"/>
      <point x="225" y="607" type="line"/>
      <point x="225" y="693" type="line"/>
      <point x="83" y="693" type="line"/>
      <point x="83" y="607" type="line"/>
      <point x="20" y="607" type="line"/>
      <point x="20" y="508" type="line"/>
      <point x="83" y="508" type="line"/>
    </contour>
    <contour>
      <point x="225" y="410" type="line"/>
      <point x="225" y="508" type="line"/>
      <point x="383" y="508" type="line"/>
      <point x="383" y="410" type="line"/>
    </contour>
  </outline>
</glyph>
<glyph name="hbar" format="2">
  <advance width="510"/>
  <unicode hex="0127"/>
  <outline>
    <contour>
      <point x="74" y="0" type="line"/>
      <point x="212" y="0" type="line"/>
      <point x="212" y="421" type="line"/>
      <point x="221" y="424"/>
      <point x="230" y="425"/>
      <point x="239" y="425" type="curve" smooth="yes"/>
      <point x="291" y="425"/>
      <point x="309" y="394"/>
      <point x="309" y="307" type="curve" smooth="yes"/>
      <point x="309" y="0" type="line"/>
      <point x="447" y="0" type="line"/>
      <point x="447" y="313" type="line" smooth="yes"/>
      <point x="447" y="454"/>
      <point x="376" y="542"/>
      <point x="263" y="542" type="curve"/>
      <point x="244" y="542"/>
      <point x="227" y="540"/>
      <point x="212" y="535" type="curve"/>
      <point x="212" y="598" type="line"/>
      <point x="322" y="598" type="line"/>
      <point x="322" y="688" type="line"/>
      <point x="212" y="688" type="line"/>
      <point x="212" y="776" type="line"/>
      <point x="74" y="754" type="line"/>
      <point x="74" y="688" type="line"/>
      <point x="26" y="688" type="line"/>
      <point x="26" y="598" type="line"/>
      <point x="74" y="598" type="line"/>
    </contour>
  </outline>
</glyph>
<glyph name="Iogonek" format="2">
  <advance width="298"/>
  <unicode hex="012E"/>
  <outline>
    <contour>
      <point x="154" y="-208" type="curve" smooth="yes"/>
      <point x="183" y="-208"/>
      <point x="216" y="-204"/>
      <point x="243" y="-193" type="curve"/>
      <point x="234" y="-100" type="line"/>
      <point x="215" y="-107"/>
      <point x="202" y="-108"/>
      <point x="190" y="-108" type="curve" smooth="yes"/>
      <point x="166" y="-108"/>
      <point x="154" y="-97"/>
      <point x="154" y="-75" type="curve"/>
      <point x="154" y="-55"/>
      <point x="168" y="-33"/>
      <point x="220" y="0" type="curve"/>
      <point x="220" y="693" type="line"/>
      <point x="78" y="693" type="line"/>
      <point x="78" y="0" type="line"/>
      <point x="107" y="0" type="line"/>
      <point x="64" y="-34"/>
      <point x="38" y="-69"/>
      <point x="38" y="-113" type="curve" smooth="yes"/>
      <point x="38" y="-172"/>
      <point x="84" y="-208"/>
    </contour>
  </outline>
</glyph>
<glyph name="Ereversed" format="2">
  <advance width="491"/>
  <unicode hex="018E"/>
  <anchor x="246" y="0" name="bottom"/>
  <anchor x="246" y="693" name="top"/>
  <outline>
    <contour>
      <point x="42" y="0" type="line"/>
      <point x="413" y="0" type="line"/>
      <point x="413" y="693" type="line"/>
      <point x="63" y="693" type="line"/>
      <point x="63" y="574" type="line"/>
      <point x="271" y="574" type="line"/>
      <point x="271" y="421" type="line"/>
      <point x="79" y="421" type="line"/>
      <point x="79" y="306" type="line"/>
      <point x="271" y="306" type="line"/>
      <point x="271" y="119" type="line"/>
      <point x="42" y="119" type="line"/>
    </contour>
  </outline>
</glyph>
<glyph name="Fhook" format="2">
  <advance width="451"/>
  <unicode hex="0191"/>
  <outline>
    <contour>
      <point x="55" y="-188" type="curve" smooth="yes"/>
      <point x="169" y="-188"/>
      <point x="220" y="-105"/>
      <point x="220" y="-2" type="curve"/>
      <point x="220" y="300" type="line"/>
      <point x="407" y="300" type="line"/>
      <point x="407" y="415" type="line"/>
      <point x="220" y="415" type="line"/>
      <point x="220" y="574" type="line"/>
      <point x="423" y="574" type="line"/>
      <point x="423" y="693" type="line"/>
      <point x="78" y="693" type="line"/>
      <point x="78" y="-18" type="line"/>
      <point x="78" y="-54"/>
      <point x="68" y="-68"/>
      <point x="38" y="-68" type="curve"/>
      <point x="27" y="-68"/>
      <point x="14" y="-66"/>
      <point x="4" y="-63" type="curve"/>
      <point x="-15" y="-176" type="line"/>
      <point x="7" y="-185"/>
      <point x="31" y="-188"/>
    </contour>
  </outline>
</glyph>
<glyph name="Iota-latin" format="2">
  <advance width="363"/>
  <unicode hex="0196"/>
  <anchor x="182" y="0" name="bottom"/>
  <anchor x="182" y="693" name="top"/>
  <outline>
    <contour>
      <point x="248" y="-14" type="curve"/>
      <point x="286" y="-14"/>
      <point x="320" y="-8"/>
      <point x="346" y="4" type="curve"/>
      <point x="327" y="111" type="line"/>
      <point x="313" y="106"/>
      <point x="297" y="103"/>
      <point x="279" y="103" type="curve" smooth="yes"/>
      <point x="238" y="103"/>
      <point x="220" y="128"/>
      <point x="220" y="185" type="curve" smooth="yes"/>
      <point x="220" y="693" type="line"/>
      <point x="78" y="693" type="line"/>
      <point x="78" y="181" type="line"/>
      <point x="78" y="48"/>
      <point x="132" y="-14"/>
    </contour>
  </outline>
</glyph>
<glyph name="lbar" format="2">
  <advance width="292"/>
  <unicode hex="019A"/>
  <outline>
    <contour>
      <point x="256" y="-14" type="curve"/>
      <point x="272" y="98" type="line"/>
      <point x="223" y="101"/>
      <point x="207" y="117"/>
      <point x="207" y="160" type="curve" smooth="yes"/>
      <point x="207" y="357" type="line"/>
      <point x="279" y="357" type="line"/>
      <point x="279" y="445" type="line"/>
      <point x="207" y="445" type="line"/>
      <point x="207" y="776" type="line"/>
      <point x="69" y="754" type="line"/>
      <point x="69" y="445" type="line"/>
      <point x="9" y="445" type="line"/>
      <point x="9" y="357" type="line"/>
      <point x="69" y="357" type="line"/>
      <point x="69" y="158" type="line" smooth="yes"/>
      <point x="69" y="44"/>
      <point x="130" y="-10"/>
    </contour>
  </outline>
</glyph>
<glyph name="lambdastroke" format="2">
  <advance width="437"/>
  <unicode hex="019B"/>
  <anchor x="219" y="0" name="bottom"/>
  <anchor x="219" y="776" name="top"/>
  <outline>
    <contour>
      <point x="10" y="0" type="curve"/>
      <point x="149" y="0" type="line"/>
      <point x="167" y="88"/>
      <point x="194" y="220"/>
      <point x="224" y="336" type="curve"/>
      <point x="251" y="220"/>
      <point x="275" y="88"/>
      <point x="291" y="0" type="curve"/>
      <point x="433" y="0" type="line"/>
      <point x="403" y="153"/>
      <point x="348" y="405"/>
      <point x="281" y="598" type="curve"/>
      <point x="362" y="627" type="line"/>
      <point x="335" y="705" type="line"/>
      <point x="250" y="675" type="line"/>
      <point x="214" y="750"/>
      <point x="164" y="776"/>
      <point x="99" y="776" type="curve" smooth="yes"/>
      <point x="62" y="776"/>
      <point x="35" y="771"/>
      <point x="16" y="764" type="curve"/>
      <point x="31" y="656" type="line"/>
      <point x="45" y="660"/>
      <point x="57" y="662"/>
      <point x="67" y="662" type="curve" smooth="yes"/>
      <point x="89" y="662"/>
      <point x="104" y="658"/>
      <point x="121" y="630" type="curve"/>
      <point x="40" y="602" type="line"/>
      <point x="67" y="523" type="line"/>
      <point x="154" y="554" type="line"/>
      <point x="156" y="548"/>
      <point x="158" y="542"/>
      <point x="160" y="535" type="curve"/>
      <point x="108" y="370"/>
      <point x="56" y="199"/>
    </contour>
  </outline>
</glyph>
<glyph name="Ohorn" format="2">
  <advance width="618"/>
  <unicode hex="01A0"/>
  <anchor x="309" y="0" name="bottom"/>
  <anchor x="309" y="693" name="top"/>
  <outline>
    <contour>
      <point x="309" y="-14" type="curve" smooth="yes"/>
      <point x="474" y="-14"/>
      <point x="569" y="117"/>
      <point x="569" y="346" type="curve" smooth="yes"/>
      <point x="569" y="443"/>
      <point x="552" y="523"/>
      <point x="520" y="583" type="curve"/>
      <point x="573" y="638"/>
      <point x="586" y="706"/>
      <point x="586" y="772" type="curve" smooth="yes"/>
      <point x="586" y="783"/>
      <point x="585" y="793"/>
      <point x="584" y="803" type="curve"/>
      <point x="465" y="803" type="line"/>
      <point x="466" y="787"/>
      <point x="467" y="772"/>
      <point x="467" y="756" type="curve" smooth="yes"/>
      <point x="467" y="719"/>
      <point x="462" y="690"/>
      <point x="452" y="663" type="curve"/>
      <point x="414" y="692"/>
      <point x="365" y="707"/>
      <point x="309" y="707" type="curve" smooth="yes"/>
      <point x="144" y="707"/>
      <point x="49" y="576"/>
      <point x="49" y="348" type="curve" smooth="yes"/>
      <point x="49" y="118"/>
      <point x="144" y="-14"/>
    </contour>
    <contour>
      <point x="309" y="110" type="curve" smooth="yes"/>
      <point x="233" y="110"/>
      <point x="199" y="184"/>
      <point x="199" y="348" type="curve" smooth="yes"/>
      <point x="199" y="511"/>
      <point x="232" y="583"/>
      <point x="309" y="583" type="curve" smooth="yes"/>
      <point x="386" y="583"/>
      <point x="419" y="511"/>
      <point x="419" y="346" type="curve" smooth="yes"/>
      <point x="419" y="182"/>
      <point x="386" y="110"/>
    </contour>
  </outline>
</glyph>
<glyph name="Oi" format="2">
  <advance width="891"/>
  <unicode hex="01A2"/>
  <outline>
    <contour>
      <point x="305" y="-14" type="curve" smooth="yes"/>
      <point x="476" y="-14"/>
      <point x="560" y="130"/>
      <point x="560" y="346" type="curve" smooth="yes"/>
      <point x="560" y="427"/>
      <point x="550" y="499"/>
      <point x="518" y="575" type="curve"/>
      <point x="537" y="583"/>
      <point x="554" y="586"/>
      <point x="571" y="586" type="curve"/>
      <point x="627" y="586"/>
      <point x="671" y="557"/>
      <point x="671" y="458" type="curve"/>
      <point x="671" y="0" type="line"/>
      <point x="813" y="0" type="line"/>
      <point x="813" y="451" type="line" smooth="yes"/>
      <point x="813" y="623"/>
      <point x="735" y="710"/>
      <point x="599" y="710" type="curve" smooth="yes"/>
      <point x="551" y="710"/>
      <point x="493" y="697"/>
      <point x="440" y="667" type="curve"/>
      <point x="390" y="698"/>
      <point x="350" y="710"/>
      <point x="305" y="710" type="curve" smooth="yes"/>
      <point x="141" y="710"/>
      <point x="49" y="564"/>
      <point x="49" y="346" type="curve" smooth="yes"/>
      <point x="49" y="130"/>
      <point x="138" y="-14"/>
    </contour>
    <contour>
      <point x="305" y="110" type="curve" smooth="yes"/>
      <point x="230" y="110"/>
      <point x="199" y="209"/>
      <point x="199" y="346" type="curve" smooth="yes"/>
      <point x="199" y="483"/>
      <point x="230" y="586"/>
      <point x="305" y="586" type="curve" smooth="yes"/>
      <point x="381" y="586"/>
      <point x="410" y="485"/>
      <point x="410" y="346" type="curve" smooth="yes"/>
      <point x="410" y="209"/>
      <point x="381" y="110"/>
    </contour>
  </outline>
</glyph>
<glyph name="Phook" format="2">
  <advance width="623"/>
  <unicode hex="01A4"/>
  <outline>
    <contour>
      <point x="182" y="0" type="line"/>
      <point x="324" y="0" type="line"/>
      <point x="324" y="239" type="line"/>
      <point x="351" y="239" type="line" smooth="yes"/>
      <point x="500" y="239"/>
      <point x="596" y="331"/>
      <point x="596" y="472" type="curve" smooth="yes"/>
      <point x="596" y="619"/>
      <point x="505" y="703"/>
      <point x="326" y="703" type="curve"/>
      <point x="57" y="703"/>
      <point x="5" y="614"/>
      <point x="5" y="529" type="curve" smooth="yes"/>
      <point x="5" y="506"/>
      <point x="8" y="482"/>
      <point x="12" y="461" type="curve"/>
      <point x="120" y="475" type="line"/>
      <point x="117" y="489"/>
      <point x="115" y="501"/>
      <point x="115" y="513" type="curve" smooth="yes"/>
      <point x="115" y="550"/>
      <point x="132" y="575"/>
      <point x="182" y="582" type="curve"/>
    </contour>
    <contour>
      <point x="324" y="359" type="line"/>
      <point x="324" y="577" type="line"/>
      <point x="331" y="580"/>
      <point x="343" y="581"/>
      <point x="352" y="581" type="curve" smooth="yes"/>
      <point x="417" y="581"/>
      <point x="448" y="546"/>
      <point x="448" y="472" type="curve" smooth="yes"/>
      <point x="448" y="393"/>
      <point x="418" y="359"/>
      <point x="349" y="359" type="curve" smooth="yes"/>
    </contour>
  </outline>
</glyph>
<glyph name="eshreversedloop" format="2">
  <advance width="347"/>
  <unicode hex="01AA"/>
  <outline>
    <contour>
      <point x="337" y="-187" type="curve"/>
      <point x="353" y="-75" type="line"/>
      <point x="304" y="-72"/>
      <point x="288" y="-56"/>
      <point x="288" y="-13" type="curve"/>
      <point x="288" y="579" type="line"/>
      <point x="288" y="708"/>
      <point x="238" y="778"/>
      <point x="124" y="778" type="curve" smooth="yes"/>
      <point x="34" y="778"/>
      <point x="-35" y="712"/>
      <point x="-35" y="606" type="curve" smooth="yes"/>
      <point x="-35" y="498"/>
      <point x="26" y="439"/>
      <point x="100" y="439" type="curve" smooth="yes"/>
      <point x="116" y="439"/>
      <point x="135" y="442"/>
      <point x="146" y="448" type="curve"/>
      <point x="146" y="-1" type="line"/>
      <point x="146" y="-125"/>
      <point x="208" y="-183"/>
    </contour>
    <contour>
      <point x="115" y="540" type="curve"/>
      <point x="89" y="540"/>
      <point x="73" y="560"/>
      <point x="73" y="612" type="curve" smooth="yes"/>
      <point x="73" y="661"/>
      <point x="87" y="681"/>
      <point x="114" y="681" type="curve" smooth="yes"/>
      <point x="138" y="681"/>
      <point x="149" y="658"/>
      <point x="149" y="618" type="curve" smooth="yes"/>
      <point x="149" y="553" type="line"/>
      <point x="141" y="544"/>
      <point x="128" y="540"/>
    </contour>
  </outline>
</glyph>
<glyph name="Tretroflexhook" format="2">
  <advance width="464"/>
  <unicode hex="01AE"/>
  <anchor x="232" y="0" name="bottom"/>
  <anchor x="232" y="693" name="top"/>
  <outline>
    <contour>
      <point x="326" y="-188" type="curve" smooth="yes"/>
      <point x="350" y="-188"/>
      <point x="374" y="-185"/>
      <point x="396" y="-176" type="curve"/>
      <point x="377" y="-63" type="line"/>
      <point x="367" y="-66"/>
      <point x="354" y="-68"/>
      <point x="343" y="-68" type="curve"/>
      <point x="313" y="-68"/>
      <point x="303" y="-54"/>
      <point x="303" y="-18" type="curve"/>
      <point x="303" y="574" type="line"/>
      <point x="448" y="574" type="line"/>
      <point x="448" y="693" type="line"/>
      <point x="16" y="693" type="line"/>
      <point x="16" y="574" type="line"/>
      <point x="161" y="574" type="line"/>
      <point x="161" y="-2" type="line"/>
      <point x="161" y="-105"/>
      <point x="212" y="-188"/>
    </contour>
  </outline>
</glyph>
<glyph name="Uhorn" format="2">
  <advance width="589"/>
  <unicode hex="01AF"/>
  <anchor x="295" y="0" name="bottom"/>
  <anchor x="295" y="693" name="top"/>
  <outline>
    <contour>
      <point x="285" y="-14" type="curve" smooth="yes"/>
      <point x="429" y="-14"/>
      <point x="502" y="67"/>
      <point x="502" y="211" type="curve" smooth="yes"/>
      <point x="502" y="602" type="line"/>
      <point x="576" y="619"/>
      <point x="613" y="675"/>
      <point x="613" y="755" type="curve" smooth="yes"/>
      <point x="613" y="770"/>
      <point x="612" y="787"/>
      <point x="609" y="803" type="curve"/>
      <point x="490" y="803" type="line"/>
      <point x="491" y="792"/>
      <point x="492" y="781"/>
      <point x="492" y="771" type="curve" smooth="yes"/>
      <point x="492" y="719"/>
      <point x="476" y="693"/>
      <point x="418" y="693" type="curve" smooth="yes"/>
      <point x="360" y="693" type="line"/>
      <point x="360" y="222" type="line" smooth="yes"/>
      <point x="360" y="143"/>
      <point x="338" y="110"/>
      <point x="285" y="110" type="curve" smooth="yes"/>
      <point x="232" y="110"/>
      <point x="210" y="143"/>
      <point x="210" y="222" type="curve" smooth="yes"/>
      <point x="210" y="693" type="line"/>
      <point x="68" y="693" type="line"/>
      <point x="68" y="211" type="line" smooth="yes"/>
      <point x="68" y="67"/>
      <point x="141" y="-14"/>
    </contour>
  </outline>
</glyph>
<glyph name="uhorn" format="2">
  <advance width="526"/>
  <unicode hex="01B0"/>
  <anchor x="263" y="0" name="bottom"/>
  <anchor x="263" y="532" name="top"/>
  <outline>
    <contour>
      <point x="267" y="-10" type="curve" smooth="yes"/>
      <point x="326" y="-10"/>
      <point x="380" y="-3"/>
      <point x="436" y="11" type="curve"/>
      <point x="436" y="446" type="line"/>
      <point x="507" y="460"/>
      <point x="536" y="526"/>
      <point x="536" y="590" type="curve"/>
      <point x="536" y="607"/>
      <point x="536" y="618"/>
      <point x="533" y="637" type="curve"/>
      <point x="421" y="637" type="line"/>
      <point x="423" y="618"/>
      <point x="423" y="610"/>
      <point x="423" y="596" type="curve"/>
      <point x="423" y="558"/>
      <point x="409" y="532"/>
      <point x="364" y="532" type="curve"/>
      <point x="298" y="532" type="line"/>
      <point x="298" y="110" type="line"/>
      <point x="288" y="108"/>
      <point x="279" y="107"/>
      <point x="271" y="107" type="curve" smooth="yes"/>
      <point x="219" y="107"/>
      <point x="201" y="138"/>
      <point x="201" y="225" type="curve" smooth="yes"/>
      <point x="201" y="532" type="line"/>
      <point x="63" y="532" type="line"/>
      <point x="63" y="219" type="line" smooth="yes"/>
      <point x="63" y="65"/>
      <point x="130" y="-10"/>
    </contour>
  </outline>
</glyph>
<glyph name="Yhook" format="2">
  <advance width="547"/>
  <unicode hex="01B3"/>
  <anchor x="274" y="0" name="bottom"/>
  <anchor x="274" y="693" name="top"/>
  <outline>
    <contour>
      <point x="178" y="0" type="line"/>
      <point x="320" y="0" type="line"/>
      <point x="320" y="261" type="line"/>
      <point x="354" y="359"/>
      <point x="401" y="483"/>
      <point x="423" y="529" type="curve" smooth="yes"/>
      <point x="445" y="575"/>
      <point x="460" y="583"/>
      <point x="480" y="583" type="curve"/>
      <point x="495" y="583"/>
      <point x="511" y="577"/>
      <point x="520" y="569" type="curve"/>
      <point x="562" y="673" type="line"/>
      <point x="539" y="693"/>
      <point x="497" y="707"/>
      <point x="453" y="707" type="curve"/>
      <point x="400" y="707"/>
      <point x="364" y="683"/>
      <point x="331" y="610" type="curve" smooth="yes"/>
      <point x="298" y="537"/>
      <point x="269" y="453"/>
      <point x="250" y="397" type="curve"/>
      <point x="211" y="499"/>
      <point x="177" y="603"/>
      <point x="153" y="693" type="curve"/>
      <point x="1" y="693" type="line"/>
      <point x="36" y="590"/>
      <point x="113" y="402"/>
      <point x="178" y="261" type="curve"/>
    </contour>
  </outline>
</glyph>
<glyph name="yhook" format="2">
  <advance width="498"/>
  <unicode hex="01B4"/>
  <anchor x="249" y="0" name="bottom"/>
  <anchor x="249" y="532" name="top"/>
  <outline>
    <contour>
      <point x="85" y="-188" type="curve" smooth="yes"/>
      <point x="191" y="-188"/>
      <point x="243" y="-149"/>
      <point x="289" y="0" type="curve" smooth="yes"/>
      <point x="333" y="143"/>
      <point x="361" y="270"/>
      <point x="385" y="381" type="curve" smooth="yes"/>
      <point x="394" y="423"/>
      <point x="406" y="435"/>
      <point x="430" y="435" type="curve" smooth="yes"/>
      <point x="444" y="435"/>
      <point x="456" y="432"/>
      <point x="470" y="423" type="curve"/>
      <point x="503" y="518" type="line"/>
      <point x="476" y="534"/>
      <point x="431" y="542"/>
      <point x="399" y="542" type="curve"/>
      <point x="335" y="542"/>
      <point x="290" y="512"/>
      <point x="275" y="430" type="curve" smooth="yes"/>
      <point x="260" y="347"/>
      <point x="246" y="270"/>
      <point x="222" y="163" type="curve"/>
      <point x="194" y="286"/>
      <point x="169" y="430"/>
      <point x="158" y="532" type="curve"/>
      <point x="13" y="532" type="line"/>
      <point x="46" y="368"/>
      <point x="92" y="195"/>
      <point x="153" y="3" type="curve"/>
      <point x="138" y="-53"/>
      <point x="110" y="-71"/>
      <point x="80" y="-71" type="curve" smooth="yes"/>
      <point x="62" y="-71"/>
      <point x="41" y="-68"/>
      <point x="25" y="-60" type="curve"/>
      <point x="3" y="-169" type="line"/>
      <point x="16" y="-179"/>
      <point x="47" y="-188"/>
    </contour>
  </outline>
</glyph>
<glyph name="ezhtail" format="2">
  <advance width="383"/>
  <unicode hex="01BA"/>
  <anchor x="192" y="0" name="bottom"/>
  <anchor x="192" y="532" name="top"/>
  <outline>
    <contour>
      <point x="30" y="-192" type="curve"/>
      <point x="141" y="-168" type="line"/>
      <point x="136" y="-157"/>
      <point x="131" y="-142"/>
      <point x="131" y="-125" type="curve" smooth="yes"/>
      <point x="131" y="-91"/>
      <point x="144" y="-82"/>
      <point x="217" y="-50" type="curve" smooth="yes"/>
      <point x="290" y="-18"/>
      <point x="340" y="18"/>
      <point x="340" y="123" type="curve" smooth="yes"/>
      <point x="340" y="216"/>
      <point x="298" y="263"/>
      <point x="228" y="288" type="curve"/>
      <point x="260" y="342"/>
      <point x="299" y="401"/>
      <point x="327" y="441" type="curve"/>
      <point x="327" y="532" type="line"/>
      <point x="22" y="532" type="line"/>
      <point x="22" y="419" type="line"/>
      <point x="174" y="419" type="line"/>
      <point x="147" y="376"/>
      <point x="114" y="323"/>
      <point x="92" y="285" type="curve"/>
      <point x="92" y="208" type="line"/>
      <point x="188" y="208"/>
      <point x="204" y="176"/>
      <point x="204" y="126" type="curve" smooth="yes"/>
      <point x="204" y="74"/>
      <point x="179" y="53"/>
      <point x="116" y="27" type="curve" smooth="yes"/>
      <point x="53" y="1"/>
      <point x="8" y="-31"/>
      <point x="8" y="-107" type="curve" smooth="yes"/>
      <point x="8" y="-132"/>
      <point x="16" y="-166"/>
    </contour>
  </outline>
</glyph>
<glyph name="Hwair" format="2">
  <advance width="833"/>
  <unicode hex="01F6"/>
  <outline>
    <contour>
      <point x="573" y="-11" type="curve" smooth="yes"/>
      <point x="714" y="-11"/>
      <point x="778" y="65"/>
      <point x="778" y="194" type="curve" smooth="yes"/>
      <point x="778" y="539" type="line"/>
      <point x="636" y="539" type="line"/>
      <point x="636" y="200" type="line" smooth="yes"/>
      <point x="636" y="139"/>
      <point x="618" y="113"/>
      <point x="573" y="113" type="curve" smooth="yes"/>
      <point x="529" y="113"/>
      <point x="511" y="139"/>
      <point x="511" y="199" type="curve" smooth="yes"/>
      <point x="511" y="693" type="line"/>
      <point x="369" y="693" type="line"/>
      <point x="369" y="420" type="line"/>
      <point x="220" y="420" type="line"/>
      <point x="220" y="693" type="line"/>
      <point x="78" y="693" type="line"/>
      <point x="78" y="0" type="line"/>
      <point x="220" y="0" type="line"/>
      <point x="220" y="300" type="line"/>
      <point x="369" y="300" type="line"/>
      <point x="369" y="194" type="line" smooth="yes"/>
      <point x="369" y="55"/>
      <point x="440" y="-11"/>
    </contour>
  </outline>
</glyph>
<glyph name="Wynn" format="2">
  <advance width="554"/>
  <unicode hex="01F7"/>
  <outline>
    <contour>
      <point x="78" y="-185" type="line"/>
      <point x="220" y="-185" type="line"/>
      <point x="220" y="0" type="line"/>
      <point x="394" y="85"/>
      <point x="519" y="230"/>
      <point x="519" y="435" type="curve" smooth="yes"/>
      <point x="519" y="608"/>
      <point x="428" y="703"/>
      <point x="275" y="703" type="curve" smooth="yes"/>
      <point x="205" y="703"/>
      <point x="138" y="684"/>
      <point x="78" y="655" type="curve"/>
    </contour>
    <contour>
      <point x="220" y="138" type="curve"/>
      <point x="220" y="575" type="line"/>
      <point x="235" y="579"/>
      <point x="248" y="581"/>
      <point x="261" y="581" type="curve"/>
      <point x="328" y="581"/>
      <point x="369" y="533"/>
      <point x="369" y="426" type="curve" smooth="yes"/>
      <point x="369" y="297"/>
      <point x="312" y="198"/>
    </contour>
  </outline>
</glyph>
<glyph name="zswashtail" format="2">
  <advance width="369"/>
  <unicode hex="0240"/>
  <outline>
    <contour>
      <point x="316" y="-185" type="curve"/>
      <point x="330" y="-185"/>
      <point x="358" y="-182"/>
      <point x="389" y="-174" type="curve"/>
      <point x="378" y="-68" type="line"/>
      <point x="362" y="-73"/>
      <point x="344" y="-75"/>
      <point x="328" y="-74" type="curve" smooth="yes"/>
      <point x="297" y="-73"/>
      <point x="279" y="-45"/>
      <point x="249" y="-3" type="curve" smooth="yes"/>
      <point x="219" y="39"/>
      <point x="202" y="61"/>
      <point x="162" y="75" type="curve"/>
      <point x="219" y="207"/>
      <point x="288" y="348"/>
      <point x="336" y="426" type="curve"/>
      <point x="336" y="532" type="line"/>
      <point x="44" y="532" type="line"/>
      <point x="44" y="419" type="line"/>
      <point x="189" y="419" type="line"/>
      <point x="131" y="314"/>
      <point x="68" y="183"/>
      <point x="32" y="94" type="curve"/>
      <point x="32" y="0" type="line"/>
      <point x="37" y="0" type="line" smooth="yes"/>
      <point x="97" y="0"/>
      <point x="132" y="-33"/>
      <point x="172" y="-86" type="curve" smooth="yes"/>
      <point x="209" y="-135"/>
      <point x="244" y="-185"/>
    </contour>
  </outline>
</glyph>
<glyph name="Estroke" format="2">
  <advance width="491"/>
  <unicode hex="0246"/>
  <outline>
    <contour>
      <point x="229" y="-106" type="line"/>
      <point x="260" y="0" type="line"/>
      <point x="449" y="0" type="line"/>
      <point x="449" y="119" type="line"/>
      <point x="295" y="119" type="line"/>
      <point x="350" y="306" type="line"/>
      <point x="412" y="306" type="line"/>
      <point x="412" y="421" type="line"/>
      <point x="383" y="421" type="line"/>
      <point x="480" y="752" type="line"/>
      <point x="411" y="771" type="line"/>
      <point x="388" y="693" type="line"/>
      <point x="78" y="693" type="line"/>
      <point x="78" y="0" type="line"/>
      <point x="186" y="0" type="line"/>
      <point x="161" y="-87" type="line"/>
    </contour>
    <contour>
      <point x="220" y="119" type="line"/>
      <point x="220" y="306" type="line"/>
      <point x="276" y="306" type="line"/>
      <point x="221" y="119" type="line"/>
    </contour>
    <contour>
      <point x="220" y="421" type="line"/>
      <point x="220" y="574" type="line"/>
      <point x="354" y="574" type="line"/>
      <point x="309" y="421" type="line"/>
    </contour>
  </outline>
</glyph>
<glyph name="Jstroke" format="2">
  <advance width="433"/>
  <unicode hex="0248"/>
  <anchor x="217" y="0" name="bottom"/>
  <anchor x="217" y="693" name="top"/>
  <outline>
    <contour>
      <point x="154" y="-14" type="curve" smooth="yes"/>
      <point x="287" y="-14"/>
      <point x="351" y="56"/>
      <point x="351" y="196" type="curve" smooth="yes"/>
      <point x="351" y="314" type="line"/>
      <point x="425" y="314" type="line"/>
      <point x="425" y="414" type="line"/>
      <point x="351" y="414" type="line"/>
      <point x="351" y="693" type="line"/>
      <point x="209" y="693" type="line"/>
      <point x="209" y="414" type="line"/>
      <point x="113" y="414" type="line"/>
      <point x="113" y="314" type="line"/>
      <point x="209" y="314" type="line"/>
      <point x="209" y="201" type="line" smooth="yes"/>
      <point x="209" y="136"/>
      <point x="185" y="110"/>
      <point x="147" y="110" type="curve"/>
      <point x="114" y="110"/>
      <point x="80" y="122"/>
      <point x="53" y="142" type="curve"/>
      <point x="7" y="31" type="line"/>
      <point x="36" y="4"/>
      <point x="95" y="-14"/>
    </contour>
  </outline>
</glyph>
<glyph name="Qhooktail" format="2">
  <advance width="638"/>
  <unicode hex="024A"/>
  <anchor x="319" y="0" name="bottom"/>
  <anchor x="319" y="693" name="top"/>
  <outline>
    <contour>
      <point x="592" y="-188" type="curve" smooth="yes"/>
      <point x="616" y="-188"/>
      <point x="640" y="-185"/>
      <point x="662" y="-176" type="curve"/>
      <point x="643" y="-63" type="line"/>
      <point x="633" y="-66"/>
      <point x="620" y="-68"/>
      <point x="609" y="-68" type="curve"/>
      <point x="579" y="-68"/>
      <point x="569" y="-54"/>
      <point x="569" y="-18" type="curve"/>
      <point x="569" y="346" type="line"/>
      <point x="569" y="576"/>
      <point x="475" y="707"/>
      <point x="309" y="707" type="curve" smooth="yes"/>
      <point x="144" y="707"/>
      <point x="49" y="576"/>
      <point x="49" y="348" type="curve" smooth="yes"/>
      <point x="49" y="118"/>
      <point x="144" y="-14"/>
      <point x="306" y="-14" type="curve"/>
      <point x="362" y="-14"/>
      <point x="406" y="13"/>
      <point x="432" y="46" type="curve"/>
      <point x="432" y="-2" type="line"/>
      <point x="432" y="-113"/>
      <point x="478" y="-188"/>
    </contour>
    <contour>
      <point x="309" y="110" type="curve" smooth="yes"/>
      <point x="233" y="110"/>
      <point x="199" y="184"/>
      <point x="199" y="348" type="curve" smooth="yes"/>
      <point x="199" y="511"/>
      <point x="232" y="583"/>
      <point x="309" y="583" type="curve" smooth="yes"/>
      <point x="386" y="583"/>
      <point x="419" y="511"/>
      <point x="419" y="346" type="curve" smooth="yes"/>
      <point x="419" y="182"/>
      <point x="386" y="110"/>
    </contour>
  </outline>
</glyph>
<glyph name="apostrophemod" format="2">
  <advance width="242"/>
  <unicode hex="02BC"/>
  <outline>
    <contour>
      <point x="126" y="555" type="line"/>
      <point x="166" y="608"/>
      <point x="194" y="672"/>
      <point x="194" y="745" type="curve" smooth="yes"/>
      <point x="194" y="758"/>
      <point x="194" y="766"/>
      <point x="193" y="781" type="curve"/>
      <point x="72" y="781" type="line"/>
      <point x="74" y="767"/>
      <point x="75" y="754"/>
      <point x="75" y="738" type="curve" smooth="yes"/>
      <point x="75" y="684"/>
      <point x="67" y="634"/>
      <point x="37" y="581" type="curve"/>
    </contour>
  </outline>
</glyph>
<glyph name="acutecomb" format="2">
  <unicode hex="0301"/>
  <anchor x="0" y="532" name="_top"/>
  <anchor x="0" y="785" name="top"/>
  <outline>
    <contour>
      <point x="-3" y="578" type="line"/>
      <point x="130" y="707" type="line"/>
      <point x="39" y="785" type="line"/>
      <point x="-71" y="639" type="line"/>
    </contour>
  </outline>
</glyph>
<glyph name="tildecomb" format="2">
  <unicode hex="0303"/>
  <anchor x="142" y="532" name="_top"/>
  <anchor x="141" y="754" name="top"/>
  <outline>
    <contour>
      <point x="70" y="607" type="line"/>
      <point x="75" y="637"/>
      <point x="85" y="652"/>
      <point x="100" y="652" type="curve" smooth="yes"/>
      <point x="130" y="652"/>
      <point x="151" y="609"/>
      <point x="196" y="609" type="curve"/>
      <point x="241" y="609"/>
      <point x="273" y="650"/>
      <point x="284" y="720" type="curve"/>
      <point x="214" y="756" type="line"/>
      <point x="209" y="726"/>
      <point x="199" y="711"/>
      <point x="184" y="711" type="curve"/>
      <point x="157" y="711"/>
      <point x="141" y="754"/>
      <point x="88" y="754" type="curve"/>
      <point x="43" y="754"/>
      <point x="11" y="713"/>
      <point x="0" y="643" type="curve"/>
    </contour>
  </outline>
</glyph>
<glyph name="dieresiscomb" format="2">
  <unicode hex="0308"/>
  <anchor x="0" y="532" name="_top"/>
  <anchor x="0" y="751" name="top"/>
  <outline>
    <contour>
      <point x="94" y="605" type="curve" smooth="yes"/>
      <point x="133" y="605"/>
      <point x="168" y="633"/>
      <point x="168" y="678" type="curve" smooth="yes"/>
      <point x="168" y="722"/>
      <point x="133" y="751"/>
      <point x="94" y="751" type="curve" smooth="yes"/>
      <point x="54" y="751"/>
      <point x="19" y="722"/>
      <point x="19" y="678" type="curve" smooth="yes"/>
      <point x="19" y="633"/>
      <point x="54" y="605"/>
    </contour>
    <contour>
      <point x="-94" y="605" type="curve" smooth="yes"/>
      <point x="-55" y="605"/>
      <point x="-20" y="633"/>
      <point x="-20" y="678" type="curve" smooth="yes"/>
      <point x="-20" y="722"/>
      <point x="-55" y="751"/>
      <point x="-94" y="751" type="curve" smooth="yes"/>
      <point x="-134" y="751"/>
      <point x="-168" y="722"/>
      <point x="-168" y="678" type="curve" smooth="yes"/>
      <point x="-168" y="633"/>
      <point x="-134" y="605"/>
    </contour>
  </outline>
</glyph>
<glyph name="ringcomb" format="2">
  <unicode hex="030A"/>
  <anchor x="0" y="532" name="_top"/>
  <anchor x="0" y="784" name="top"/>
  <outline>
    <contour>
      <point x="0" y="589" type="curve" smooth="yes"/>
      <point x="56" y="589"/>
      <point x="98" y="631"/>
      <point x="98" y="687" type="curve" smooth="yes"/>
      <point x="98" y="742"/>
      <point x="55" y="784"/>
      <point x="0" y="784" type="curve" smooth="yes"/>
      <point x="-57" y="784"/>
      <point x="-98" y="742"/>
      <point x="-98" y="687" type="curve" smooth="yes"/>
      <point x="-98" y="631"/>
      <point x="-56" y="589"/>
    </contour>
    <contour>
      <point x="0" y="648" type="curve" smooth="yes"/>
      <point x="-24" y="648"/>
      <point x="-38" y="663"/>
      <point x="-38" y="687" type="curve" smooth="yes"/>
      <point x="-38" y="711"/>
      <point x="-24" y="726"/>
      <point x="0" y="726" type="curve" smooth="yes"/>
      <point x="25" y="726"/>
      <point x="40" y="711"/>
      <point x="40" y="687" type="curve" smooth="yes"/>
      <point x="40" y="663"/>
      <point x="25" y="648"/>
    </contour>
  </outline>
</glyph>
<glyph name="hungarumlautcomb" format="2">
  <unicode hex="030B"/>
  <anchor x="0" y="532" name="_top"/>
  <anchor x="0" y="799" name="top"/>
  <outline>
    <contour>
      <point x="77" y="583" type="line"/>
      <point x="199" y="741" type="line"/>
      <point x="113" y="799" type="line"/>
      <point x="15" y="624" type="line"/>
    </contour>
    <contour>
      <point x="-89" y="583" type="line"/>
      <point x="33" y="741" type="line"/>
      <point x="-53" y="799" type="line"/>
      <point x="-152" y="624" type="line"/>
    </contour>
  </outline>
</glyph>
<glyph name="breveinvertedcomb" format="2">
  <unicode hex="0311"/>
  <anchor x="0" y="532" name="_top"/>
  <anchor x="0" y="764" name="top"/>
  <outline>
    <contour>
      <point x="-130" y="605" type="curve"/>
      <point x="-44" y="605" type="line"/>
      <point x="-44" y="651"/>
      <point x="-30" y="675"/>
      <point x="0" y="675" type="curve"/>
      <point x="30" y="675"/>
      <point x="44" y="651"/>
      <point x="44" y="605" type="curve"/>
      <point x="130" y="605" type="line"/>
      <point x="130" y="702"/>
      <point x="79" y="764"/>
      <point x="0" y="764" type="curve" smooth="yes"/>
      <point x="-79" y="764"/>
      <point x="-130" y="702"/>
    </contour>
  </outline>
</glyph>
<glyph name="beta" format="2">
  <advance width="517"/>
  <unicode hex="03B2"/>
  <outline>
    <contour>
      <point x="69" y="-185" type="line"/>
      <point x="207" y="-185" type="line"/>
      <point x="207" y="-4" type="line"/>
      <point x="229" y="-11"/>
      <point x="255" y="-12"/>
      <point x="274" y="-12" type="curve" smooth="yes"/>
      <point x="393" y="-12"/>
      <point x="479" y="77"/>
      <point x="479" y="241" type="curve" smooth="yes"/>
      <point x="479" y="307"/>
      <point x="457" y="395"/>
      <point x="372" y="441" type="curve"/>
      <point x="415" y="472"/>
      <point x="446" y="523"/>
      <point x="446" y="591" type="curve" smooth="yes"/>
      <point x="446" y="729"/>
      <point x="364" y="776"/>
      <point x="253" y="776" type="curve" smooth="yes"/>
      <point x="115" y="776"/>
      <point x="69" y="678"/>
      <point x="69" y="584" type="curve" smooth="yes"/>
    </contour>
    <contour>
      <point x="255" y="107" type="curve" smooth="yes"/>
      <point x="237" y="107"/>
      <point x="223" y="108"/>
      <point x="207" y="113" type="curve"/>
      <point x="207" y="582" type="line" smooth="yes"/>
      <point x="207" y="614"/>
      <point x="215" y="659"/>
      <point x="258" y="659" type="curve" smooth="yes"/>
      <point x="299" y="659"/>
      <point x="308" y="623"/>
      <point x="308" y="583" type="curve" smooth="yes"/>
      <point x="308" y="511"/>
      <point x="278" y="482"/>
      <point x="249" y="482" type="curve"/>
      <point x="244" y="482" type="line"/>
      <point x="244" y="369" type="line"/>
      <point x="249" y="369" type="line"/>
      <point x="319" y="369"/>
      <point x="338" y="296"/>
      <point x="338" y="239" type="curve" smooth="yes"/>
      <point x="338" y="154"/>
      <point x="302" y="107"/>
    </contour>
  </outline>
</glyph>
<glyph name="gamma" format="2">
  <advance width="430"/>
  <unicode hex="03B3"/>
  <outline>
    <contour>
      <point x="154" y="-185" type="curve"/>
      <point x="279" y="-185" type="line"/>
      <point x="273" y="-127"/>
      <point x="265" y="-67"/>
      <point x="256" y="-6" type="curve"/>
      <point x="354" y="243"/>
      <point x="402" y="403"/>
      <point x="418" y="532" type="curve"/>
      <point x="277" y="532" type="line"/>
      <point x="266" y="429"/>
      <point x="245" y="313"/>
      <point x="219" y="203" type="curve"/>
      <point x="196" y="337"/>
      <point x="169" y="456"/>
      <point x="149" y="532" type="curve"/>
      <point x="6" y="532" type="line"/>
      <point x="60" y="340"/>
      <point x="119" y="133"/>
    </contour>
  </outline>
</glyph>
<glyph name="theta" format="2">
  <advance width="513"/>
  <unicode hex="03B8"/>
  <outline>
    <contour>
      <point x="257" y="-14" type="curve" smooth="yes"/>
      <point x="393" y="-14"/>
      <point x="467" y="90"/>
      <point x="467" y="381" type="curve" smooth="yes"/>
      <point x="467" y="671"/>
      <point x="396" y="776"/>
      <point x="257" y="776" type="curve" smooth="yes"/>
      <point x="120" y="776"/>
      <point x="46" y="671"/>
      <point x="46" y="381" type="curve" smooth="yes"/>
      <point x="46" y="90"/>
      <point x="117" y="-14"/>
    </contour>
    <contour>
      <point x="257" y="105" type="curve" smooth="yes"/>
      <point x="207" y="105"/>
      <point x="188" y="163"/>
      <point x="186" y="327" type="curve"/>
      <point x="326" y="327" type="line"/>
      <point x="325" y="163"/>
      <point x="307" y="105"/>
    </contour>
    <contour>
      <point x="186" y="442" type="line"/>
      <point x="188" y="600"/>
      <point x="207" y="657"/>
      <point x="257" y="657" type="curve" smooth="yes"/>
      <point x="305" y="657"/>
      <point x="324" y="600"/>
      <point x="326" y="442" type="curve"/>
    </contour>
  </outline>
</glyph>
<glyph name="nu" format="2">
  <advance width="439"/>
  <unicode hex="03BD"/>
  <outline>
    <contour>
      <point x="130" y="0" type="curve"/>
      <point x="278" y="0" type="line"/>
      <point x="341" y="133"/>
      <point x="413" y="327"/>
      <point x="429" y="532" type="curve"/>
      <point x="286" y="532" type="line"/>
      <point x="277" y="396"/>
      <point x="258" y="268"/>
      <point x="229" y="157" type="curve"/>
      <point x="215" y="284"/>
      <point x="185" y="424"/>
      <point x="150" y="532" type="curve"/>
      <point x="6" y="532" type="line"/>
      <point x="60" y="396"/>
      <point x="113" y="142"/>
    </contour>
  </outline>
</glyph>
<glyph name="sigma" format="2">
  <advance width="490"/>
  <unicode hex="03C3"/>
  <outline>
    <contour>
      <point x="241" y="-14" type="curve" smooth="yes"/>
      <point x="362" y="-14"/>
      <point x="438" y="94"/>
      <point x="438" y="244" type="curve" smooth="yes"/>
      <point x="438" y="299"/>
      <point x="426" y="359"/>
      <point x="399" y="413" type="curve"/>
      <point x="484" y="413" type="line"/>
      <point x="484" y="532" type="line"/>
      <point x="263" y="532" type="line" smooth="yes"/>
      <point x="130" y="532"/>
      <point x="43" y="435"/>
      <point x="43" y="259" type="curve" smooth="yes"/>
      <point x="43" y="94"/>
      <point x="123" y="-14"/>
    </contour>
    <contour>
      <point x="242" y="105" type="curve" smooth="yes"/>
      <point x="201" y="105"/>
      <point x="184" y="162"/>
      <point x="184" y="258" type="curve" smooth="yes"/>
      <point x="184" y="368"/>
      <point x="214" y="413"/>
      <point x="258" y="413" type="curve" smooth="yes"/>
      <point x="272" y="413" type="line"/>
      <point x="287" y="379"/>
      <point x="297" y="319"/>
      <point x="297" y="248" type="curve" smooth="yes"/>
      <point x="297" y="167"/>
      <point x="282" y="105"/>
    </contour>
  </outline>
</glyph>
<glyph name="psi" format="2">
  <advance width="660"/>
  <unicode hex="03C8"/>
  <outline>
    <contour>
      <point x="261" y="-185" type="line"/>
      <point x="399" y="-185" type="line"/>
      <point x="399" y="-14" type="line"/>
      <point x="535" y="-9"/>
      <point x="597" y="85"/>
      <point x="597" y="194" type="curve" smooth="yes"/>
      <point x="597" y="532" type="line"/>
      <point x="459" y="532" type="line"/>
      <point x="459" y="202" type="line" smooth="yes"/>
      <point x="459" y="124"/>
      <point x="425" y="111"/>
      <point x="399" y="107" type="curve"/>
      <point x="399" y="532" type="line"/>
      <point x="261" y="532" type="line"/>
      <point x="261" y="107" type="line"/>
      <point x="235" y="111"/>
      <point x="201" y="124"/>
      <point x="201" y="202" type="curve" smooth="yes"/>
      <point x="201" y="532" type="line"/>
      <point x="63" y="532" type="line"/>
      <point x="63" y="194" type="line" smooth="yes"/>
      <point x="63" y="85"/>
      <point x="126" y="-9"/>
      <point x="261" y="-14" type="curve"/>
    </contour>
  </outline>
</glyph>
<glyph name="Dje-cy" format="2">
  <advance width="634"/>
  <unicode hex="0402"/>
  <outline>
    <contour>
      <point x="403" y="-6" type="curve" smooth="yes"/>
      <point x="512" y="-6"/>
      <point x="596" y="66"/>
      <point x="596" y="206" type="curve" smooth="yes"/>
      <point x="596" y="352"/>
      <point x="511" y="435"/>
      <point x="349" y="435" type="curve" smooth="yes"/>
      <point x="335" y="435"/>
      <point x="305" y="433"/>
      <point x="286" y="429" type="curve"/>
      <point x="286" y="574" type="line"/>
      <point x="448" y="574" type="line"/>
      <point x="448" y="693" type="line"/>
      <point x="16" y="693" type="line"/>
      <point x="16" y="574" type="line"/>
      <point x="144" y="574" type="line"/>
      <point x="144" y="0" type="line"/>
      <point x="286" y="0" type="line"/>
      <point x="286" y="310" type="line"/>
      <point x="304" y="314"/>
      <point x="324" y="316"/>
      <point x="346" y="316" type="curve"/>
      <point x="409" y="316"/>
      <point x="450" y="287"/>
      <point x="450" y="211" type="curve"/>
      <point x="450" y="130"/>
      <point x="425" y="108"/>
      <point x="374" y="108" type="curve" smooth="yes"/>
      <point x="367" y="108"/>
      <point x="361" y="108"/>
      <point x="351" y="110" type="curve"/>
      <point x="347" y="-2" type="line"/>
      <point x="365" y="-4"/>
      <point x="385" y="-6"/>
    </contour>
  </outline>
</glyph>
<glyph name="Nje-cy" format="2">
  <advance width="832"/>
  <unicode hex="040A"/>
  <outline>
    <contour>
      <point x="545" y="-10" type="curve"/>
      <point x="699" y="-10"/>
      <point x="794" y="78"/>
      <point x="794" y="228" type="curve" smooth="yes"/>
      <point x="794" y="381"/>
      <point x="705" y="460"/>
      <point x="557" y="460" type="curve"/>
      <point x="544" y="460"/>
      <point x="532" y="460"/>
      <point x="520" y="460" type="curve"/>
      <point x="520" y="693" type="line"/>
      <point x="378" y="693" type="line"/>
      <point x="378" y="436" type="line"/>
      <point x="220" y="436" type="line"/>
      <point x="220" y="693" type="line"/>
      <point x="78" y="693" type="line"/>
      <point x="78" y="0" type="line"/>
      <point x="220" y="0" type="line"/>
      <point x="220" y="316" type="line"/>
      <point x="378" y="316" type="line"/>
      <point x="378" y="11" type="line"/>
      <point x="430" y="-2"/>
      <point x="496" y="-10"/>
    </contour>
    <contour>
      <point x="554" y="112" type="curve"/>
      <point x="543" y="112"/>
      <point x="530" y="113"/>
      <point x="520" y="115" type="curve"/>
      <point x="520" y="341" type="line"/>
      <point x="529" y="341"/>
      <point x="542" y="341"/>
      <point x="553" y="341" type="curve"/>
      <point x="619" y="341"/>
      <point x="646" y="300"/>
      <point x="646" y="228" type="curve" smooth="yes"/>
      <point x="646" y="148"/>
      <point x="618" y="112"/>
    </contour>
  </outline>
</glyph>
<glyph name="Ii-cy" format="2">
  <advance width="607"/>
  <unicode hex="0418"/>
  <anchor x="587" y="0" name="bottomright"/>
  <anchor x="318" y="683" name="top"/>
  <outline>
    <contour>
      <point x="78" y="0" type="line"/>
      <point x="192" y="0" type="line"/>
      <point x="232" y="107"/>
      <point x="306" y="262"/>
      <point x="396" y="429" type="curve"/>
      <point x="396" y="0" type="line"/>
      <point x="529" y="0" type="line"/>
      <point x="529" y="693" type="line"/>
      <point x="414" y="693" type="line"/>
      <point x="344" y="575"/>
      <point x="268" y="437"/>
      <point x="211" y="310" type="curve"/>
      <point x="211" y="693" type="line"/>
      <point x="78" y="693" type="line"/>
    </contour>
  </outline>
</glyph>
<glyph name="U-cy" format="2">
  <advance width="493"/>
  <unicode hex="0423"/>
  <anchor x="260" y="683" name="top"/>
  <outline>
    <contour>
      <point x="113" y="-11" type="curve"/>
      <point x="178" y="-11"/>
      <point x="252" y="0"/>
      <point x="320" y="159" type="curve" smooth="yes"/>
      <point x="387" y="316"/>
      <point x="455" y="541"/>
      <point x="488" y="693" type="curve"/>
      <point x="342" y="693" type="line"/>
      <point x="325" y="595"/>
      <point x="297" y="485"/>
      <point x="262" y="369" type="curve"/>
      <point x="223" y="475"/>
      <point x="184" y="599"/>
      <point x="161" y="693" type="curve"/>
      <point x="13" y="693" type="line"/>
      <point x="52" y="562"/>
      <point x="120" y="369"/>
      <point x="193" y="192" type="curve"/>
      <point x="168" y="128"/>
      <point x="142" y="112"/>
      <point x="105" y="112" type="curve"/>
      <point x="83" y="112"/>
      <point x="66" y="116"/>
      <point x="44" y="124" type="curve"/>
      <point x="19" y="8" type="line"/>
      <point x="48" y="-4"/>
      <point x="85" y="-11"/>
    </contour>
  </outline>
</glyph>
<glyph name="Che-cy" format="2">
  <advance width="548"/>
  <unicode hex="0427"/>
  <anchor x="528" y="0" name="bottomright"/>
  <anchor x="263" y="683" name="top"/>
  <outline>
    <contour>
      <point x="328" y="0" type="line"/>
      <point x="470" y="0" type="line"/>
      <point x="470" y="693" type="line"/>
      <point x="328" y="693" type="line"/>
      <point x="328" y="351" type="line"/>
      <point x="308" y="345"/>
      <point x="286" y="343"/>
      <point x="264" y="343" type="curve" smooth="yes"/>
      <point x="214" y="343"/>
      <point x="179" y="364"/>
      <point x="179" y="452" type="curve" smooth="yes"/>
      <point x="179" y="693" type="line"/>
      <point x="38" y="693" type="line"/>
      <point x="38" y="434" type="line" smooth="yes"/>
      <point x="38" y="272"/>
      <point x="137" y="224"/>
      <point x="251" y="224" type="curve"/>
      <point x="281" y="224"/>
      <point x="306" y="227"/>
      <point x="328" y="234" type="curve"/>
    </contour>
  </outline>
</glyph>
<glyph name="Ereversed-cy" format="2">
  <advance width="501"/>
  <unicode hex="042D"/>
  <anchor x="218" y="683" name="top"/>
  <outline>
    <contour>
      <point x="177" y="-14" type="curve"/>
      <point x="358" y="-14"/>
      <point x="452" y="110"/>
      <point x="452" y="348" type="curve" smooth="yes"/>
      <point x="452" y="588"/>
      <point x="362" y="707"/>
      <point x="181" y="707" type="curve"/>
      <point x="120" y="707"/>
      <point x="63" y="691"/>
      <point x="22" y="667" type="curve"/>
      <point x="63" y="548" type="line"/>
      <point x="96" y="570"/>
      <point x="134" y="583"/>
      <point x="182" y="583" type="curve"/>
      <point x="258" y="583"/>
      <point x="292" y="538"/>
      <point x="300" y="415" type="curve"/>
      <point x="99" y="415" type="line"/>
      <point x="99" y="300" type="line"/>
      <point x="301" y="300" type="line"/>
      <point x="294" y="162"/>
      <point x="254" y="110"/>
      <point x="161" y="110" type="curve"/>
      <point x="116" y="110"/>
      <point x="79" y="117"/>
      <point x="47" y="135" type="curve"/>
      <point x="10" y="21" type="line"/>
      <point x="50" y="-3"/>
      <point x="108" y="-14"/>
    </contour>
  </outline>
</glyph>
<glyph name="Yu-cy" format="2">
  <advance width="868"/>
  <unicode hex="042E"/>
  <anchor x="434" y="693" name="top"/>
  <outline>
    <contour>
      <point x="566" y="-14" type="curve" smooth="yes"/>
      <point x="727" y="-14"/>
      <point x="819" y="117"/>
      <point x="819" y="346" type="curve" smooth="yes"/>
      <point x="819" y="576"/>
      <point x="728" y="707"/>
      <point x="566" y="707" type="curve" smooth="yes"/>
      <point x="423" y="707"/>
      <point x="334" y="603"/>
      <point x="316" y="420" type="curve"/>
      <point x="220" y="420" type="line"/>
      <point x="220" y="693" type="line"/>
      <point x="78" y="693" type="line"/>
      <point x="78" y="0" type="line"/>
      <point x="220" y="0" type="line"/>
      <point x="220" y="300" type="line"/>
      <point x="314" y="300" type="line"/>
      <point x="327" y="100"/>
      <point x="417" y="-14"/>
    </contour>
    <contour>
      <point x="566" y="110" type="curve" smooth="yes"/>
      <point x="494" y="110"/>
      <point x="463" y="184"/>
      <point x="463" y="348" type="curve" smooth="yes"/>
      <point x="463" y="511"/>
      <point x="494" y="583"/>
      <point x="566" y="583" type="curve" smooth="yes"/>
      <point x="638" y="583"/>
      <point x="669" y="511"/>
      <point x="669" y="346" type="curve" smooth="yes"/>
      <point x="669" y="182"/>
      <point x="638" y="110"/>
    </contour>
  </outline>
</glyph>
<glyph name="Ya-cy" format="2">
  <advance width="555"/>
  <unicode hex="042F"/>
  <anchor x="278" y="693" name="top"/>
  <outline>
    <contour>
      <point x="20" y="0" type="curve"/>
      <point x="162" y="0" type="line"/>
      <point x="185" y="80"/>
      <point x="216" y="156"/>
      <point x="268" y="256" type="curve"/>
      <point x="289" y="255"/>
      <point x="304" y="255"/>
      <point x="320" y="255" type="curve" smooth="yes"/>
      <point x="335" y="255" type="line"/>
      <point x="335" y="0" type="line"/>
      <point x="477" y="0" type="line"/>
      <point x="477" y="682" type="line"/>
      <point x="427" y="695"/>
      <point x="376" y="703"/>
      <point x="313" y="703" type="curve"/>
      <point x="153" y="703"/>
      <point x="68" y="627"/>
      <point x="68" y="479" type="curve" smooth="yes"/>
      <point x="68" y="415"/>
      <point x="88" y="359"/>
      <point x="146" y="300" type="curve"/>
      <point x="88" y="190"/>
      <point x="48" y="92"/>
    </contour>
    <contour>
      <point x="311" y="369" type="line"/>
      <point x="248" y="369"/>
      <point x="216" y="406"/>
      <point x="216" y="479" type="curve"/>
      <point x="216" y="547"/>
      <point x="246" y="581"/>
      <point x="307" y="581" type="curve"/>
      <point x="317" y="581"/>
      <point x="328" y="580"/>
      <point x="335" y="577" type="curve"/>
      <point x="335" y="369" type="line"/>
    </contour>
  </outline>
</glyph>
<glyph name="be-cy" format="2">
  <advance width="484"/>
  <unicode hex="0431"/>
  <outline>
    <contour>
      <point x="244" y="-14" type="curve" smooth="yes"/>
      <point x="359" y="-14"/>
      <point x="441" y="74"/>
      <point x="441" y="254" type="curve" smooth="yes"/>
      <point x="441" y="422"/>
      <point x="364" y="514"/>
      <point x="265" y="514" type="curve" smooth="yes"/>
      <point x="246" y="514"/>
      <point x="223" y="511"/>
      <point x="198" y="500" type="curve"/>
      <point x="215" y="589"/>
      <point x="261" y="625"/>
      <point x="308" y="637" type="curve" smooth="yes"/>
      <point x="347" y="647"/>
      <point x="383" y="649"/>
      <point x="421" y="659" type="curve"/>
      <point x="407" y="776" type="line"/>
      <point x="370" y="765"/>
      <point x="336" y="763"/>
      <point x="302" y="754" type="curve" smooth="yes"/>
      <point x="106" y="702"/>
      <point x="43" y="573"/>
      <point x="43" y="319" type="curve" smooth="yes"/>
      <point x="43" y="100"/>
      <point x="96" y="-14"/>
    </contour>
    <contour>
      <point x="243" y="105" type="curve" smooth="yes"/>
      <point x="195" y="105"/>
      <point x="187" y="154"/>
      <point x="187" y="284" type="curve" smooth="yes"/>
      <point x="187" y="303"/>
      <point x="187" y="335"/>
      <point x="191" y="380" type="curve"/>
      <point x="208" y="390"/>
      <point x="225" y="394"/>
      <point x="239" y="394" type="curve" smooth="yes"/>
      <point x="287" y="394"/>
      <point x="297" y="341"/>
      <point x="297" y="264" type="curve" smooth="yes"/>
      <point x="297" y="154"/>
      <point x="284" y="105"/>
    </contour>
  </outline>
</glyph>
<glyph name="ge-cy" format="2">
  <advance width="363"/>
  <unicode hex="0433"/>
  <anchor x="343" y="0" name="bottomright"/>
  <anchor x="182" y="532" name="top"/>
  <outline>
    <contour>
      <point x="69" y="0" type="line"/>
      <point x="207" y="0" type="line"/>
      <point x="207" y="415" type="line"/>
      <point x="355" y="415" type="line"/>
      <point x="355" y="532" type="line"/>
      <point x="69" y="532" type="line"/>
    </contour>
  </outline>
</glyph>
<glyph name="ze-cy" format="2">
  <advance width="407"/>
  <unicode hex="0437"/>
  <anchor x="204" y="0" name="bottom"/>
  <anchor x="204" y="532" name="top"/>
  <outline>
    <contour>
      <point x="165" y="-14" type="curve" smooth="yes"/>
      <point x="266" y="-14"/>
      <point x="373" y="12"/>
      <point x="373" y="143" type="curve" smooth="yes"/>
      <point x="373" y="194"/>
      <point x="349" y="245"/>
      <point x="293" y="275" type="curve"/>
      <point x="333" y="299"/>
      <point x="361" y="340"/>
      <point x="361" y="390" type="curve" smooth="yes"/>
      <point x="361" y="489"/>
      <point x="298" y="546"/>
      <point x="170" y="546" type="curve" smooth="yes"/>
      <point x="116" y="546"/>
      <point x="64" y="536"/>
      <point x="28" y="522" type="curve"/>
      <point x="48" y="411" type="line"/>
      <point x="87" y="423"/>
      <point x="123" y="431"/>
      <point x="153" y="431" type="curve" smooth="yes"/>
      <point x="192" y="431"/>
      <point x="223" y="416"/>
      <point x="223" y="378" type="curve" smooth="yes"/>
      <point x="223" y="332"/>
      <point x="188" y="327"/>
      <point x="160" y="327" type="curve" smooth="yes"/>
      <point x="87" y="327" type="line"/>
      <point x="87" y="218" type="line"/>
      <point x="162" y="218" type="line" smooth="yes"/>
      <point x="199" y="218"/>
      <point x="234" y="211"/>
      <point x="234" y="160" type="curve" smooth="yes"/>
      <point x="234" y="119"/>
      <point x="210" y="102"/>
      <point x="158" y="102" type="curve" smooth="yes"/>
      <point x="112" y="102"/>
      <point x="68" y="112"/>
      <point x="42" y="123" type="curve"/>
      <point x="18" y="17" type="line"/>
      <point x="52" y="0"/>
      <point x="104" y="-14"/>
    </contour>
  </outline>
</glyph>
<glyph name="Yat-cy" format="2">
  <advance width="579"/>
  <unicode hex="0462"/>
  <outline>
    <contour>
      <point x="292" y="-10" type="curve"/>
      <point x="446" y="-10"/>
      <point x="541" y="76"/>
      <point x="541" y="223" type="curve" smooth="yes"/>
      <point x="541" y="370"/>
      <point x="452" y="446"/>
      <point x="304" y="446" type="curve"/>
      <point x="292" y="446"/>
      <point x="279" y="446"/>
      <point x="267" y="446" type="curve"/>
      <point x="267" y="547" type="line"/>
      <point x="397" y="547" type="line"/>
      <point x="397" y="653" type="line"/>
      <point x="267" y="653" type="line"/>
      <point x="267" y="738" type="line"/>
      <point x="125" y="738" type="line"/>
      <point x="125" y="653" type="line"/>
      <point x="10" y="653" type="line"/>
      <point x="10" y="547" type="line"/>
      <point x="125" y="547" type="line"/>
      <point x="125" y="11" type="line"/>
      <point x="177" y="-2"/>
      <point x="243" y="-10"/>
    </contour>
    <contour>
      <point x="301" y="112" type="curve"/>
      <point x="290" y="112"/>
      <point x="277" y="113"/>
      <point x="267" y="115" type="curve"/>
      <point x="267" y="327" type="line"/>
      <point x="278" y="327"/>
      <point x="289" y="327"/>
      <point x="300" y="327" type="curve"/>
      <point x="366" y="327"/>
      <point x="393" y="289"/>
      <point x="393" y="223" type="curve" smooth="yes"/>
      <point x="393" y="146"/>
      <point x="365" y="112"/>
    </contour>
  </outline>
</glyph>
<glyph name="Semisoftsign-cy" format="2">
  <advance width="532"/>
  <unicode hex="048C"/>
  <outline>
    <contour>
      <point x="245" y="-10" type="curve"/>
      <point x="399" y="-10"/>
      <point x="494" y="76"/>
      <point x="494" y="223" type="curve" smooth="yes"/>
      <point x="494" y="371"/>
      <point x="405" y="447"/>
      <point x="257" y="447" type="curve"/>
      <point x="244" y="447"/>
      <point x="232" y="446"/>
      <point x="220" y="445" type="curve"/>
      <point x="220" y="524" type="line"/>
      <point x="314" y="524" type="line"/>
      <point x="314" y="623" type="line"/>
      <point x="220" y="623" type="line"/>
      <point x="220" y="693" type="line"/>
      <point x="78" y="693" type="line"/>
      <point x="78" y="623" type="line"/>
      <point x="10" y="623" type="line"/>
      <point x="10" y="524" type="line"/>
      <point x="78" y="524" type="line"/>
      <point x="78" y="11" type="line"/>
      <point x="130" y="-2"/>
      <point x="196" y="-10"/>
    </contour>
    <contour>
      <point x="254" y="112" type="curve"/>
      <point x="243" y="112"/>
      <point x="230" y="113"/>
      <point x="220" y="115" type="curve"/>
      <point x="220" y="326" type="line"/>
      <point x="229" y="327"/>
      <point x="242" y="328"/>
      <point x="253" y="328" type="curve"/>
      <point x="319" y="328"/>
      <point x="346" y="290"/>
      <point x="346" y="223" type="curve" smooth="yes"/>
      <point x="346" y="146"/>
      <point x="318" y="112"/>
    </contour>
  </outline>
</glyph>
<glyph name="Ertick-cy" format="2">
  <advance width="519"/>
  <unicode hex="048E"/>
  <outline>
    <contour>
      <point x="78" y="0" type="line"/>
      <point x="220" y="0" type="line"/>
      <point x="220" y="239" type="line"/>
      <point x="247" y="239" type="line" smooth="yes"/>
      <point x="274" y="239"/>
      <point x="300" y="242"/>
      <point x="324" y="248" type="curve"/>
      <point x="361" y="164" type="line"/>
      <point x="433" y="195" type="line"/>
      <point x="397" y="277" type="line"/>
      <point x="461" y="317"/>
      <point x="499" y="385"/>
      <point x="499" y="472" type="curve" smooth="yes"/>
      <point x="499" y="619"/>
      <point x="405" y="703"/>
      <point x="242" y="703" type="curve"/>
      <point x="186" y="703"/>
      <point x="136" y="697"/>
      <point x="78" y="683" type="curve"/>
    </contour>
    <contour>
      <point x="220" y="359" type="line"/>
      <point x="220" y="577" type="line"/>
      <point x="227" y="580"/>
      <point x="239" y="581"/>
      <point x="248" y="581" type="curve" smooth="yes"/>
      <point x="320" y="581"/>
      <point x="356" y="546"/>
      <point x="356" y="472" type="curve" smooth="yes"/>
      <point x="356" y="442"/>
      <point x="351" y="419"/>
      <point x="341" y="402" type="curve"/>
      <point x="308" y="477" type="line"/>
      <point x="236" y="446" type="line"/>
      <point x="274" y="361" type="line"/>
      <point x="265" y="360"/>
      <point x="255" y="359"/>
      <point x="245" y="359" type="curve" smooth="yes"/>
    </contour>
  </outline>
</glyph>
<glyph name="gemiddlehook-cy" format="2">
  <advance width="459"/>
  <unicode hex="0495"/>
  <outline>
    <contour>
      <point x="251" y="-186" type="curve" smooth="yes"/>
      <point x="355" y="-186"/>
      <point x="429" y="-110"/>
      <point x="429" y="76" type="curve" smooth="yes"/>
      <point x="429" y="248"/>
      <point x="358" y="327"/>
      <point x="258" y="327" type="curve" smooth="yes"/>
      <point x="241" y="327"/>
      <point x="223" y="325"/>
      <point x="207" y="321" type="curve"/>
      <point x="207" y="415" type="line"/>
      <point x="363" y="415" type="line"/>
      <point x="363" y="532" type="line"/>
      <point x="69" y="532" type="line"/>
      <point x="69" y="0" type="line"/>
      <point x="207" y="0" type="line"/>
      <point x="207" y="213" type="line"/>
      <point x="217" y="215"/>
      <point x="224" y="216"/>
      <point x="232" y="216" type="curve" smooth="yes"/>
      <point x="272" y="216"/>
      <point x="298" y="184"/>
      <point x="298" y="73" type="curve" smooth="yes"/>
      <point x="298" y="-43"/>
      <point x="280" y="-76"/>
      <point x="240" y="-76" type="curve" smooth="yes"/>
      <point x="232" y="-76"/>
      <point x="220" y="-75"/>
      <point x="213" y="-74" type="curve"/>
      <point x="208" y="-183" type="line"/>
      <point x="222" y="-185"/>
      <point x="237" y="-186"/>
    </contour>
  </outline>
</glyph>
<glyph name="Zhedescender-cy" format="2">
  <advance width="796"/>
  <unicode hex="0496"/>
  <outline>
    <contour>
      <point x="643" y="-185" type="line"/>
      <point x="778" y="-185" type="line"/>
      <point x="778" y="118" type="line"/>
      <point x="695" y="118" type="line"/>
      <point x="655" y="211"/>
      <point x="607" y="301"/>
      <point x="565" y="359" type="curve"/>
      <point x="620" y="465"/>
      <point x="678" y="579"/>
      <point x="720" y="693" type="curve"/>
      <point x="578" y="693" type="line"/>
      <point x="548" y="601"/>
      <point x="499" y="493"/>
      <point x="447" y="395" type="curve"/>
      <point x="447" y="693" type="line"/>
      <point x="305" y="693" type="line"/>
      <point x="305" y="395" type="line"/>
      <point x="253" y="493"/>
      <point x="204" y="601"/>
      <point x="174" y="693" type="curve"/>
      <point x="32" y="693" type="line"/>
      <point x="74" y="579"/>
      <point x="132" y="465"/>
      <point x="187" y="359" type="curve"/>
      <point x="127" y="277"/>
      <point x="55" y="128"/>
      <point x="10" y="0" type="curve"/>
      <point x="161" y="0" type="line"/>
      <point x="192" y="103"/>
      <point x="260" y="240"/>
      <point x="305" y="296" type="curve"/>
      <point x="305" y="0" type="line"/>
      <point x="447" y="0" type="line"/>
      <point x="447" y="296" type="line"/>
      <point x="492" y="240"/>
      <point x="560" y="103"/>
      <point x="591" y="0" type="curve"/>
      <point x="643" y="0" type="line"/>
    </contour>
  </outline>
</glyph>
<glyph name="Kaverticalstroke-cy" format="2">
  <advance width="644"/>
  <unicode hex="049C"/>
  <outline>
    <contour>
      <point x="78" y="0" type="line"/>
      <point x="220" y="0" type="line"/>
      <point x="220" y="305" type="line"/>
      <point x="259" y="305" type="line"/>
      <point x="259" y="163" type="line"/>
      <point x="343" y="163" type="line"/>
      <point x="343" y="308" type="line"/>
      <point x="391" y="234"/>
      <point x="453" y="98"/>
      <point x="483" y="0" type="curve"/>
      <point x="634" y="0" type="line"/>
      <point x="592" y="118"/>
      <point x="530" y="259"/>
      <point x="457" y="365" type="curve"/>
      <point x="521" y="482"/>
      <point x="574" y="588"/>
      <point x="612" y="693" type="curve"/>
      <point x="470" y="693" type="line"/>
      <point x="441" y="605"/>
      <point x="396" y="503"/>
      <point x="343" y="410" type="curve"/>
      <point x="343" y="547" type="line"/>
      <point x="259" y="547" type="line"/>
      <point x="259" y="413" type="line"/>
      <point x="220" y="413" type="line"/>
      <point x="220" y="693" type="line"/>
      <point x="78" y="693" type="line"/>
    </contour>
  </outline>
</glyph>
<glyph name="kastroke-cy" format="2">
  <advance width="470"/>
  <unicode hex="049F"/>
  <outline>
    <contour>
      <point x="71" y="0" type="line"/>
      <point x="209" y="0" type="line"/>
      <point x="209" y="229" type="line"/>
      <point x="262" y="154"/>
      <point x="302" y="75"/>
      <point x="321" y="0" type="curve"/>
      <point x="467" y="0" type="line"/>
      <point x="441" y="94"/>
      <point x="390" y="194"/>
      <point x="327" y="277" type="curve"/>
      <point x="380" y="361"/>
      <point x="433" y="458"/>
      <point x="467" y="532" type="curve"/>
      <point x="321" y="532" type="line"/>
      <point x="298" y="479"/>
      <point x="250" y="385"/>
      <point x="209" y="314" type="curve"/>
      <point x="209" y="620" type="line"/>
      <point x="284" y="620" type="line"/>
      <point x="284" y="697" type="line"/>
      <point x="209" y="697" type="line"/>
      <point x="209" y="776" type="line"/>
      <point x="71" y="754" type="line"/>
      <point x="71" y="697" type="line"/>
      <point x="11" y="697" type="line"/>
      <point x="11" y="620" type="line"/>
      <point x="71" y="620" type="line"/>
    </contour>
  </outline>
</glyph>
<glyph name="Kabashkir-cy" format="2">
  <advance width="597"/>
  <unicode hex="04A0"/>
  <outline>
    <contour>
      <point x="130" y="0" type="line"/>
      <point x="272" y="0" type="line"/>
      <point x="272" y="296" type="line"/>
      <point x="335" y="233"/>
      <point x="403" y="110"/>
      <point x="436" y="0" type="curve"/>
      <point x="587" y="0" type="line"/>
      <point x="539" y="134"/>
      <point x="465" y="271"/>
      <point x="394" y="359" type="curve"/>
      <point x="458" y="469"/>
      <point x="524" y="598"/>
      <point x="565" y="693" type="curve"/>
      <point x="423" y="693" type="line"/>
      <point x="389" y="611"/>
      <point x="328" y="489"/>
      <point x="272" y="395" type="curve"/>
      <point x="272" y="693" type="line"/>
      <point x="15" y="693" type="line"/>
      <point x="15" y="574" type="line"/>
      <point x="130" y="574" type="line"/>
    </contour>
  </outline>
</glyph>
<glyph name="Endescender-cy" format="2">
  <advance width="638"/>
  <unicode hex="04A2"/>
  <outline>
    <contour>
      <point x="485" y="-185" type="line"/>
      <point x="620" y="-185" type="line"/>
      <point x="620" y="119" type="line"/>
      <point x="520" y="119" type="line"/>
      <point x="520" y="693" type="line"/>
      <point x="378" y="693" type="line"/>
      <point x="378" y="420" type="line"/>
      <point x="220" y="420" type="line"/>
      <point x="220" y="693" type="line"/>
      <point x="78" y="693" type="line"/>
      <point x="78" y="0" type="line"/>
      <point x="220" y="0" type="line"/>
      <point x="220" y="300" type="line"/>
      <point x="378" y="300" type="line"/>
      <point x="378" y="0" type="line"/>
      <point x="485" y="0" type="line"/>
    </contour>
  </outline>
</glyph>
<glyph name="ustraight-cy" format="2">
  <advance width="432"/>
  <unicode hex="04AF"/>
  <outline>
    <contour>
      <point x="147" y="-185" type="line"/>
      <point x="285" y="-185" type="line"/>
      <point x="285" y="-2" type="line"/>
      <point x="327" y="135"/>
      <point x="381" y="324"/>
      <point x="422" y="532" type="curve"/>
      <point x="281" y="532" type="line"/>
      <point x="269" y="430"/>
      <point x="242" y="278"/>
      <point x="218" y="172" type="curve"/>
      <point x="195" y="278"/>
      <point x="168" y="431"/>
      <point x="155" y="532" type="curve"/>
      <point x="10" y="532" type="line"/>
      <point x="51" y="326"/>
      <point x="104" y="138"/>
      <point x="147" y="-2" type="curve"/>
    </contour>
  </outline>
</glyph>
<glyph name="Hadescender-cy" format="2">
  <advance width="556"/>
  <unicode hex="04B2"/>
  <outline>
    <contour>
      <point x="403" y="-185" type="line"/>
      <point x="538" y="-185" type="line"/>
      <point x="538" y="119" type="line"/>
      <point x="442" y="119" type="line"/>
      <point x="416" y="188"/>
      <point x="382" y="266"/>
      <point x="338" y="364" type="curve"/>
      <point x="473" y="693" type="line"/>
      <point x="326" y="693" type="line"/>
      <point x="248" y="451" type="line"/>
      <point x="168" y="693" type="line"/>
      <point x="17" y="693" type="line"/>
      <point x="152" y="358" type="line"/>
      <point x="80" y="201"/>
      <point x="36" y="94"/>
      <point x="6" y="0" type="curve"/>
      <point x="148" y="0" type="line"/>
      <point x="172" y="81"/>
      <point x="197" y="147"/>
      <point x="243" y="254" type="curve"/>
      <point x="289" y="147"/>
      <point x="314" y="81"/>
      <point x="338" y="0" type="curve"/>
      <point x="403" y="0" type="line"/>
    </contour>
  </outline>
</glyph>
<glyph name="Cheverticalstroke-cy" format="2">
  <advance width="554"/>
  <unicode hex="04B8"/>
  <outline>
    <contour>
      <point x="334" y="0" type="line"/>
      <point x="476" y="0" type="line"/>
      <point x="476" y="693" type="line"/>
      <point x="334" y="693" type="line"/>
      <point x="334" y="351" type="line"/>
      <point x="323" y="348"/>
      <point x="312" y="346"/>
      <point x="301" y="345" type="curve"/>
      <point x="301" y="466" type="line"/>
      <point x="212" y="466" type="line"/>
      <point x="212" y="349" type="line"/>
      <point x="182" y="358"/>
      <point x="179" y="381"/>
      <point x="179" y="432" type="curve" smooth="yes"/>
      <point x="179" y="693" type="line"/>
      <point x="38" y="693" type="line"/>
      <point x="38" y="434" type="line" smooth="yes"/>
      <point x="38" y="293"/>
      <point x="114" y="238"/>
      <point x="212" y="227" type="curve"/>
      <point x="212" y="114" type="line"/>
      <point x="301" y="114" type="line"/>
      <point x="301" y="227" type="line"/>
      <point x="313" y="228"/>
      <point x="324" y="231"/>
      <point x="334" y="234" type="curve"/>
    </contour>
  </outline>
</glyph>
<glyph name="Chedescenderabkhasian-cy" format="2">
  <advance width="699"/>
  <unicode hex="04BE"/>
  <outline>
    <contour>
      <point x="345" y="-185" type="line"/>
      <point x="480" y="-185" type="line"/>
      <point x="480" y="-12" type="line"/>
      <point x="534" y="-7"/>
      <point x="587" y="13"/>
      <point x="623" y="37" type="curve"/>
      <point x="587" y="147" type="line"/>
      <point x="553" y="124"/>
      <point x="511" y="110"/>
      <point x="462" y="110" type="curve"/>
      <point x="377" y="110"/>
      <point x="335" y="157"/>
      <point x="327" y="300" type="curve"/>
      <point x="645" y="300" type="line"/>
      <point x="648" y="325"/>
      <point x="650" y="355"/>
      <point x="650" y="378" type="curve" smooth="yes"/>
      <point x="650" y="580"/>
      <point x="573" y="707"/>
      <point x="414" y="707" type="curve" smooth="yes"/>
      <point x="288" y="707"/>
      <point x="197" y="601"/>
      <point x="179" y="420" type="curve"/>
      <point x="140" y="426"/>
      <point x="122" y="447"/>
      <point x="122" y="479" type="curve" smooth="yes"/>
      <point x="122" y="490"/>
      <point x="123" y="504"/>
      <point x="125" y="516" type="curve"/>
      <point x="17" y="530" type="line"/>
      <point x="12" y="515"/>
      <point x="7" y="488"/>
      <point x="7" y="463" type="curve" smooth="yes"/>
      <point x="7" y="371"/>
      <point x="74" y="315"/>
      <point x="177" y="304" type="curve"/>
      <point x="186" y="163"/>
      <point x="234" y="47"/>
      <point x="345" y="4" type="curve"/>
    </contour>
    <contour>
      <point x="328" y="415" type="line"/>
      <point x="335" y="533"/>
      <point x="366" y="585"/>
      <point x="416" y="585" type="curve" smooth="yes"/>
      <point x="466" y="585"/>
      <point x="501" y="536"/>
      <point x="501" y="415" type="curve"/>
    </contour>
  </outline>
</glyph>
<glyph name="eltail-cy" format="2">
  <advance width="547"/>
  <unicode hex="04C6"/>
  <outline>
    <contour>
      <point x="431" y="-156" type="line"/>
      <point x="497" y="-99"/>
      <point x="537" y="-7"/>
      <point x="537" y="113" type="curve"/>
      <point x="460" y="113" type="line"/>
      <point x="460" y="532" type="line"/>
      <point x="131" y="532" type="line"/>
      <point x="131" y="472" type="line" smooth="yes"/>
      <point x="131" y="378"/>
      <point x="131" y="258"/>
      <point x="106" y="191" type="curve" smooth="yes"/>
      <point x="90" y="149"/>
      <point x="66" y="115"/>
      <point x="6" y="107" type="curve"/>
      <point x="24" y="-10" type="line"/>
      <point x="153" y="0"/>
      <point x="204" y="71"/>
      <point x="232" y="156" type="curve" smooth="yes"/>
      <point x="254" y="224"/>
      <point x="262" y="311"/>
      <point x="264" y="384" type="curve" smooth="yes"/>
      <point x="265" y="415" type="line"/>
      <point x="322" y="415" type="line"/>
      <point x="322" y="0" type="line"/>
      <point x="410" y="0" type="line"/>
      <point x="396" y="-46"/>
      <point x="374" y="-73"/>
      <point x="345" y="-103" type="curve"/>
    </contour>
  </outline>
</glyph>
<glyph name="Enhook-cy" format="2">
  <advance width="598"/>
  <unicode hex="04C7"/>
  <outline>
    <contour>
      <point x="355" y="-188" type="curve" smooth="yes"/>
      <point x="469" y="-188"/>
      <point x="520" y="-105"/>
      <point x="520" y="-2" type="curve"/>
      <point x="520" y="693" type="line"/>
      <point x="378" y="693" type="line"/>
      <point x="378" y="420" type="line"/>
      <point x="220" y="420" type="line"/>
      <point x="220" y="693" type="line"/>
      <point x="78" y="693" type="line"/>
      <point x="78" y="0" type="line"/>
      <point x="220" y="0" type="line"/>
      <point x="220" y="300" type="line"/>
      <point x="378" y="300" type="line"/>
      <point x="378" y="-18" type="line"/>
      <point x="378" y="-54"/>
      <point x="368" y="-68"/>
      <point x="338" y="-68" type="curve"/>
      <point x="327" y="-68"/>
      <point x="314" y="-66"/>
      <point x="304" y="-63" type="curve"/>
      <point x="285" y="-176" type="line"/>
      <point x="307" y="-185"/>
      <point x="331" y="-188"/>
    </contour>
  </outline>
</glyph>
<glyph name="enhook-cy" format="2">
  <advance width="511"/>
  <unicode hex="04C8"/>
  <outline>
    <contour>
      <point x="288" y="-185" type="curve" smooth="yes"/>
      <point x="394" y="-185"/>
      <point x="442" y="-122"/>
      <point x="442" y="-18" type="curve"/>
      <point x="442" y="532" type="line"/>
      <point x="304" y="532" type="line"/>
      <point x="304" y="331" type="line"/>
      <point x="207" y="331" type="line"/>
      <point x="207" y="532" type="line"/>
      <point x="69" y="532" type="line"/>
      <point x="69" y="0" type="line"/>
      <point x="207" y="0" type="line"/>
      <point x="207" y="214" type="line"/>
      <point x="304" y="214" type="line"/>
      <point x="304" y="-18" type="line"/>
      <point x="304" y="-54"/>
      <point x="297" y="-68"/>
      <point x="275" y="-68" type="curve"/>
      <point x="264" y="-68"/>
      <point x="252" y="-66"/>
      <point x="244" y="-63" type="curve"/>
      <point x="225" y="-173" type="line"/>
      <point x="246" y="-180"/>
      <point x="267" y="-185"/>
    </contour>
  </outline>
</glyph>
<glyph name="Entail-cy" format="2">
  <advance width="638"/>
  <unicode hex="04C9"/>
  <outline>
    <contour>
      <point x="493" y="-190" type="line"/>
      <point x="587" y="-91"/>
      <point x="620" y="14.995"/>
      <point x="620" y="120" type="curve"/>
      <point x="520" y="120" type="line"/>
      <point x="520" y="693" type="line"/>
      <point x="378" y="693" type="line"/>
      <point x="378" y="420" type="line"/>
      <point x="220" y="420" type="line"/>
      <point x="220" y="693" type="line"/>
      <point x="78" y="693" type="line"/>
      <point x="78" y="0" type="line"/>
      <point x="220" y="0" type="line"/>
      <point x="220" y="300" type="line"/>
      <point x="378" y="300" type="line"/>
      <point x="378" y="0" type="line"/>
      <point x="468" y="0" type="line"/>
      <point x="454" y="-48"/>
      <point x="429" y="-96"/>
      <point x="397" y="-131" type="curve"/>
    </contour>
  </outline>
</glyph>
<glyph name="entail-cy" format="2">
  <advance width="529"/>
  <unicode hex="04CA"/>
  <outline>
    <contour>
      <point x="413" y="-156" type="line"/>
      <point x="479" y="-99"/>
      <point x="519" y="-7"/>
      <point x="519" y="113" type="curve"/>
      <point x="442" y="113" type="line"/>
      <point x="442" y="532" type="line"/>
      <point x="304" y="532" type="line"/>
      <point x="304" y="331" type="line"/>
      <point x="207" y="331" type="line"/>
      <point x="207" y="532" type="line"/>
      <point x="69" y="532" type="line"/>
      <point x="69" y="0" type="line"/>
      <point x="207" y="0" type="line"/>
      <point x="207" y="214" type="line"/>
      <point x="304" y="214" type="line"/>
      <point x="304" y="0" type="line"/>
      <point x="392" y="0" type="line"/>
      <point x="378" y="-46"/>
      <point x="356" y="-73"/>
      <point x="327" y="-103" type="curve"/>
    </contour>
  </outline>
</glyph>
<glyph name="obarred-cy" format="2">
  <advance width="486"/>
  <unicode hex="04E9"/>
  <anchor x="243" y="532" name="top"/>
  <outline>
    <contour>
      <point x="243" y="-14" type="curve" smooth="yes"/>
      <point x="370" y="-14"/>
      <point x="443" y="88"/>
      <point x="443" y="266" type="curve" smooth="yes"/>
      <point x="443" y="444"/>
      <point x="370" y="546"/>
      <point x="243" y="546" type="curve" smooth="yes"/>
      <point x="116" y="546"/>
      <point x="43" y="444"/>
      <point x="43" y="266" type="curve" smooth="yes"/>
      <point x="43" y="88"/>
      <point x="116" y="-14"/>
    </contour>
    <contour>
      <point x="243" y="100" type="curve" smooth="yes"/>
      <point x="205" y="100"/>
      <point x="187" y="135"/>
      <point x="183" y="223" type="curve"/>
      <point x="303" y="223" type="line"/>
      <point x="299" y="134"/>
      <point x="282" y="100"/>
    </contour>
    <contour>
      <point x="183" y="308" type="line"/>
      <point x="187" y="397"/>
      <point x="205" y="432"/>
      <point x="243" y="432" type="curve" smooth="yes"/>
      <point x="281" y="432"/>
      <point x="299" y="397"/>
      <point x="303" y="308" type="curve"/>
    </contour>
  </outline>
</glyph>
<glyph name="prosgegrammeni" format="2">
  <advance width="125"/>
  <unicode hex="1FBE"/>
  <anchor x="24" y="0" name="_bottom"/>
  <outline>
    <contour>
      <point x="90" y="-206" type="curve" smooth="yes"/>
      <point x="109" y="-206"/>
      <point x="124" y="-204"/>
      <point x="136" y="-200" type="curve"/>
      <point x="136" y="-123" type="line"/>
      <point x="94" y="-123"/>
      <point x="84" y="-107"/>
      <point x="84" y="-74" type="curve" smooth="yes"/>
      <point x="84" y="-50" type="line"/>
      <point x="-33" y="-50" type="line"/>
      <point x="-35" y="-61"/>
      <point x="-35" y="-71"/>
      <point x="-35" y="-79" type="curve" smooth="yes"/>
      <point x="-35" y="-173"/>
      <point x="27" y="-206"/>
    </contour>
  </outline>
</glyph>
<glyph name="perispomeni" format="2">
  <advance width="314"/>
  <unicode hex="1FC0"/>
  <anchor x="157" y="532" name="_top"/>
  <outline>
    <contour>
      <point x="25" y="607" type="curve"/>
      <point x="111" y="607" type="line"/>
      <point x="111" y="649"/>
      <point x="126" y="671"/>
      <point x="157" y="671" type="curve" smooth="yes"/>
      <point x="188" y="671"/>
      <point x="203" y="649"/>
      <point x="203" y="607" type="curve"/>
      <point x="289" y="607" type="line"/>
      <point x="289" y="700"/>
      <point x="237" y="760"/>
      <point x="157" y="760" type="curve" smooth="yes"/>
      <point x="77" y="760"/>
      <point x="25" y="700"/>
    </contour>
  </outline>
</glyph>
<glyph name="psilivaria" format="2">
  <advance width="213"/>
  <unicode hex="1FCD"/>
  <anchor x="213" y="532" name="_top"/>
  <outline>
    <contour>
      <point x="310" y="576" type="line"/>
      <point x="379" y="611" type="line"/>
      <point x="294" y="806" type="line"/>
      <point x="203" y="762" type="line"/>
    </contour>
    <contour>
      <point x="80" y="570" type="line"/>
      <point x="134" y="614"/>
      <point x="187" y="671"/>
      <point x="187" y="736" type="curve" smooth="yes"/>
      <point x="187" y="783"/>
      <point x="160" y="807"/>
      <point x="123" y="807" type="curve" smooth="yes"/>
      <point x="88" y="807"/>
      <point x="61" y="782"/>
      <point x="61" y="745" type="curve" smooth="yes"/>
      <point x="61" y="720"/>
      <point x="75" y="696"/>
      <point x="100" y="685" type="curve"/>
      <point x="84" y="662"/>
      <point x="63" y="636"/>
      <point x="39" y="611" type="curve"/>
    </contour>
  </outline>
</glyph>
<glyph name="psiliperispomeni" format="2">
  <advance width="314"/>
  <unicode hex="1FCF"/>
  <anchor x="157" y="532" name="_top"/>
  <outline>
    <contour>
      <point x="25" y="765" type="curve"/>
      <point x="103" y="765" type="line"/>
      <point x="103" y="806"/>
      <point x="121" y="827"/>
      <point x="157" y="827" type="curve" smooth="yes"/>
      <point x="193" y="827"/>
      <point x="211" y="806"/>
      <point x="211" y="765" type="curve"/>
      <point x="289" y="765" type="line"/>
      <point x="289" y="849"/>
      <point x="237" y="902"/>
      <point x="157" y="902" type="curve" smooth="yes"/>
      <point x="77" y="902"/>
      <point x="25" y="849"/>
    </contour>
    <contour>
      <point x="122" y="579" type="line"/>
      <point x="171" y="615"/>
      <point x="210" y="659"/>
      <point x="210" y="711" type="curve" smooth="yes"/>
      <point x="210" y="750"/>
      <point x="187" y="769"/>
      <point x="154" y="769" type="curve" smooth="yes"/>
      <point x="125" y="769"/>
      <point x="103" y="750"/>
      <point x="103" y="718" type="curve" smooth="yes"/>
      <point x="103" y="696"/>
      <point x="114" y="677"/>
      <point x="132" y="670" type="curve"/>
      <point x="122" y="651"/>
      <point x="105" y="633"/>
      <point x="85" y="616" type="curve"/>
    </contour>
  </outline>
</glyph>
<glyph name="dasiavaria" format="2">
  <advance width="176"/>
  <unicode hex="1FDD"/>
  <anchor x="176" y="532" name="_top"/>
  <outline>
    <contour>
      <point x="251" y="576" type="line"/>
      <point x="320" y="611" type="line"/>
      <point x="235" y="806" type="line"/>
      <point x="144" y="762" type="line"/>
    </contour>
    <contour>
      <point x="101" y="570" type="curve"/>
      <point x="142" y="606" type="line"/>
      <point x="118" y="631"/>
      <point x="97" y="662"/>
      <point x="81" y="685" type="curve"/>
      <point x="106" y="696"/>
      <point x="120" y="720"/>
      <point x="120" y="745" type="curve" smooth="yes"/>
      <point x="120" y="782"/>
      <point x="93" y="807"/>
      <point x="58" y="807" type="curve" smooth="yes"/>
      <point x="21" y="807"/>
      <point x="-6" y="783"/>
      <point x="-6" y="736" type="curve" smooth="yes"/>
      <point x="-6" y="671"/>
      <point x="47" y="614"/>
    </contour>
  </outline>
</glyph>
<glyph name="dasiaperispomeni" format="2">
  <advance width="314"/>
  <unicode hex="1FDF"/>
  <anchor x="157" y="532" name="_top"/>
  <outline>
    <contour>
      <point x="25" y="765" type="curve"/>
      <point x="103" y="765" type="line"/>
      <point x="103" y="806"/>
      <point x="121" y="827"/>
      <point x="157" y="827" type="curve" smooth="yes"/>
      <point x="193" y="827"/>
      <point x="211" y="806"/>
      <point x="211" y="765" type="curve"/>
      <point x="289" y="765" type="line"/>
      <point x="289" y="849"/>
      <point x="237" y="902"/>
      <point x="157" y="902" type="curve" smooth="yes"/>
      <point x="77" y="902"/>
      <point x="25" y="849"/>
    </contour>
    <contour>
      <point x="192" y="579" type="curve"/>
      <point x="229" y="616" type="line"/>
      <point x="209" y="633"/>
      <point x="192" y="651"/>
      <point x="182" y="670" type="curve"/>
      <point x="200" y="677"/>
      <point x="211" y="696"/>
      <point x="211" y="718" type="curve" smooth="yes"/>
      <point x="211" y="750"/>
      <point x="189" y="769"/>
      <point x="160" y="769" type="curve" smooth="yes"/>
      <point x="127" y="769"/>
      <point x="104" y="750"/>
      <point x="104" y="711" type="curve" smooth="yes"/>
      <point x="104" y="659"/>
      <point x="143" y="615"/>
    </contour>
  </outline>
</glyph>
<glyph name="oxia" format="2">
  <advance width="316"/>
  <unicode hex="1FFD"/>
  <anchor x="141" y="532" name="_top"/>
  <outline>
    <contour>
      <point x="89" y="573" type="line"/>
      <point x="280" y="692" type="line"/>
      <point x="206" y="785" type="line"/>
      <point x="35" y="644" type="line"/>
    </contour>
  </outline>
</glyph>
<glyph name="quoteleft" format="2">
  <advance width="218"/>
  <unicode hex="2018"/>
  <outline>
    <contour>
      <point x="39" y="497" type="curve"/>
      <point x="169" y="497" type="line"/>
      <point x="168" y="510"/>
      <point x="166" y="537"/>
      <point x="166" y="551" type="curve" smooth="yes"/>
      <point x="166" y="621"/>
      <point x="180" y="692"/>
      <point x="203" y="739" type="curve"/>
      <point x="112" y="765" type="line"/>
      <point x="64" y="701"/>
      <point x="35" y="620"/>
      <point x="35" y="548" type="curve" smooth="yes"/>
      <point x="35" y="532"/>
      <point x="36" y="513"/>
    </contour>
  </outline>
</glyph>
<glyph name="quoteright" format="2">
  <advance width="218"/>
  <unicode hex="2019"/>
  <outline>
    <contour>
      <point x="106" y="497" type="line"/>
      <point x="154" y="561"/>
      <point x="183" y="642"/>
      <point x="183" y="714" type="curve" smooth="yes"/>
      <point x="183" y="730"/>
      <point x="182" y="749"/>
      <point x="179" y="765" type="curve"/>
      <point x="49" y="765" type="line"/>
      <point x="50" y="752"/>
      <point x="52" y="725"/>
      <point x="52" y="711" type="curve" smooth="yes"/>
      <point x="52" y="641"/>
      <point x="38" y="570"/>
      <point x="15" y="523" type="curve"/>
    </contour>
  </outline>
</glyph>
<glyph name="quotesinglbase" format="2">
  <advance width="218"/>
  <unicode hex="201A"/>
  <outline>
    <contour>
      <point x="106" y="-123" type="line"/>
      <point x="154" y="-59"/>
      <point x="183" y="22"/>
      <point x="183" y="94" type="curve" smooth="yes"/>
      <point x="183" y="110"/>
      <point x="182" y="129"/>
      <point x="179" y="145" type="curve"/>
      <point x="49" y="145" type="line"/>
      <point x="50" y="132"/>
      <point x="52" y="105"/>
      <point x="52" y="91" type="curve" smooth="yes"/>
      <point x="52" y="21"/>
      <point x="38" y="-50"/>
      <point x="15" y="-97" type="curve"/>
    </contour>
  </outline>
</glyph>
<glyph name="quotedblright" format="2">
  <advance width="396"/>
  <unicode hex="201D"/>
  <outline>
    <contour>
      <point x="102" y="497" type="line"/>
      <point x="150" y="561"/>
      <point x="179" y="642"/>
      <point x="179" y="714" type="curve" smooth="yes"/>
      <point x="179" y="730"/>
      <point x="178" y="749"/>
      <point x="175" y="765" type="curve"/>
      <point x="49" y="765" type="line"/>
      <point x="50" y="752"/>
      <point x="52" y="725"/>
      <point x="52" y="711" type="curve" smooth="yes"/>
      <point x="52" y="641"/>
      <point x="38" y="570"/>
      <point x="15" y="523" type="curve"/>
    </contour>
    <contour>
      <point x="284" y="497" type="line"/>
      <point x="332" y="561"/>
      <point x="361" y="642"/>
      <point x="361" y="714" type="curve" smooth="yes"/>
      <point x="361" y="730"/>
      <point x="360" y="749"/>
      <point x="357" y="765" type="curve"/>
      <point x="231" y="765" type="line"/>
      <point x="232" y="752"/>
      <point x="234" y="725"/>
      <point x="234" y="711" type="curve" smooth="yes"/>
      <point x="234" y="641"/>
      <point x="220" y="570"/>
      <point x="197" y="523" type="curve"/>
    </contour>
  </outline>
</glyph>
<glyph name="dagger" format="2">
  <advance width="396"/>
  <unicode hex="2020"/>
  <outline>
    <contour>
      <point x="157" y="-145" type="curve"/>
      <point x="239" y="-145" type="line"/>
      <point x="250" y="-49"/>
      <point x="254" y="36"/>
      <point x="254" y="146" type="curve" smooth="yes"/>
      <point x="254" y="382" type="line"/>
      <point x="369" y="382" type="line"/>
      <point x="369" y="488" type="line"/>
      <point x="254" y="488" type="line"/>
      <point x="254" y="693" type="line"/>
      <point x="142" y="693" type="line"/>
      <point x="142" y="488" type="line"/>
      <point x="27" y="488" type="line"/>
      <point x="27" y="382" type="line"/>
      <point x="142" y="382" type="line"/>
      <point x="142" y="146" type="line" smooth="yes"/>
      <point x="142" y="37"/>
      <point x="148" y="-50"/>
    </contour>
  </outline>
</glyph>
<glyph name="tenge" format="2">
  <advance width="420"/>
  <unicode hex="20B8"/>
  <outline>
    <contour>
      <point x="140" y="0" type="line"/>
      <point x="280" y="0" type="line"/>
      <point x="280" y="394" type="line"/>
      <point x="404" y="394" type="line"/>
      <point x="404" y="507" type="line"/>
      <point x="16" y="507" type="line"/>
      <point x="16" y="394" type="line"/>
      <point x="140" y="394" type="line"/>
    </contour>
    <contour>
      <point x="16" y="580" type="line"/>
      <point x="404" y="580" type="line"/>
      <point x="404" y="693" type="line"/>
      <point x="16" y="693" type="line"/>
    </contour>
  </outline>
</glyph>
<glyph name="ruble" format="2">
  <advance width="420"/>
  <unicode hex="20BD"/>
  <outline>
    <contour>
      <point x="68" y="0" type="line"/>
      <point x="200" y="0" type="line"/>
      <point x="200" y="95" type="line"/>
      <point x="309" y="95" type="line"/>
      <point x="309" y="196" type="line"/>
      <point x="200" y="196" type="line"/>
      <point x="200" y="255" type="line"/>
      <point x="202" y="255" type="line" smooth="yes"/>
      <point x="337" y="255"/>
      <point x="418" y="341"/>
      <point x="418" y="486" type="curve" smooth="yes"/>
      <point x="418" y="619"/>
      <point x="345" y="702"/>
      <point x="227" y="702" type="curve" smooth="yes"/>
      <point x="174" y="702"/>
      <point x="124" y="695"/>
      <point x="68" y="679" type="curve"/>
      <point x="68" y="363" type="line"/>
      <point x="2" y="363" type="line"/>
      <point x="2" y="262" type="line"/>
      <point x="68" y="262" type="line"/>
      <point x="68" y="196" type="line"/>
      <point x="2" y="196" type="line"/>
      <point x="2" y="95" type="line"/>
      <point x="68" y="95" type="line"/>
    </contour>
    <contour>
      <point x="200" y="368" type="line"/>
      <point x="200" y="581" type="line"/>
      <point x="209" y="583"/>
      <point x="213" y="584"/>
      <point x="222" y="584" type="curve" smooth="yes"/>
      <point x="256" y="584"/>
      <point x="277" y="548"/>
      <point x="277" y="487" type="curve" smooth="yes"/>
      <point x="277" y="401"/>
      <point x="256" y="368"/>
      <point x="203" y="368" type="curve" smooth="yes"/>
    </contour>
  </outline>
</glyph>
<glyph name="trademark" format="2">
  <advance width="644"/>
  <unicode hex="2122"/>
  <outline>
    <contour>
      <point x="286" y="364" type="curve"/>
      <point x="371" y="364" type="line"/>
      <point x="372" y="425"/>
      <point x="375" y="487"/>
      <point x="378" y="548" type="curve"/>
      <point x="392" y="499"/>
      <point x="405" y="449"/>
      <point x="417" y="400" type="curve"/>
      <point x="484" y="400" type="line"/>
      <point x="495" y="451"/>
      <point x="508" y="503"/>
      <point x="521" y="554" type="curve"/>
      <point x="524" y="491"/>
      <point x="527" y="427"/>
      <point x="528" y="364" type="curve"/>
      <point x="617" y="364" type="line"/>
      <point x="613" y="516"/>
      <point x="595" y="679"/>
      <point x="593" y="695" type="curve"/>
      <point x="496" y="695" type="line"/>
      <point x="484" y="651"/>
      <point x="465" y="579"/>
      <point x="450" y="519" type="curve"/>
      <point x="435" y="581"/>
      <point x="419" y="653"/>
      <point x="408" y="695" type="curve"/>
      <point x="308" y="695" type="line"/>
      <point x="306" y="679"/>
      <point x="290" y="516"/>
    </contour>
    <contour>
      <point x="100" y="364" type="line"/>
      <point x="190" y="364" type="line"/>
      <point x="190" y="615" type="line"/>
      <point x="274" y="615" type="line"/>
      <point x="274" y="695" type="line"/>
      <point x="13" y="695" type="line"/>
      <point x="13" y="615" type="line"/>
      <point x="100" y="615" type="line"/>
    </contour>
  </outline>
</glyph>
<glyph name="radical" format="2">
  <advance width="466"/>
  <unicode hex="221A"/>
  <outline>
    <contour>
      <point x="192" y="-15" type="curve"/>
      <point x="314" y="-15" type="line"/>
      <point x="490" y="783" type="line"/>
      <point x="363" y="783" type="line"/>
      <point x="247" y="186" type="line"/>
      <point x="224" y="281"/>
      <point x="204" y="358"/>
      <point x="188" y="422" type="curve"/>
      <point x="4" y="370" type="line"/>
      <point x="30" y="273" type="line"/>
      <point x="102" y="294" type="line"/>
      <point x="129" y="207"/>
      <point x="160" y="96"/>
    </contour>
  </outline>
</glyph>
<glyph name="approxequal" format="2">
  <advance width="420"/>
  <unicode hex="2248"/>
  <outline>
    <contour>
      <point x="282" y="96" type="curve"/>
      <point x="363" y="96"/>
      <point x="395" y="167"/>
      <point x="415" y="260" type="curve"/>
      <point x="326" y="287" type="line"/>
      <point x="314" y="229"/>
      <point x="299" y="219"/>
      <point x="279" y="219" type="curve"/>
      <point x="243" y="219"/>
      <point x="201" y="287"/>
      <point x="138" y="287" type="curve"/>
      <point x="57" y="287"/>
      <point x="25" y="216"/>
      <point x="5" y="123" type="curve"/>
      <point x="94" y="96" type="line"/>
      <point x="106" y="154"/>
      <point x="121" y="164"/>
      <point x="142" y="164" type="curve" smooth="yes"/>
      <point x="178" y="164"/>
      <point x="220" y="96"/>
    </contour>
    <contour>
      <point x="282" y="325" type="curve"/>
      <point x="363" y="325"/>
      <point x="395" y="396"/>
      <point x="415" y="489" type="curve"/>
      <point x="326" y="516" type="line"/>
      <point x="314" y="458"/>
      <point x="299" y="448"/>
      <point x="279" y="448" type="curve"/>
      <point x="243" y="448"/>
      <point x="201" y="516"/>
      <point x="138" y="516" type="curve"/>
      <point x="57" y="516"/>
      <point x="25" y="445"/>
      <point x="5" y="352" type="curve"/>
      <point x="94" y="325" type="line"/>
      <point x="106" y="383"/>
      <point x="121" y="393"/>
      <point x="142" y="393" type="curve" smooth="yes"/>
      <point x="178" y="393"/>
      <point x="220" y="325"/>
    </contour>
  </outline>
</glyph>
<glyph name="notequal" format="2">
  <advance width="420"/>
  <unicode hex="2260"/>
  <outline>
    <contour>
      <point x="152" y="27" type="line"/>
      <point x="198" y="141" type="line"/>
      <point x="387" y="141" type="line"/>
      <point x="387" y="251" type="line"/>
      <point x="243" y="251" type="line"/>
      <point x="282" y="347" type="line"/>
      <point x="387" y="347" type="line"/>
      <point x="387" y="457" type="line"/>
      <point x="327" y="457" type="line"/>
      <point x="357" y="532" type="line"/>
      <point x="268" y="571" type="line"/>
      <point x="222" y="457" type="line"/>
      <point x="33" y="457" type="line"/>
      <point x="33" y="347" type="line"/>
      <point x="177" y="347" type="line"/>
      <point x="138" y="251" type="line"/>
      <point x="33" y="251" type="line"/>
      <point x="33" y="141" type="line"/>
      <point x="93" y="141" type="line"/>
      <point x="63" y="66" type="line"/>
    </contour>
  </outline>
</glyph>
<glyph name="greaterequal" format="2">
  <advance width="420"/>
  <unicode hex="2265"/>
  <outline>
    <contour>
      <point x="80" y="140" type="line"/>
      <point x="387" y="295" type="line"/>
      <point x="387" y="403" type="line"/>
      <point x="80" y="558" type="line"/>
      <point x="33" y="458" type="line"/>
      <point x="259" y="349" type="line"/>
      <point x="33" y="240" type="line"/>
    </contour>
    <contour>
      <point x="33" y="0" type="line"/>
      <point x="387" y="0" type="line"/>
      <point x="387" y="110" type="line"/>
      <point x="33" y="110" type="line"/>
    </contour>
  </outline>
</glyph>
<glyph name="acute.asc" format="2">
  <advance width="314"/>
  <outline>
    <contour>
      <point x="91" y="814" type="line"/>
      <point x="261" y="869" type="line"/>
      <point x="219" y="977" type="line"/>
      <point x="58" y="892" type="line"/>
    </contour>
  </outline>
</glyph>
<glyph name="acute_greek.sc" format="2">
  <advance width="267"/>
  <anchor x="254" y="589" name="_topleft"/>
  <outline>
    <contour>
      <point x="72" y="397" type="line"/>
      <point x="205" y="526" type="line"/>
      <point x="114" y="604" type="line"/>
      <point x="4" y="458" type="line"/>
    </contour>
  </outline>
</glyph>
<glyph name="ampersand.c2sc" format="2">
  <advance width="481"/>
  <outline>
    <contour>
      <point x="212" y="-13" type="curve" smooth="yes"/>
      <point x="255" y="-13"/>
      <point x="300" y="4"/>
      <point x="330" y="34" type="curve"/>
      <point x="337" y="23"/>
      <point x="342" y="5"/>
      <point x="343" y="0" type="curve"/>
      <point x="468" y="0" type="line"/>
      <point x="442" y="68"/>
      <point x="428" y="101"/>
      <point x="408" y="134" type="curve"/>
      <point x="430" y="185"/>
      <point x="439" y="255"/>
      <point x="443" y="317" type="curve"/>
      <point x="338" y="331" type="line"/>
      <point x="333" y="284"/>
      <point x="331" y="270"/>
      <point x="328" y="238" type="curve"/>
      <point x="272" y="313" type="line"/>
      <point x="330" y="364"/>
      <point x="357" y="421"/>
      <point x="357" y="475" type="curve" smooth="yes"/>
      <point x="357" y="562"/>
      <point x="306" y="603"/>
      <point x="218" y="603" type="curve" smooth="yes"/>
      <point x="127" y="603"/>
      <point x="71" y="550"/>
      <point x="71" y="462" type="curve" smooth="yes"/>
      <point x="71" y="413"/>
      <point x="79" y="384"/>
      <point x="113" y="335" type="curve"/>
      <point x="44" y="272"/>
      <point x="32" y="207"/>
      <point x="32" y="151" type="curve" smooth="yes"/>
      <point x="32" y="57"/>
      <point x="107" y="-13"/>
    </contour>
    <contour>
      <point x="215" y="96" type="curve" smooth="yes"/>
      <point x="189" y="97"/>
      <point x="150" y="125"/>
      <point x="150" y="171" type="curve" smooth="yes"/>
      <point x="150" y="195"/>
      <point x="158" y="223"/>
      <point x="174" y="249" type="curve"/>
      <point x="274" y="117" type="line"/>
      <point x="258" y="101"/>
      <point x="240" y="95"/>
    </contour>
    <contour>
      <point x="214" y="393" type="curve"/>
      <point x="187" y="427"/>
      <point x="182" y="451"/>
      <point x="182" y="464" type="curve" smooth="yes"/>
      <point x="182" y="493"/>
      <point x="195" y="514"/>
      <point x="214" y="514" type="curve" smooth="yes"/>
      <point x="233" y="514"/>
      <point x="247" y="496"/>
      <point x="247" y="472" type="curve" smooth="yes"/>
      <point x="247" y="446"/>
      <point x="239" y="420"/>
    </contour>
  </outline>
</glyph>
<glyph name="at.c2sc" format="2">
  <advance width="770"/>
  <outline>
    <contour>
      <point x="389" y="-79" type="curve" smooth="yes"/>
      <point x="451" y="-79"/>
      <point x="513" y="-69"/>
      <point x="533" y="-55" type="curve"/>
      <point x="518" y="33" type="line"/>
      <point x="492" y="24"/>
      <point x="440" y="14"/>
      <point x="389" y="14" type="curve" smooth="yes"/>
      <point x="236" y="14"/>
      <point x="151" y="108"/>
      <point x="151" y="290" type="curve" smooth="yes"/>
      <point x="151" y="470"/>
      <point x="251" y="576"/>
      <point x="391" y="576" type="curve" smooth="yes"/>
      <point x="552" y="576"/>
      <point x="620" y="485"/>
      <point x="620" y="346" type="curve" smooth="yes"/>
      <point x="620" y="197"/>
      <point x="595" y="174"/>
      <point x="569" y="174" type="curve" smooth="yes"/>
      <point x="543" y="174"/>
      <point x="538" y="184"/>
      <point x="538" y="217" type="curve"/>
      <point x="538" y="481" type="line"/>
      <point x="495" y="498"/>
      <point x="447" y="507"/>
      <point x="399" y="507" type="curve" smooth="yes"/>
      <point x="281" y="507"/>
      <point x="213" y="422"/>
      <point x="213" y="299" type="curve" smooth="yes"/>
      <point x="213" y="160"/>
      <point x="276" y="87"/>
      <point x="370" y="87" type="curve" smooth="yes"/>
      <point x="405" y="87"/>
      <point x="433" y="96"/>
      <point x="452" y="112" type="curve"/>
      <point x="478" y="91"/>
      <point x="513" y="82"/>
      <point x="558" y="82" type="curve" smooth="yes"/>
      <point x="665" y="82"/>
      <point x="728" y="179"/>
      <point x="728" y="339" type="curve" smooth="yes"/>
      <point x="728" y="556"/>
      <point x="593" y="669"/>
      <point x="389" y="669" type="curve" smooth="yes"/>
      <point x="210" y="669"/>
      <point x="42" y="546"/>
      <point x="42" y="290" type="curve" smooth="yes"/>
      <point x="42" y="22"/>
      <point x="193" y="-79"/>
    </contour>
    <contour>
      <point x="396" y="189" type="curve" smooth="yes"/>
      <point x="356" y="189"/>
      <point x="340" y="220"/>
      <point x="340" y="297" type="curve" smooth="yes"/>
      <point x="340" y="370"/>
      <point x="352" y="407"/>
      <point x="400" y="407" type="curve" smooth="yes"/>
      <point x="401" y="407"/>
      <point x="408" y="407"/>
      <point x="415" y="405" type="curve"/>
      <point x="415" y="238" type="line"/>
      <point x="415" y="221"/>
      <point x="415" y="206"/>
      <point x="417" y="191" type="curve"/>
      <point x="412" y="190"/>
      <point x="400" y="189"/>
    </contour>
  </outline>
</glyph>
<glyph name="breveinvertedcomb.sc" format="2">
  <anchor x="0" y="589" name="_top"/>
  <anchor x="0" y="833" name="top"/>
  <outline>
    <contour>
      <point x="-130" y="674" type="curve"/>
      <point x="-44" y="674" type="line"/>
      <point x="-44" y="720"/>
      <point x="-30" y="744"/>
      <point x="0" y="744" type="curve"/>
      <point x="30" y="744"/>
      <point x="44" y="720"/>
      <point x="44" y="674" type="curve"/>
      <point x="130" y="674" type="line"/>
      <point x="130" y="771"/>
      <point x="79" y="833"/>
      <point x="0" y="833" type="curve" smooth="yes"/>
      <point x="-79" y="833"/>
      <point x="-130" y="771"/>
    </contour>
  </outline>
</glyph>
<glyph name="btopbar.sc" format="2">
  <advance width="451"/>
  <outline>
    <contour>
      <point x="196" y="-6" type="curve" smooth="yes"/>
      <point x="342" y="-6"/>
      <point x="426" y="58"/>
      <point x="426" y="188" type="curve" smooth="yes"/>
      <point x="426" y="327"/>
      <point x="346" y="381"/>
      <point x="198" y="381" type="curve" smooth="yes"/>
      <point x="190" y="381" type="line"/>
      <point x="190" y="471" type="line"/>
      <point x="372" y="471" type="line"/>
      <point x="372" y="588" type="line"/>
      <point x="52" y="588" type="line"/>
      <point x="52" y="14" type="line"/>
      <point x="109" y="-1"/>
      <point x="158" y="-6"/>
    </contour>
    <contour>
      <point x="206" y="113" type="curve" smooth="yes"/>
      <point x="194" y="113"/>
      <point x="192" y="114"/>
      <point x="190" y="114" type="curve"/>
      <point x="190" y="266" type="line"/>
      <point x="193" y="266" type="line" smooth="yes"/>
      <point x="259" y="266"/>
      <point x="286" y="243"/>
      <point x="286" y="187" type="curve" smooth="yes"/>
      <point x="286" y="134"/>
      <point x="263" y="113"/>
    </contour>
  </outline>
</glyph>
<glyph name="ccedilla.sc" format="2">
  <advance width="426"/>
  <outline>
    <contour>
      <point x="206" y="-210" type="curve" smooth="yes"/>
      <point x="283" y="-210"/>
      <point x="334" y="-173"/>
      <point x="334" y="-116" type="curve" smooth="yes"/>
      <point x="334" y="-79"/>
      <point x="320" y="-58"/>
      <point x="284" y="-42" type="curve"/>
      <point x="287" y="-33"/>
      <point x="292" y="-23"/>
      <point x="297" y="-13" type="curve"/>
      <point x="297" y="-13"/>
      <point x="297" y="-13"/>
      <point x="297" y="-13" type="curve"/>
      <point x="342" y="-8"/>
      <point x="386" y="6"/>
      <point x="413" y="26" type="curve"/>
      <point x="375" y="134" type="line"/>
      <point x="348" y="115"/>
      <point x="313" y="106"/>
      <point x="281" y="106" type="curve" smooth="yes"/>
      <point x="209" y="106"/>
      <point x="174" y="169"/>
      <point x="174" y="297" type="curve" smooth="yes"/>
      <point x="174" y="421"/>
      <point x="208" y="482"/>
      <point x="277" y="482" type="curve" smooth="yes"/>
      <point x="310" y="482"/>
      <point x="335" y="474"/>
      <point x="366" y="458" type="curve"/>
      <point x="404" y="566" type="line"/>
      <point x="372" y="589"/>
      <point x="328" y="602"/>
      <point x="269" y="602" type="curve" smooth="yes"/>
      <point x="119" y="602"/>
      <point x="30" y="488"/>
      <point x="30" y="294" type="curve" smooth="yes"/>
      <point x="30" y="130"/>
      <point x="95" y="24"/>
      <point x="207" y="-6" type="curve"/>
      <point x="197" y="-26"/>
      <point x="187" y="-52"/>
      <point x="181" y="-71" type="curve"/>
      <point x="215" y="-75"/>
      <point x="232" y="-85"/>
      <point x="232" y="-101" type="curve" smooth="yes"/>
      <point x="232" y="-116"/>
      <point x="216" y="-126"/>
      <point x="191" y="-126" type="curve" smooth="yes"/>
      <point x="176" y="-126"/>
      <point x="158" y="-123"/>
      <point x="144" y="-117" type="curve"/>
      <point x="128" y="-198" type="line"/>
      <point x="155" y="-206"/>
      <point x="182" y="-210"/>
    </contour>
  </outline>
</glyph>
<glyph name="cheabkhasian-cy.sc" format="2">
  <advance width="622"/>
  <outline>
    <contour>
      <point x="422" y="-14" type="curve" smooth="yes"/>
      <point x="479" y="-14"/>
      <point x="533" y="3"/>
      <point x="566" y="26" type="curve"/>
      <point x="528" y="134" type="line"/>
      <point x="501" y="115"/>
      <point x="466" y="106"/>
      <point x="434" y="106" type="curve" smooth="yes"/>
      <point x="365" y="106"/>
      <point x="323" y="148"/>
      <point x="318" y="252" type="curve"/>
      <point x="593" y="252" type="line"/>
      <point x="594" y="265"/>
      <point x="596" y="293"/>
      <point x="596" y="308" type="curve" smooth="yes"/>
      <point x="596" y="493"/>
      <point x="530" y="602"/>
      <point x="388" y="602" type="curve" smooth="yes"/>
      <point x="269" y="602"/>
      <point x="192" y="513"/>
      <point x="175" y="360" type="curve"/>
      <point x="132" y="364"/>
      <point x="117" y="382"/>
      <point x="117" y="411" type="curve" smooth="yes"/>
      <point x="117" y="423"/>
      <point x="120" y="437"/>
      <point x="124" y="453" type="curve"/>
      <point x="20" y="467" type="line"/>
      <point x="15" y="452"/>
      <point x="10" y="425"/>
      <point x="10" y="400" type="curve" smooth="yes"/>
      <point x="10" y="315"/>
      <point x="72" y="256"/>
      <point x="174" y="250" type="curve"/>
      <point x="188" y="83"/>
      <point x="278" y="-14"/>
    </contour>
    <contour>
      <point x="322" y="362" type="line"/>
      <point x="322" y="445"/>
      <point x="344" y="485"/>
      <point x="388" y="485" type="curve" smooth="yes"/>
      <point x="432" y="485"/>
      <point x="453" y="445"/>
      <point x="453" y="362" type="curve"/>
    </contour>
  </outline>
</glyph>
<glyph name="circumflex.asc" format="2">
  <advance width="314"/>
  <outline>
    <contour>
      <point x="76" y="820" type="line"/>
      <point x="157" y="869" type="line"/>
      <point x="239" y="820" type="line"/>
      <point x="282" y="882" type="line"/>
      <point x="157" y="972" type="line"/>
      <point x="32" y="882" type="line"/>
    </contour>
  </outline>
</glyph>
<glyph name="dasiaperispomeni.sc" format="2">
  <advance width="302"/>
  <anchor x="303" y="589" name="_topleft"/>
  <outline>
    <contour>
      <point x="-6" y="535" type="curve"/>
      <point x="72" y="535" type="line"/>
      <point x="72" y="576"/>
      <point x="90" y="597"/>
      <point x="126" y="597" type="curve" smooth="yes"/>
      <point x="162" y="597"/>
      <point x="180" y="576"/>
      <point x="180" y="535" type="curve"/>
      <point x="258" y="535" type="line"/>
      <point x="258" y="619"/>
      <point x="206" y="672"/>
      <point x="126" y="672" type="curve" smooth="yes"/>
      <point x="46" y="672"/>
      <point x="-6" y="619"/>
    </contour>
    <contour>
      <point x="161" y="349" type="curve"/>
      <point x="198" y="386" type="line"/>
      <point x="178" y="403"/>
      <point x="161" y="421"/>
      <point x="151" y="440" type="curve"/>
      <point x="169" y="447"/>
      <point x="180" y="466"/>
      <point x="180" y="488" type="curve" smooth="yes"/>
      <point x="180" y="520"/>
      <point x="158" y="539"/>
      <point x="129" y="539" type="curve" smooth="yes"/>
      <point x="96" y="539"/>
      <point x="73" y="520"/>
      <point x="73" y="481" type="curve" smooth="yes"/>
      <point x="73" y="429"/>
      <point x="112" y="385"/>
    </contour>
  </outline>
</glyph>
<glyph name="dasiavaria.sc" format="2">
  <advance width="389"/>
  <anchor x="377" y="589" name="_topleft"/>
  <outline>
    <contour>
      <point x="246" y="386" type="line"/>
      <point x="315" y="421" type="line"/>
      <point x="230" y="616" type="line"/>
      <point x="139" y="572" type="line"/>
    </contour>
    <contour>
      <point x="96" y="380" type="curve"/>
      <point x="137" y="416" type="line"/>
      <point x="113" y="441"/>
      <point x="92" y="472"/>
      <point x="76" y="495" type="curve"/>
      <point x="101" y="506"/>
      <point x="115" y="530"/>
      <point x="115" y="555" type="curve" smooth="yes"/>
      <point x="115" y="592"/>
      <point x="88" y="617"/>
      <point x="53" y="617" type="curve" smooth="yes"/>
      <point x="16" y="617"/>
      <point x="-11" y="593"/>
      <point x="-11" y="546" type="curve" smooth="yes"/>
      <point x="-11" y="481"/>
      <point x="42" y="424"/>
    </contour>
  </outline>
</glyph>
<glyph name="dieresiscomb_caroncomb" format="2">
  <anchor x="0" y="532" name="_top"/>
  <anchor x="0" y="867" name="top"/>
  <outline>
    <contour>
      <point x="-1" y="698" type="line"/>
      <point x="134" y="811" type="line"/>
      <point x="86" y="867" type="line"/>
      <point x="-1" y="803" type="line"/>
      <point x="-88" y="867" type="line"/>
      <point x="-135" y="811" type="line"/>
    </contour>
    <contour>
      <point x="-103" y="587" type="curve" smooth="yes"/>
      <point x="-69" y="587"/>
      <point x="-41" y="611"/>
      <point x="-41" y="649" type="curve" smooth="yes"/>
      <point x="-41" y="687"/>
      <point x="-69" y="711"/>
      <point x="-103" y="711" type="curve" smooth="yes"/>
      <point x="-137" y="711"/>
      <point x="-165" y="687"/>
      <point x="-165" y="649" type="curve" smooth="yes"/>
      <point x="-165" y="611"/>
      <point x="-137" y="587"/>
    </contour>
    <contour>
      <point x="103" y="587" type="curve" smooth="yes"/>
      <point x="138" y="587"/>
      <point x="165" y="611"/>
      <point x="165" y="649" type="curve" smooth="yes"/>
      <point x="165" y="687"/>
      <point x="138" y="711"/>
      <point x="103" y="711" type="curve" smooth="yes"/>
      <point x="69" y="711"/>
      <point x="41" y="687"/>
      <point x="41" y="649" type="curve" smooth="yes"/>
      <point x="41" y="611"/>
      <point x="69" y="587"/>
    </contour>
  </outline>
</glyph>
<glyph name="dje-cy.sc" format="2">
  <advance width="562"/>
  <outline>
    <contour>
      <point x="379" y="-6" type="curve" smooth="yes"/>
      <point x="457" y="-6"/>
      <point x="534" y="48"/>
      <point x="534" y="176" type="curve" smooth="yes"/>
      <point x="534" y="299"/>
      <point x="470" y="372"/>
      <point x="321" y="372" type="curve" smooth="yes"/>
      <point x="303" y="372"/>
      <point x="284" y="370"/>
      <point x="266" y="367" type="curve"/>
      <point x="266" y="471" type="line"/>
      <point x="404" y="471" type="line"/>
      <point x="404" y="588" type="line"/>
      <point x="11" y="588" type="line"/>
      <point x="11" y="471" type="line"/>
      <point x="128" y="471" type="line"/>
      <point x="128" y="0" type="line"/>
      <point x="266" y="0" type="line"/>
      <point x="266" y="249" type="line"/>
      <point x="275" y="251"/>
      <point x="287" y="253"/>
      <point x="316" y="253" type="curve" smooth="yes"/>
      <point x="378" y="253"/>
      <point x="404" y="231"/>
      <point x="404" y="174" type="curve" smooth="yes"/>
      <point x="404" y="114"/>
      <point x="383" y="100"/>
      <point x="354" y="100" type="curve" smooth="yes"/>
      <point x="343" y="100"/>
      <point x="332" y="101"/>
      <point x="324" y="102" type="curve"/>
      <point x="317" y="-1" type="line"/>
      <point x="337" y="-4"/>
      <point x="357" y="-6"/>
    </contour>
  </outline>
</glyph>
<glyph name="dtopbar.sc" format="2">
  <advance width="451"/>
  <anchor x="269" y="0" name="bottom"/>
  <anchor x="269" y="589" name="top"/>
  <outline>
    <contour>
      <point x="255" y="-6" type="curve" smooth="yes"/>
      <point x="293" y="-6"/>
      <point x="342" y="-1"/>
      <point x="399" y="14" type="curve"/>
      <point x="399" y="588" type="line"/>
      <point x="79" y="588" type="line"/>
      <point x="79" y="471" type="line"/>
      <point x="261" y="471" type="line"/>
      <point x="261" y="381" type="line"/>
      <point x="253" y="381" type="line" smooth="yes"/>
      <point x="105" y="381"/>
      <point x="25" y="327"/>
      <point x="25" y="188" type="curve" smooth="yes"/>
      <point x="25" y="58"/>
      <point x="109" y="-6"/>
    </contour>
    <contour>
      <point x="245" y="113" type="curve" smooth="yes"/>
      <point x="188" y="113"/>
      <point x="165" y="134"/>
      <point x="165" y="187" type="curve" smooth="yes"/>
      <point x="165" y="243"/>
      <point x="192" y="266"/>
      <point x="258" y="266" type="curve" smooth="yes"/>
      <point x="261" y="266" type="line"/>
      <point x="261" y="114" type="line"/>
      <point x="259" y="114"/>
      <point x="257" y="113"/>
    </contour>
  </outline>
</glyph>
<glyph name="eight.numr" format="2">
  <advance width="290"/>
  <outline>
    <contour>
      <point x="144" y="291" type="curve" smooth="yes"/>
      <point x="226" y="291"/>
      <point x="276" y="333"/>
      <point x="276" y="401" type="curve" smooth="yes"/>
      <point x="276" y="441"/>
      <point x="260" y="469"/>
      <point x="216" y="503" type="curve"/>
      <point x="249" y="527"/>
      <point x="268" y="561"/>
      <point x="268" y="594" type="curve" smooth="yes"/>
      <point x="268" y="658"/>
      <point x="219" y="700"/>
      <point x="144" y="700" type="curve"/>
      <point x="68" y="700"/>
      <point x="19" y="657"/>
      <point x="19" y="591" type="curve" smooth="yes"/>
      <point x="19" y="555"/>
      <point x="34" y="526"/>
      <point x="69" y="497" type="curve"/>
      <point x="31" y="468"/>
      <point x="14" y="436"/>
      <point x="14" y="399" type="curve" smooth="yes"/>
      <point x="14" y="334"/>
      <point x="66" y="291"/>
    </contour>
    <contour>
      <point x="146" y="371" type="curve" smooth="yes"/>
      <point x="121" y="371"/>
      <point x="107" y="385"/>
      <point x="107" y="410" type="curve"/>
      <point x="107" y="431"/>
      <point x="117" y="445"/>
      <point x="136" y="459" type="curve"/>
      <point x="168" y="446"/>
      <point x="183" y="429"/>
      <point x="183" y="406" type="curve"/>
      <point x="183" y="386"/>
      <point x="167" y="371"/>
    </contour>
    <contour>
      <point x="144" y="538" type="curve"/>
      <point x="124" y="553"/>
      <point x="112" y="569"/>
      <point x="112" y="587" type="curve"/>
      <point x="112" y="608"/>
      <point x="124" y="620"/>
      <point x="145" y="620" type="curve" smooth="yes"/>
      <point x="166" y="620"/>
      <point x="177" y="608"/>
      <point x="177" y="587" type="curve" smooth="yes"/>
      <point x="177" y="567"/>
      <point x="167" y="552"/>
    </contour>
  </outline>
</glyph>
<glyph name="el-cy.sc" format="2">
  <advance width="562"/>
  <outline>
    <contour>
      <point x="37" y="-12" type="line"/>
      <point x="152" y="-7"/>
      <point x="207" y="53"/>
      <point x="238" y="137" type="curve" smooth="yes"/>
      <point x="268" y="220"/>
      <point x="284" y="354"/>
      <point x="286" y="471" type="curve"/>
      <point x="372" y="471" type="line"/>
      <point x="372" y="0" type="line"/>
      <point x="510" y="0" type="line"/>
      <point x="510" y="588" type="line"/>
      <point x="156" y="588" type="line"/>
      <point x="156" y="400"/>
      <point x="145" y="285"/>
      <point x="125" y="212" type="curve" smooth="yes"/>
      <point x="105" y="139"/>
      <point x="82" y="118"/>
      <point x="21" y="109" type="curve"/>
    </contour>
  </outline>
</glyph>
<glyph name="emtail-cy.sc" format="2">
  <advance width="665"/>
  <outline>
    <contour>
      <point x="559" y="-166" type="line"/>
      <point x="628" y="-84"/>
      <point x="650" y="8"/>
      <point x="650" y="117" type="curve"/>
      <point x="566" y="117" type="line"/>
      <point x="558" y="282"/>
      <point x="546" y="463"/>
      <point x="535" y="588" type="curve"/>
      <point x="402" y="588" type="line"/>
      <point x="376" y="503"/>
      <point x="341" y="381"/>
      <point x="307" y="264" type="curve"/>
      <point x="279" y="369"/>
      <point x="240" y="505"/>
      <point x="213" y="588" type="curve"/>
      <point x="72" y="588" type="line"/>
      <point x="58" y="439"/>
      <point x="43" y="189"/>
      <point x="37" y="0" type="curve"/>
      <point x="168" y="0" type="line"/>
      <point x="169" y="145"/>
      <point x="172" y="252"/>
      <point x="176" y="364" type="curve"/>
      <point x="201" y="277"/>
      <point x="239" y="154"/>
      <point x="259" y="75" type="curve"/>
      <point x="350" y="75" type="line"/>
      <point x="368" y="148"/>
      <point x="409" y="287"/>
      <point x="432" y="365" type="curve"/>
      <point x="437" y="231"/>
      <point x="439" y="152"/>
      <point x="441" y="0" type="curve"/>
      <point x="525" y="0" type="line"/>
      <point x="513" y="-42"/>
      <point x="494" y="-80"/>
      <point x="470" y="-115" type="curve"/>
    </contour>
  </outline>
</glyph>
<glyph name="eng.sc" format="2">
  <advance width="522"/>
  <anchor x="339" y="0" name="bottom"/>
  <anchor x="339" y="589" name="top"/>
  <outline>
    <contour>
      <point x="314" y="-188" type="curve" smooth="yes"/>
      <point x="422" y="-188"/>
      <point x="470" y="-124"/>
      <point x="470" y="-18" type="curve" smooth="yes"/>
      <point x="470" y="588" type="line"/>
      <point x="337" y="588" type="line"/>
      <point x="337" y="276" type="line"/>
      <point x="292" y="379"/>
      <point x="238" y="493"/>
      <point x="188" y="588" type="curve"/>
      <point x="52" y="588" type="line"/>
      <point x="52" y="0" type="line"/>
      <point x="185" y="0" type="line"/>
      <point x="185" y="343" type="line"/>
      <point x="238" y="239"/>
      <point x="290" y="128"/>
      <point x="337" y="8" type="curve"/>
      <point x="337" y="-18" type="line" smooth="yes"/>
      <point x="337" y="-54"/>
      <point x="327" y="-68"/>
      <point x="297" y="-68" type="curve" smooth="yes"/>
      <point x="286" y="-68"/>
      <point x="273" y="-66"/>
      <point x="263" y="-63" type="curve"/>
      <point x="244" y="-176" type="line"/>
      <point x="266" y="-185"/>
      <point x="290" y="-188"/>
    </contour>
  </outline>
</glyph>
<glyph name="eogonek.sc" format="2">
  <advance width="414"/>
  <anchor x="230" y="588" name="top"/>
  <outline>
    <contour>
      <point x="319" y="-208" type="curve" smooth="yes"/>
      <point x="348" y="-208"/>
      <point x="381" y="-204"/>
      <point x="408" y="-193" type="curve"/>
      <point x="399" y="-100" type="line"/>
      <point x="380" y="-107"/>
      <point x="367" y="-108"/>
      <point x="355" y="-108" type="curve" smooth="yes"/>
      <point x="331" y="-108"/>
      <point x="319" y="-97"/>
      <point x="319" y="-75" type="curve" smooth="yes"/>
      <point x="319" y="-56"/>
      <point x="333" y="-34"/>
      <point x="387" y="0" type="curve"/>
      <point x="387" y="117" type="line"/>
      <point x="190" y="117" type="line"/>
      <point x="190" y="249" type="line"/>
      <point x="355" y="249" type="line"/>
      <point x="355" y="363" type="line"/>
      <point x="190" y="363" type="line"/>
      <point x="190" y="471" type="line"/>
      <point x="377" y="471" type="line"/>
      <point x="377" y="588" type="line"/>
      <point x="52" y="588" type="line"/>
      <point x="52" y="0" type="line"/>
      <point x="275" y="0" type="line"/>
      <point x="230" y="-34"/>
      <point x="203" y="-68"/>
      <point x="203" y="-113" type="curve" smooth="yes"/>
      <point x="203" y="-172"/>
      <point x="249" y="-208"/>
    </contour>
  </outline>
</glyph>
<glyph name="euro.osf" format="2">
  <advance width="420"/>
  <outline>
    <contour>
      <point x="275" y="-13" type="curve" smooth="yes"/>
      <point x="320" y="-13"/>
      <point x="360" y="-1"/>
      <point x="385" y="12" type="curve"/>
      <point x="362" y="114" type="line"/>
      <point x="336" y="101"/>
      <point x="308" y="97"/>
      <point x="283" y="97" type="curve" smooth="yes"/>
      <point x="260" y="97"/>
      <point x="225" y="108"/>
      <point x="207" y="185" type="curve"/>
      <point x="287" y="185" type="line"/>
      <point x="304" y="273" type="line"/>
      <point x="198" y="273" type="line"/>
      <point x="198" y="279"/>
      <point x="198" y="286"/>
      <point x="198" y="294" type="curve" smooth="yes"/>
      <point x="198" y="303"/>
      <point x="198" y="312"/>
      <point x="198" y="320" type="curve"/>
      <point x="314" y="320" type="line"/>
      <point x="332" y="407" type="line"/>
      <point x="206" y="407" type="line"/>
      <point x="214" y="475"/>
      <point x="244" y="490"/>
      <point x="274" y="490" type="curve" smooth="yes"/>
      <point x="304" y="490"/>
      <point x="328" y="482"/>
      <point x="346" y="470" type="curve"/>
      <point x="380" y="571" type="line"/>
      <point x="349" y="589"/>
      <point x="314" y="600"/>
      <point x="278" y="600" type="curve" smooth="yes"/>
      <point x="165" y="600"/>
      <point x="98" y="544"/>
      <point x="72" y="407" type="curve"/>
      <point x="14" y="407" type="line"/>
      <point x="14" y="320" type="line"/>
      <point x="65" y="320" type="line"/>
      <point x="64" y="311"/>
      <point x="65" y="303"/>
      <point x="65" y="294" type="curve" smooth="yes"/>
      <point x="65" y="287"/>
      <point x="65" y="280"/>
      <point x="64" y="273" type="curve"/>
      <point x="14" y="273" type="line"/>
      <point x="14" y="185" type="line"/>
      <point x="71" y="185" type="line"/>
      <point x="88" y="75"/>
      <point x="141" y="-13"/>
    </contour>
  </outline>
</glyph>
<glyph name="f_l" format="2">
  <advance width="618"/>
  <anchor x="138" y="0" name="bottom_1"/>
  <anchor x="472" y="0" name="bottom_2"/>
  <anchor x="307" y="0" name="caret_1"/>
  <anchor x="473" y="388" name="center"/>
  <anchor x="478" y="388" name="center_2"/>
  <anchor x="218" y="776" name="top_1"/>
  <anchor x="472" y="776" name="top_2"/>
  <anchor x="594" y="776" name="topright"/>
  <anchor x="599" y="776" name="topright_2"/>
  <outline>
    <contour>
      <point x="69" y="0" type="line"/>
      <point x="207" y="0" type="line"/>
      <point x="207" y="419" type="line"/>
      <point x="329" y="419" type="line"/>
      <point x="329" y="532" type="line"/>
      <point x="207" y="532" type="line"/>
      <point x="207" y="588" type="line" smooth="yes"/>
      <point x="207" y="639"/>
      <point x="226" y="659"/>
      <point x="271" y="659" type="curve"/>
      <point x="289" y="659"/>
      <point x="311" y="654"/>
      <point x="325" y="647" type="curve"/>
      <point x="351" y="758" type="line"/>
      <point x="329" y="768"/>
      <point x="290" y="776"/>
      <point x="250" y="776" type="curve"/>
      <point x="131" y="776"/>
      <point x="69" y="711"/>
      <point x="69" y="578" type="curve" smooth="yes"/>
    </contour>
    <contour>
      <point x="592" y="-14" type="curve"/>
      <point x="608" y="98" type="line"/>
      <point x="559" y="101"/>
      <point x="543" y="117"/>
      <point x="543" y="160" type="curve" smooth="yes"/>
      <point x="543" y="776" type="line"/>
      <point x="405" y="754" type="line"/>
      <point x="405" y="158" type="line" smooth="yes"/>
      <point x="405" y="44"/>
      <point x="466" y="-10"/>
    </contour>
  </outline>
</glyph>
<glyph name="five.numr" format="2">
  <advance width="290"/>
  <outline>
    <contour>
      <point x="134" y="291" type="curve" smooth="yes"/>
      <point x="217" y="291"/>
      <point x="271" y="352"/>
      <point x="271" y="419" type="curve" smooth="yes"/>
      <point x="271" y="491"/>
      <point x="229" y="538"/>
      <point x="138" y="543" type="curve"/>
      <point x="139" y="560"/>
      <point x="141" y="584"/>
      <point x="142" y="603" type="curve"/>
      <point x="259" y="603" type="line"/>
      <point x="259" y="693" type="line"/>
      <point x="60" y="693" type="line"/>
      <point x="57" y="646"/>
      <point x="50" y="536"/>
      <point x="45" y="470" type="curve"/>
      <point x="141" y="470"/>
      <point x="171" y="454"/>
      <point x="171" y="420" type="curve"/>
      <point x="171" y="391"/>
      <point x="146" y="381"/>
      <point x="111" y="381" type="curve"/>
      <point x="85" y="381"/>
      <point x="70" y="384"/>
      <point x="40" y="396" type="curve"/>
      <point x="21" y="314" type="line"/>
      <point x="54" y="298"/>
      <point x="95" y="291"/>
    </contour>
  </outline>
</glyph>
<glyph name="four.numr" format="2">
  <advance width="290"/>
  <outline>
    <contour>
      <point x="155" y="298" type="line"/>
      <point x="243" y="298" type="line"/>
      <point x="243" y="386" type="line"/>
      <point x="283" y="386" type="line"/>
      <point x="283" y="466" type="line"/>
      <point x="243" y="466" type="line"/>
      <point x="243" y="693" type="line"/>
      <point x="137" y="693" type="line"/>
      <point x="88" y="611"/>
      <point x="44" y="527"/>
      <point x="12" y="448" type="curve"/>
      <point x="12" y="386" type="line"/>
      <point x="155" y="386" type="line"/>
    </contour>
    <contour>
      <point x="103" y="466" type="line"/>
      <point x="117" y="504"/>
      <point x="139" y="549"/>
      <point x="161" y="588" type="curve"/>
      <point x="161" y="466" type="line"/>
    </contour>
  </outline>
</glyph>
<glyph name="four.osf" format="2">
  <advance width="412"/>
  <outline>
    <contour>
      <point x="211" y="-105" type="line"/>
      <point x="340" y="-105" type="line"/>
      <point x="340" y="38" type="line"/>
      <point x="404" y="38" type="line"/>
      <point x="404" y="144" type="line"/>
      <point x="340" y="144" type="line"/>
      <point x="340" y="588" type="line"/>
      <point x="202" y="588" type="line"/>
      <point x="137" y="486"/>
      <point x="47" y="283"/>
      <point x="2" y="134" type="curve"/>
      <point x="2" y="38" type="line"/>
      <point x="211" y="38" type="line"/>
    </contour>
    <contour>
      <point x="115" y="144" type="line"/>
      <point x="140" y="228"/>
      <point x="172" y="321"/>
      <point x="211" y="405" type="curve"/>
      <point x="211" y="144" type="line"/>
    </contour>
  </outline>
</glyph>
<glyph name="haabkhasian-cy.sc" format="2">
  <advance width="572"/>
  <outline>
    <contour>
      <point x="553" y="3" type="curve"/>
      <point x="552" y="103" type="line"/>
      <point x="520" y="92"/>
      <point x="490" y="87"/>
      <point x="466" y="87" type="curve" smooth="yes"/>
      <point x="466" y="87"/>
      <point x="465" y="87"/>
      <point x="465" y="87" type="curve"/>
      <point x="494" y="130"/>
      <point x="511" y="184"/>
      <point x="511" y="242" type="curve" smooth="yes"/>
      <point x="511" y="355"/>
      <point x="460" y="421"/>
      <point x="371" y="421" type="curve" smooth="yes"/>
      <point x="278" y="421"/>
      <point x="222" y="355"/>
      <point x="222" y="242" type="curve" smooth="yes"/>
      <point x="222" y="188"/>
      <point x="239" y="137"/>
      <point x="267" y="96" type="curve"/>
      <point x="267" y="96"/>
      <point x="267" y="96"/>
      <point x="267" y="96" type="curve" smooth="yes"/>
      <point x="198" y="106"/>
      <point x="162" y="166"/>
      <point x="162" y="295" type="curve" smooth="yes"/>
      <point x="162" y="418"/>
      <point x="207" y="486"/>
      <point x="298" y="486" type="curve" smooth="yes"/>
      <point x="321" y="486"/>
      <point x="351" y="480"/>
      <point x="373" y="468" type="curve"/>
      <point x="400" y="578" type="line"/>
      <point x="366" y="592"/>
      <point x="326" y="602"/>
      <point x="279" y="602" type="curve" smooth="yes"/>
      <point x="134" y="602"/>
      <point x="30" y="501"/>
      <point x="30" y="294" type="curve" smooth="yes"/>
      <point x="30" y="87"/>
      <point x="125" y="-14"/>
      <point x="279" y="-14" type="curve" smooth="yes"/>
      <point x="316" y="-14"/>
      <point x="342" y="-6"/>
      <point x="365" y="10" type="curve"/>
      <point x="388" y="-5"/>
      <point x="420" y="-14"/>
      <point x="461" y="-14" type="curve" smooth="yes"/>
      <point x="483" y="-14"/>
      <point x="522" y="-10"/>
    </contour>
    <contour>
      <point x="372" y="132" type="curve"/>
      <point x="351" y="157"/>
      <point x="340" y="195"/>
      <point x="340" y="242" type="curve" smooth="yes"/>
      <point x="340" y="286"/>
      <point x="351" y="312"/>
      <point x="371" y="312" type="curve" smooth="yes"/>
      <point x="391" y="312"/>
      <point x="404" y="286"/>
      <point x="404" y="242" type="curve" smooth="yes"/>
      <point x="404" y="197"/>
      <point x="392" y="159"/>
    </contour>
  </outline>
</glyph>
<glyph name="ii-cy.sc" format="2">
  <advance width="522"/>
  <anchor x="502" y="0" name="bottomright"/>
  <anchor x="261" y="588" name="top"/>
  <outline>
    <contour>
      <point x="52" y="0" type="line"/>
      <point x="182" y="0" type="line"/>
      <point x="230" y="123"/>
      <point x="280" y="237"/>
      <point x="334" y="343" type="curve"/>
      <point x="334" y="0" type="line"/>
      <point x="470" y="0" type="line"/>
      <point x="470" y="588" type="line"/>
      <point x="334" y="588" type="line"/>
      <point x="285" y="490"/>
      <point x="234" y="379"/>
      <point x="189" y="276" type="curve"/>
      <point x="189" y="588" type="line"/>
      <point x="52" y="588" type="line"/>
    </contour>
  </outline>
</glyph>
<glyph name="iogonek.sc" format="2">
  <advance width="242"/>
  <outline>
    <contour>
      <point x="126" y="-208" type="curve" smooth="yes"/>
      <point x="155" y="-208"/>
      <point x="188" y="-204"/>
      <point x="215" y="-193" type="curve"/>
      <point x="206" y="-100" type="line"/>
      <point x="187" y="-107"/>
      <point x="174" y="-108"/>
      <point x="162" y="-108" type="curve" smooth="yes"/>
      <point x="138" y="-108"/>
      <point x="126" y="-97"/>
      <point x="126" y="-75" type="curve"/>
      <point x="126" y="-55"/>
      <point x="140" y="-33"/>
      <point x="190" y="0" type="curve"/>
      <point x="190" y="588" type="line"/>
      <point x="52" y="588" type="line"/>
      <point x="52" y="0" type="line"/>
      <point x="77" y="0" type="line"/>
      <point x="35" y="-34"/>
      <point x="10" y="-69"/>
      <point x="10" y="-113" type="curve" smooth="yes"/>
      <point x="10" y="-172"/>
      <point x="56" y="-208"/>
    </contour>
  </outline>
</glyph>
<glyph name="izhitsa-cy.sc" format="2">
  <advance width="505"/>
  <anchor x="253" y="588" name="top"/>
  <outline>
    <contour>
      <point x="167" y="0" type="curve"/>
      <point x="303" y="0" type="line"/>
      <point x="344" y="154"/>
      <point x="393" y="348"/>
      <point x="418" y="454" type="curve" smooth="yes"/>
      <point x="424" y="477"/>
      <point x="435" y="485"/>
      <point x="454" y="485" type="curve" smooth="yes"/>
      <point x="465" y="485"/>
      <point x="479" y="479"/>
      <point x="490" y="471" type="curve"/>
      <point x="517" y="573" type="line"/>
      <point x="480" y="590"/>
      <point x="447" y="596"/>
      <point x="416" y="596" type="curve" smooth="yes"/>
      <point x="353" y="596"/>
      <point x="313" y="564"/>
      <point x="296" y="468" type="curve" smooth="yes"/>
      <point x="277" y="359"/>
      <point x="253" y="249"/>
      <point x="240" y="155" type="curve"/>
      <point x="215" y="250"/>
      <point x="175" y="451"/>
      <point x="155" y="588" type="curve"/>
      <point x="9" y="588" type="line"/>
      <point x="41" y="426"/>
      <point x="113" y="159"/>
    </contour>
  </outline>
</glyph>
<glyph name="jstroke.sc" format="2">
  <advance width="395"/>
  <anchor x="175" y="0" name="bottom"/>
  <anchor x="251" y="588" name="top"/>
  <outline>
    <contour>
      <point x="137" y="-14" type="curve" smooth="yes"/>
      <point x="282" y="-14"/>
      <point x="318" y="78"/>
      <point x="318" y="192" type="curve" smooth="yes"/>
      <point x="318" y="259" type="line"/>
      <point x="387" y="259" type="line"/>
      <point x="387" y="357" type="line"/>
      <point x="318" y="357" type="line"/>
      <point x="318" y="588" type="line"/>
      <point x="180" y="588" type="line"/>
      <point x="180" y="357" type="line"/>
      <point x="104" y="357" type="line"/>
      <point x="104" y="259" type="line"/>
      <point x="180" y="259" type="line"/>
      <point x="180" y="184" type="line" smooth="yes"/>
      <point x="180" y="128"/>
      <point x="166" y="105"/>
      <point x="128" y="105" type="curve" smooth="yes"/>
      <point x="104" y="105"/>
      <point x="74" y="115"/>
      <point x="52" y="131" type="curve"/>
      <point x="8" y="23" type="line"/>
      <point x="36" y="2"/>
      <point x="87" y="-14"/>
    </contour>
  </outline>
</glyph>
<glyph name="kadescender-cy.sc" format="2">
  <advance width="514"/>
  <outline>
    <contour>
      <point x="370" y="-157" type="line"/>
      <point x="500" y="-157" type="line"/>
      <point x="500" y="117" type="line"/>
      <point x="411" y="117" type="line"/>
      <point x="374" y="191"/>
      <point x="337" y="252"/>
      <point x="297" y="304" type="curve"/>
      <point x="357" y="397"/>
      <point x="412" y="494"/>
      <point x="456" y="588" type="curve"/>
      <point x="315" y="588" type="line"/>
      <point x="280" y="511"/>
      <point x="237" y="432"/>
      <point x="190" y="356" type="curve"/>
      <point x="190" y="588" type="line"/>
      <point x="52" y="588" type="line"/>
      <point x="52" y="0" type="line"/>
      <point x="190" y="0" type="line"/>
      <point x="190" y="238" type="line"/>
      <point x="241" y="172"/>
      <point x="285" y="85"/>
      <point x="314" y="0" type="curve"/>
      <point x="370" y="0" type="line"/>
    </contour>
  </outline>
</glyph>
<glyph name="khook.sc" format="2">
  <advance width="494"/>
  <anchor x="254" y="0" name="bottom"/>
  <anchor x="254" y="587" name="top"/>
  <outline>
    <contour>
      <point x="52" y="0" type="line"/>
      <point x="190" y="0" type="line"/>
      <point x="190" y="238" type="line"/>
      <point x="241" y="172"/>
      <point x="285" y="85"/>
      <point x="314" y="0" type="curve"/>
      <point x="464" y="0" type="line"/>
      <point x="408" y="125"/>
      <point x="350" y="224"/>
      <point x="288" y="302" type="curve"/>
      <point x="315" y="351"/>
      <point x="342" y="400"/>
      <point x="370" y="448" type="curve" smooth="yes"/>
      <point x="386" y="475"/>
      <point x="399" y="487"/>
      <point x="419" y="487" type="curve" smooth="yes"/>
      <point x="435" y="487"/>
      <point x="444" y="483"/>
      <point x="454" y="474" type="curve"/>
      <point x="494" y="566" type="line"/>
      <point x="469" y="590"/>
      <point x="434" y="599"/>
      <point x="396" y="599" type="curve" smooth="yes"/>
      <point x="355" y="599"/>
      <point x="314" y="583"/>
      <point x="274" y="511" type="curve" smooth="yes"/>
      <point x="245" y="459"/>
      <point x="218" y="407"/>
      <point x="190" y="354" type="curve"/>
      <point x="190" y="588" type="line"/>
      <point x="52" y="588" type="line"/>
    </contour>
  </outline>
</glyph>
<glyph name="lambdastroke.sc" format="2">
  <advance width="470"/>
  <outline>
    <contour>
      <point x="447" y="301" type="line"/>
      <point x="196" y="212" type="line"/>
      <point x="227" y="129" type="line"/>
      <point x="478" y="218" type="line"/>
    </contour>
    <component base="lambda.sc"/>
  </outline>
</glyph>
<glyph name="lbar.sc" format="2">
  <advance width="411"/>
  <outline>
    <contour>
      <point x="76" y="0" type="line"/>
      <point x="392" y="0" type="line"/>
      <point x="392" y="120" type="line"/>
      <point x="214" y="120" type="line"/>
      <point x="214" y="267" type="line"/>
      <point x="324" y="267" type="line"/>
      <point x="324" y="362" type="line"/>
      <point x="214" y="362" type="line"/>
      <point x="214" y="588" type="line"/>
      <point x="76" y="588" type="line"/>
      <point x="76" y="362" type="line"/>
      <point x="8" y="362" type="line"/>
      <point x="8" y="267" type="line"/>
      <point x="76" y="267" type="line"/>
    </contour>
  </outline>
</glyph>
<glyph name="lje-cy.sc" format="2">
  <advance width="776"/>
  <outline>
    <contour>
      <point x="37" y="-12" type="line"/>
      <point x="152" y="-7"/>
      <point x="207" y="53"/>
      <point x="238" y="137" type="curve" smooth="yes"/>
      <point x="268" y="220"/>
      <point x="284" y="353"/>
      <point x="286" y="470" type="curve"/>
      <point x="372" y="470" type="line"/>
      <point x="372" y="14" type="line"/>
      <point x="430" y="-1"/>
      <point x="483" y="-8"/>
      <point x="516" y="-8" type="curve" smooth="yes"/>
      <point x="649" y="-8"/>
      <point x="746" y="62"/>
      <point x="746" y="193" type="curve" smooth="yes"/>
      <point x="746" y="333"/>
      <point x="666" y="399"/>
      <point x="551" y="399" type="curve" smooth="yes"/>
      <point x="537" y="399"/>
      <point x="524" y="399"/>
      <point x="510" y="399" type="curve"/>
      <point x="510" y="588" type="line"/>
      <point x="156" y="588" type="line"/>
      <point x="156" y="400"/>
      <point x="145" y="285"/>
      <point x="125" y="212" type="curve" smooth="yes"/>
      <point x="105" y="139"/>
      <point x="82" y="118"/>
      <point x="21" y="109" type="curve"/>
    </contour>
    <contour>
      <point x="529" y="109" type="curve" smooth="yes"/>
      <point x="526" y="109"/>
      <point x="515" y="109"/>
      <point x="510" y="110" type="curve"/>
      <point x="510" y="284" type="line"/>
      <point x="519" y="284"/>
      <point x="527" y="284"/>
      <point x="536" y="284" type="curve" smooth="yes"/>
      <point x="582" y="284"/>
      <point x="606" y="264"/>
      <point x="606" y="193" type="curve" smooth="yes"/>
      <point x="606" y="137"/>
      <point x="581" y="109"/>
    </contour>
  </outline>
</glyph>
<glyph name="m.sc" format="2">
  <advance width="608"/>
  <anchor x="304" y="0" name="bottom"/>
  <anchor x="304" y="588" name="top"/>
  <outline>
    <contour>
      <point x="37" y="0" type="curve"/>
      <point x="168" y="0" type="line"/>
      <point x="169" y="145"/>
      <point x="172" y="252"/>
      <point x="176" y="364" type="curve"/>
      <point x="201" y="277"/>
      <point x="239" y="154"/>
      <point x="259" y="75" type="curve"/>
      <point x="350" y="75" type="line"/>
      <point x="368" y="148"/>
      <point x="409" y="287"/>
      <point x="432" y="365" type="curve"/>
      <point x="437" y="231"/>
      <point x="439" y="152"/>
      <point x="441" y="0" type="curve"/>
      <point x="571" y="0" type="line"/>
      <point x="564" y="190"/>
      <point x="549" y="432"/>
      <point x="535" y="588" type="curve"/>
      <point x="402" y="588" type="line"/>
      <point x="376" y="503"/>
      <point x="341" y="381"/>
      <point x="307" y="264" type="curve"/>
      <point x="279" y="369"/>
      <point x="240" y="505"/>
      <point x="213" y="588" type="curve"/>
      <point x="72" y="588" type="line"/>
      <point x="58" y="439"/>
      <point x="43" y="189"/>
    </contour>
  </outline>
</glyph>
<glyph name="nine.tosf" format="2">
  <advance width="420"/>
  <outline>
    <contour>
      <point x="68" y="-107" type="line"/>
      <point x="281" y="-107"/>
      <point x="399" y="41"/>
      <point x="399" y="306" type="curve" smooth="yes"/>
      <point x="399" y="509"/>
      <point x="338" y="602"/>
      <point x="209" y="602" type="curve" smooth="yes"/>
      <point x="97" y="602"/>
      <point x="25" y="508"/>
      <point x="25" y="363" type="curve" smooth="yes"/>
      <point x="25" y="233"/>
      <point x="87" y="153"/>
      <point x="187" y="153" type="curve" smooth="yes"/>
      <point x="206" y="153"/>
      <point x="224" y="156"/>
      <point x="245" y="164" type="curve"/>
      <point x="225" y="53"/>
      <point x="167" y="5"/>
      <point x="54" y="4" type="curve"/>
    </contour>
    <contour>
      <point x="222" y="263" type="curve"/>
      <point x="179" y="263"/>
      <point x="165" y="289"/>
      <point x="165" y="367" type="curve" smooth="yes"/>
      <point x="165" y="451"/>
      <point x="178" y="483"/>
      <point x="211" y="483" type="curve"/>
      <point x="246" y="483"/>
      <point x="258" y="443"/>
      <point x="258" y="329" type="curve" smooth="yes"/>
      <point x="258" y="318"/>
      <point x="257" y="296"/>
      <point x="254" y="269" type="curve"/>
      <point x="245" y="265"/>
      <point x="235" y="263"/>
    </contour>
  </outline>
</glyph>
<glyph name="one.numr" format="2">
  <advance width="290"/>
  <outline>
    <contour>
      <point x="119" y="298" type="line"/>
      <point x="219" y="298" type="line"/>
      <point x="219" y="693" type="line"/>
      <point x="144" y="693" type="line"/>
      <point x="110" y="660"/>
      <point x="67" y="629"/>
      <point x="19" y="607" type="curve"/>
      <point x="55" y="527" type="line"/>
      <point x="82" y="540"/>
      <point x="103" y="552"/>
      <point x="119" y="565" type="curve"/>
    </contour>
  </outline>
</glyph>
<glyph name="oogonek.sc" format="2">
  <advance width="521"/>
  <anchor x="261" y="588" name="top"/>
  <outline>
    <contour>
      <point x="292" y="-208" type="curve" smooth="yes"/>
      <point x="321" y="-208"/>
      <point x="354" y="-204"/>
      <point x="381" y="-193" type="curve"/>
      <point x="372" y="-100" type="line"/>
      <point x="353" y="-107"/>
      <point x="340" y="-108"/>
      <point x="328" y="-108" type="curve" smooth="yes"/>
      <point x="304" y="-108"/>
      <point x="292" y="-97"/>
      <point x="292" y="-75" type="curve" smooth="yes"/>
      <point x="292" y="-61"/>
      <point x="297" y="-46"/>
      <point x="315" y="-27" type="curve" smooth="yes"/>
      <point x="327" y="-14"/>
      <point x="344" y="-1"/>
      <point x="369" y="13" type="curve" smooth="yes"/>
      <point x="447" y="57"/>
      <point x="491" y="155"/>
      <point x="491" y="294" type="curve" smooth="yes"/>
      <point x="491" y="488"/>
      <point x="405" y="602"/>
      <point x="260" y="602" type="curve" smooth="yes"/>
      <point x="115" y="602"/>
      <point x="30" y="488"/>
      <point x="30" y="294" type="curve" smooth="yes"/>
      <point x="30" y="114"/>
      <point x="104" y="1"/>
      <point x="233" y="-13" type="curve"/>
      <point x="233" y="-13"/>
      <point x="233" y="-13"/>
      <point x="233" y="-13" type="curve"/>
      <point x="197" y="-43"/>
      <point x="176" y="-74"/>
      <point x="176" y="-113" type="curve" smooth="yes"/>
      <point x="176" y="-172"/>
      <point x="222" y="-208"/>
    </contour>
    <contour>
      <point x="260" y="105" type="curve" smooth="yes"/>
      <point x="202" y="105"/>
      <point x="174" y="167"/>
      <point x="174" y="294" type="curve" smooth="yes"/>
      <point x="174" y="421"/>
      <point x="202" y="483"/>
      <point x="260" y="483" type="curve" smooth="yes"/>
      <point x="318" y="483"/>
      <point x="347" y="421"/>
      <point x="347" y="294" type="curve" smooth="yes"/>
      <point x="347" y="167"/>
      <point x="318" y="105"/>
    </contour>
  </outline>
</glyph>
<glyph name="paragraph.c2sc" format="2">
  <advance width="538"/>
  <outline>
    <contour>
      <point x="183" y="-157" type="line"/>
      <point x="300" y="-157" type="line"/>
      <point x="300" y="488" type="line"/>
      <point x="318" y="488"/>
      <point x="344" y="486"/>
      <point x="355" y="485" type="curve"/>
      <point x="355" y="-157" type="line"/>
      <point x="472" y="-157" type="line"/>
      <point x="472" y="571" type="line"/>
      <point x="417" y="586"/>
      <point x="337" y="595"/>
      <point x="272" y="595" type="curve" smooth="yes"/>
      <point x="116" y="595"/>
      <point x="36" y="525"/>
      <point x="36" y="405" type="curve" smooth="yes"/>
      <point x="36" y="297"/>
      <point x="84" y="241"/>
      <point x="183" y="220" type="curve"/>
    </contour>
  </outline>
</glyph>
<glyph name="phi.sc" format="2">
  <advance width="589"/>
  <outline>
    <contour>
      <point x="228" y="0" type="line"/>
      <point x="361" y="0" type="line"/>
      <point x="361" y="79" type="line"/>
      <point x="487" y="98"/>
      <point x="561" y="188"/>
      <point x="561" y="322" type="curve" smooth="yes"/>
      <point x="561" y="457"/>
      <point x="487" y="549"/>
      <point x="361" y="570" type="curve"/>
      <point x="361" y="646" type="line"/>
      <point x="228" y="646" type="line"/>
      <point x="228" y="570" type="line"/>
      <point x="102" y="549"/>
      <point x="28" y="457"/>
      <point x="28" y="322" type="curve" smooth="yes"/>
      <point x="28" y="186"/>
      <point x="102" y="96"/>
      <point x="228" y="79" type="curve"/>
    </contour>
    <contour>
      <point x="228" y="195" type="line"/>
      <point x="184" y="210"/>
      <point x="163" y="252"/>
      <point x="163" y="322" type="curve" smooth="yes"/>
      <point x="163" y="392"/>
      <point x="184" y="436"/>
      <point x="228" y="455" type="curve"/>
    </contour>
    <contour>
      <point x="361" y="195" type="curve"/>
      <point x="361" y="455" type="line"/>
      <point x="405" y="437"/>
      <point x="426" y="393"/>
      <point x="426" y="322" type="curve" smooth="yes"/>
      <point x="426" y="252"/>
      <point x="405" y="210"/>
    </contour>
  </outline>
</glyph>
<glyph name="psi.sc" format="2">
  <advance width="554"/>
  <outline>
    <contour>
      <point x="214" y="0" type="line"/>
      <point x="340" y="0" type="line"/>
      <point x="340" y="138" type="line"/>
      <point x="456" y="146"/>
      <point x="522" y="216"/>
      <point x="522" y="339" type="curve" smooth="yes"/>
      <point x="522" y="588" type="line"/>
      <point x="392" y="588" type="line"/>
      <point x="392" y="355" type="line" smooth="yes"/>
      <point x="392" y="291"/>
      <point x="376" y="265"/>
      <point x="342" y="261" type="curve"/>
      <point x="342" y="588" type="line"/>
      <point x="212" y="588" type="line"/>
      <point x="212" y="261" type="line"/>
      <point x="175" y="265"/>
      <point x="162" y="296"/>
      <point x="162" y="355" type="curve" smooth="yes"/>
      <point x="162" y="588" type="line"/>
      <point x="32" y="588" type="line"/>
      <point x="32" y="339" type="line" smooth="yes"/>
      <point x="32" y="219"/>
      <point x="101" y="146"/>
      <point x="214" y="138" type="curve"/>
    </contour>
  </outline>
</glyph>
<glyph name="psili.sc" format="2">
  <advance width="215"/>
  <anchor x="215" y="589" name="_topleft"/>
  <outline>
    <contour>
      <point x="43" y="381" type="line"/>
      <point x="97" y="425"/>
      <point x="153" y="482"/>
      <point x="153" y="547" type="curve" smooth="yes"/>
      <point x="153" y="594"/>
      <point x="123" y="618"/>
      <point x="86" y="618" type="curve" smooth="yes"/>
      <point x="51" y="618"/>
      <point x="22" y="593"/>
      <point x="22" y="556" type="curve" smooth="yes"/>
      <point x="22" y="531"/>
      <point x="36" y="507"/>
      <point x="61" y="496" type="curve"/>
      <point x="45" y="473"/>
      <point x="24" y="447"/>
      <point x="0" y="422" type="curve"/>
    </contour>
  </outline>
</glyph>
